<svg width="1920" height="642" viewBox="0 0 1920 642" fill="none" xmlns="http://www.w3.org/2000/svg">
<g clip-path="url(#clip0_338_259)">
<path fill-rule="evenodd" clip-rule="evenodd" d="M1640.5 886.74C1973.25 886.74 2243 688.236 2243 443.37C2243 198.504 1973.25 0 1640.5 0C1524.84 0 1416.79 23.9829 1325.04 65.5594C1233.47 100.077 1077.86 173.645 842.5 285.087C806.489 292.545 781.395 270.842 753.342 246.579C746.963 241.061 740.431 235.412 733.582 229.942C623.116 136.335 460.201 77.1464 278.5 77.1464C-54.2516 77.1464 -324 275.65 -324 520.517C-324 765.383 -54.2516 963.887 278.5 963.887C510.835 963.887 712.455 867.113 812.985 725.354H1175.54C1286.04 823.915 1453.3 886.74 1640.5 886.74Z" fill="url(#paint0_linear_338_259)"/>
<g filter="url(#filter0_d_338_259)">
<path d="M167.379 301.516L160.801 313.381C159.841 314.963 158.642 315.754 157.203 315.754C155.798 315.754 154.616 314.919 153.657 313.249L146.975 301.516V320.192H139.831V288.905H146.872L157.203 306.965L167.482 288.905H174.523V320.192H167.379V301.516ZM209.86 303.098V305.471C209.86 310.715 208.695 314.523 206.365 316.896C204.07 319.269 200.369 320.456 195.264 320.456C190.158 320.456 186.458 319.269 184.162 316.896C181.901 314.523 180.77 310.671 180.77 305.339V303.054C180.77 298.191 181.918 294.573 184.214 292.2C186.544 289.828 190.21 288.641 195.212 288.641C200.249 288.641 203.95 289.842 206.314 292.244C208.678 294.646 209.86 298.265 209.86 303.098ZM202.716 305.339V303.714C202.716 300.901 202.305 298.66 201.483 296.99C200.523 295.057 198.467 294.09 195.315 294.09C192.129 294.09 190.056 295.057 189.096 296.99C188.308 298.572 187.914 300.813 187.914 303.714V305.339C187.914 309.118 188.531 311.667 189.764 312.985C190.244 313.542 190.947 314.025 191.872 314.436C192.831 314.816 193.962 315.007 195.264 315.007C196.6 315.007 197.731 314.816 198.656 314.436C199.581 314.054 200.301 313.586 200.815 313.029C201.328 312.472 201.722 311.74 201.997 310.832C202.476 309.396 202.716 307.566 202.716 305.339Z" fill="white"/>
<path d="M250.29 320.192H243.146V307.537H229.731V320.192H222.587V288.905H229.731V302.132H243.146V288.905H250.29V320.192ZM287.067 320.192H279.615L277.559 314.787H265.276L263.271 320.192H255.819L267.537 291.541C268.051 290.545 268.616 289.857 269.233 289.476C269.884 289.095 270.672 288.905 271.597 288.905C272.523 288.905 273.259 289.081 273.807 289.432C274.389 289.784 274.903 290.487 275.349 291.541L287.067 320.192ZM275.915 309.646L271.597 297.254L267.075 309.646H275.915ZM321.641 288.905V317.028C321.641 317.995 321.298 318.83 320.613 319.533C319.927 320.206 319.122 320.544 318.197 320.544C315.833 320.544 313.897 319.371 312.39 317.028L299.746 300.11V320.192H292.602V288.905H299.489L314.497 309.382V288.905H321.641ZM327.819 305.471V301.604C327.819 297.532 329.07 294.354 331.571 292.069C334.073 289.784 337.533 288.641 341.953 288.641C346.373 288.641 349.92 289.784 352.592 292.069C354.477 293.68 355.419 296.097 355.419 299.319H348.737C348.737 295.833 346.562 294.09 342.21 294.09C340.909 294.09 339.795 294.31 338.87 294.749C337.979 295.159 337.311 295.642 336.865 296.199C336.42 296.756 336.077 297.576 335.837 298.66C335.598 299.744 335.461 300.652 335.426 301.385C335.392 302.117 335.375 303.098 335.375 304.329C335.375 305.559 335.375 306.394 335.375 306.833C335.409 307.243 335.461 307.932 335.529 308.899C335.632 309.836 335.769 310.51 335.94 310.92C336.146 311.33 336.42 311.857 336.762 312.502C337.139 313.146 337.602 313.601 338.15 313.864C339.555 314.626 341.148 315.007 342.93 315.007C345.911 315.007 348.018 313.923 349.251 311.755V309.646H344.831V304.548H355.368V313.996C354.306 316.134 352.627 317.746 350.331 318.83C348.035 319.914 345.431 320.456 342.519 320.456C337.345 320.456 333.593 319.225 331.263 316.765C328.967 314.274 327.819 310.51 327.819 305.471Z" fill="url(#paint1_linear_338_259)"/>
<mask id="mask0_338_259" style="mask-type:luminance" maskUnits="userSpaceOnUse" x="61" y="277" width="64" height="55">
<path d="M124.415 277.407H61V331.627H124.415V277.407Z" fill="white"/>
</mask>
<g mask="url(#mask0_338_259)">
<path d="M71.6249 295.803L81.3846 298.212L92.1117 291.551L76.7169 291.929C76.5659 291.934 76.4194 291.974 76.2925 292.045L71.4212 294.439C71.2697 294.511 71.1468 294.62 71.0686 294.752C70.9903 294.884 70.9601 295.033 70.9821 295.18C71.004 295.327 71.077 295.465 71.1916 295.576C71.3062 295.687 71.4571 295.766 71.6249 295.803Z" fill="white" fill-opacity="0.7"/>
<path d="M119.608 288.343L108.915 286.369C108.016 286.203 107.085 286.203 106.186 286.371C105.287 286.539 104.44 286.87 103.704 287.342L71.4041 307.412L63.6474 307.122C63.2031 307.109 62.7652 307.215 62.3957 307.427C62.0262 307.638 61.7436 307.943 61.588 308.299C61.4323 308.655 61.4113 309.044 61.5281 309.411C61.6448 309.778 61.8933 310.104 62.2386 310.343L69.7917 315.466C69.916 315.552 70.064 315.609 70.2215 315.632C70.379 315.655 70.5408 315.643 70.6913 315.597C72.8469 314.885 80.8752 311.243 90.3633 306.788L92.2642 323.491C92.2804 323.636 92.3424 323.774 92.4437 323.891C92.5448 324.007 92.6815 324.098 92.8387 324.154C92.9958 324.209 93.1677 324.226 93.3357 324.204C93.5036 324.182 93.6614 324.121 93.7919 324.028L98.0351 321.009C98.2674 320.843 98.4237 320.612 98.4766 320.357L102.499 301.07C109.288 297.848 115.772 294.728 120.338 292.523C120.812 292.302 121.195 291.962 121.436 291.55C121.676 291.137 121.762 290.671 121.683 290.215C121.603 289.758 121.361 289.334 120.99 289C120.619 288.665 120.137 288.436 119.608 288.343Z" fill="white"/>
<path d="M119.608 288.343L108.915 286.369C108.016 286.203 107.085 286.203 106.186 286.371C105.287 286.539 104.44 286.87 103.704 287.342L71.4041 307.412L63.6474 307.122C63.2031 307.109 62.7652 307.215 62.3957 307.427C62.0262 307.638 61.7436 307.943 61.588 308.299C61.4323 308.655 61.4113 309.044 61.5281 309.411C61.6448 309.778 61.8933 310.104 62.2386 310.343L69.7917 315.466C69.916 315.552 70.064 315.609 70.2215 315.632C70.379 315.655 70.5408 315.643 70.6913 315.597C72.8469 314.885 80.8752 311.243 90.3633 306.788L92.2642 323.491C92.2804 323.636 92.3424 323.774 92.4437 323.891C92.5448 324.007 92.6815 324.098 92.8387 324.154C92.9958 324.209 93.1677 324.226 93.3357 324.204C93.5036 324.182 93.6614 324.121 93.7919 324.028L98.0351 321.009C98.2674 320.843 98.4237 320.612 98.4766 320.357L102.499 301.07C109.288 297.848 115.772 294.728 120.338 292.523C120.812 292.302 121.195 291.962 121.436 291.55C121.676 291.137 121.762 290.671 121.683 290.215C121.603 289.758 121.361 289.334 120.99 289C120.619 288.665 120.137 288.436 119.608 288.343Z" fill="url(#paint2_linear_338_259)" fill-opacity="0.6"/>
</g>
</g>
<path d="M150.78 342.684H152.274V354.798H150.78V342.684ZM139.368 343.998H147.936V345.222H139.368V343.998ZM139.098 352.35L138.936 351.072C141.6 351.072 145.398 351.036 148.44 350.676L148.53 351.792C145.398 352.296 141.744 352.35 139.098 352.35ZM140.988 345.042H142.428V351.288H140.988V345.042ZM144.876 345.042H146.316V351.288H144.876V345.042ZM148.08 345.762H151.572V346.986H148.08V345.762ZM148.08 348.876H151.572V350.1H148.08V348.876ZM141.87 357.372H152.706V358.596H141.87V357.372ZM141.87 353.808H143.364V358.146H141.87V353.808ZM167.303 342.666H168.797V358.974H167.303V342.666ZM156.395 353.808H157.745C160.463 353.808 162.893 353.7 165.773 353.232L165.935 354.456C162.983 354.942 160.535 355.05 157.745 355.05H156.395V353.808ZM156.359 344.196H163.883V350.01H157.889V354.276H156.395V348.786H162.371V345.42H156.359V344.196ZM183.033 342.684H184.527V358.956H183.033V342.684ZM184.167 349.362H187.191V350.622H184.167V349.362ZM171.927 345.276H181.521V346.5H171.927V345.276ZM176.787 347.85C179.091 347.85 180.747 349.398 180.747 351.594C180.747 353.79 179.091 355.338 176.787 355.338C174.501 355.338 172.827 353.79 172.827 351.594C172.827 349.398 174.501 347.85 176.787 347.85ZM176.787 349.092C175.311 349.092 174.249 350.118 174.249 351.594C174.249 353.052 175.311 354.096 176.787 354.096C178.263 354.096 179.325 353.052 179.325 351.594C179.325 350.118 178.263 349.092 176.787 349.092ZM176.013 342.882H177.507V345.834H176.013V342.882ZM190.124 344.304H200.6V345.546H190.124V344.304ZM188.576 355.446H203.282V356.688H188.576V355.446ZM194.282 349.632H195.776V356.058H194.282V349.632ZM200.042 344.304H201.518V345.924C201.518 347.94 201.518 350.172 200.924 353.466L199.43 353.268C200.042 350.154 200.042 347.868 200.042 345.924V344.304ZM216.486 343.098H217.764V343.89C217.764 346.842 214.65 349.02 211.356 349.596L210.762 348.408C213.642 347.976 216.486 346.068 216.486 343.89V343.098ZM216.72 343.098H217.998V343.89C217.998 346.014 220.878 347.958 223.704 348.39L223.146 349.56C219.852 349.002 216.72 346.77 216.72 343.89V343.098ZM209.88 350.964H224.622V352.188H209.88V350.964ZM216.612 351.72H218.106V355.464H216.612V351.72ZM211.752 357.372H222.984V358.596H211.752V357.372ZM211.752 353.898H213.228V357.768H211.752V353.898ZM226.457 355.626H241.199V356.868H226.457V355.626ZM233.081 351.684H234.557V356.04H233.081V351.684ZM233.045 344.736H234.305V345.744C234.305 349.074 230.975 351.594 227.771 352.26L227.159 351.072C229.967 350.604 233.045 348.318 233.045 345.744V344.736ZM233.315 344.736H234.575V345.744C234.575 348.318 237.671 350.55 240.515 351.018L239.921 352.206C236.663 351.558 233.315 349.074 233.315 345.744V344.736ZM227.663 344.16H239.957V345.384H227.663V344.16ZM243.015 355.716H257.757V356.958H243.015V355.716ZM249.603 352.224H251.097V356.238H249.603V352.224ZM244.797 343.89H255.939V348.822H246.327V352.08H244.851V347.616H254.463V345.096H244.797V343.89ZM244.851 351.45H256.317V352.674H244.851V351.45ZM259.556 350.928H274.316V352.152H259.556V350.928ZM266.288 351.702H267.8V355.446H266.288V351.702ZM261.428 357.354H272.678V358.596H261.428V357.354ZM261.428 353.844H262.922V357.696H261.428V353.844ZM266.918 343.08C270.356 343.08 272.624 344.34 272.624 346.356C272.624 348.372 270.356 349.632 266.918 349.632C263.462 349.632 261.212 348.372 261.212 346.356C261.212 344.34 263.462 343.08 266.918 343.08ZM266.918 344.304C264.434 344.304 262.796 345.096 262.796 346.356C262.796 347.634 264.434 348.408 266.918 348.408C269.402 348.408 271.04 347.634 271.04 346.356C271.04 345.096 269.402 344.304 266.918 344.304ZM288.222 346.302H293.136V347.544H288.222V346.302ZM288.222 351.45H293.136V352.692H288.222V351.45ZM285.234 343.926C287.592 343.926 289.284 346.14 289.284 349.596C289.284 353.07 287.592 355.284 285.234 355.284C282.858 355.284 281.184 353.07 281.184 349.596C281.184 346.14 282.858 343.926 285.234 343.926ZM285.234 345.276C283.668 345.276 282.588 346.968 282.588 349.596C282.588 352.242 283.668 353.97 285.234 353.97C286.8 353.97 287.88 352.242 287.88 349.596C287.88 346.968 286.8 345.276 285.234 345.276ZM292.812 342.666H294.288V358.974H292.812V342.666ZM309.731 342.684H311.153V352.98H309.731V342.684ZM307.085 347.094H310.163V348.336H307.085V347.094ZM306.257 343.008H307.661V352.404H306.257V343.008ZM297.365 344.628H305.609V345.816H297.365V344.628ZM301.505 346.644C303.539 346.644 304.961 347.76 304.961 349.434C304.961 351.126 303.539 352.224 301.505 352.224C299.453 352.224 298.031 351.126 298.031 349.434C298.031 347.76 299.453 346.644 301.505 346.644ZM301.505 347.76C300.227 347.76 299.363 348.426 299.363 349.434C299.363 350.46 300.227 351.108 301.505 351.108C302.765 351.108 303.629 350.46 303.629 349.434C303.629 348.426 302.765 347.76 301.505 347.76ZM300.767 342.81H302.225V345.294H300.767V342.81ZM305.825 353.268C309.209 353.268 311.243 354.276 311.243 356.094C311.243 357.894 309.209 358.92 305.825 358.92C302.405 358.92 300.389 357.894 300.389 356.094C300.389 354.276 302.405 353.268 305.825 353.268ZM305.825 354.42C303.323 354.42 301.865 355.014 301.865 356.094C301.865 357.174 303.323 357.786 305.825 357.786C308.291 357.786 309.767 357.174 309.767 356.094C309.767 355.014 308.291 354.42 305.825 354.42ZM321.357 342.954C324.939 342.954 327.081 343.962 327.081 345.78C327.081 347.598 324.939 348.606 321.357 348.606C317.757 348.606 315.633 347.598 315.633 345.78C315.633 343.962 317.757 342.954 321.357 342.954ZM321.357 344.088C318.693 344.088 317.163 344.7 317.163 345.78C317.163 346.86 318.693 347.472 321.357 347.472C324.003 347.472 325.533 346.86 325.533 345.78C325.533 344.7 324.003 344.088 321.357 344.088ZM313.995 349.686H328.701V350.892H313.995V349.686ZM315.777 352.278H326.829V355.95H317.289V357.93H315.813V354.87H325.353V353.43H315.777V352.278ZM315.813 357.606H327.315V358.776H315.813V357.606ZM340.646 343.44C343.076 343.44 344.804 344.79 344.804 346.788C344.804 348.768 343.076 350.154 340.646 350.154C338.234 350.154 336.506 348.768 336.506 346.788C336.506 344.79 338.234 343.44 340.646 343.44ZM340.646 344.682C339.062 344.682 337.928 345.546 337.928 346.788C337.928 348.048 339.062 348.894 340.646 348.894C342.23 348.894 343.364 348.048 343.364 346.788C343.364 345.546 342.23 344.682 340.646 344.682ZM339.98 351.954H341.474V358.452H339.98V351.954ZM347.18 342.684H348.656V358.974H347.18V342.684ZM335.498 352.764L335.3 351.504C338.324 351.504 342.446 351.468 346.028 350.928L346.136 352.044C342.464 352.71 338.468 352.764 335.498 352.764ZM363.018 342.702H364.512V354.906H363.018V342.702ZM364.044 348.03H366.924V349.29H364.044V348.03ZM351.93 344.664H361.542V345.87H351.93V344.664ZM356.736 346.77C359.04 346.77 360.624 347.976 360.624 349.812C360.624 351.63 359.04 352.836 356.736 352.836C354.414 352.836 352.83 351.63 352.83 349.812C352.83 347.976 354.414 346.77 356.736 346.77ZM356.736 347.94C355.26 347.94 354.252 348.678 354.252 349.812C354.252 350.928 355.26 351.666 356.736 351.666C358.194 351.666 359.202 350.928 359.202 349.812C359.202 348.678 358.194 347.94 356.736 347.94ZM355.98 342.684H357.474V345.294H355.98V342.684ZM354.378 357.372H365.25V358.596H354.378V357.372ZM354.378 353.934H355.872V357.894H354.378V353.934ZM380.542 346.302H385.456V347.544H380.542V346.302ZM380.542 351.45H385.456V352.692H380.542V351.45ZM377.554 343.926C379.912 343.926 381.604 346.14 381.604 349.596C381.604 353.07 379.912 355.284 377.554 355.284C375.178 355.284 373.504 353.07 373.504 349.596C373.504 346.14 375.178 343.926 377.554 343.926ZM377.554 345.276C375.988 345.276 374.908 346.968 374.908 349.596C374.908 352.242 375.988 353.97 377.554 353.97C379.12 353.97 380.2 352.242 380.2 349.596C380.2 346.968 379.12 345.276 377.554 345.276ZM385.132 342.666H386.608V358.974H385.132V342.666ZM402.051 342.684H403.473V352.98H402.051V342.684ZM399.405 347.094H402.483V348.336H399.405V347.094ZM398.577 343.008H399.981V352.404H398.577V343.008ZM389.685 344.628H397.929V345.816H389.685V344.628ZM393.825 346.644C395.859 346.644 397.281 347.76 397.281 349.434C397.281 351.126 395.859 352.224 393.825 352.224C391.773 352.224 390.351 351.126 390.351 349.434C390.351 347.76 391.773 346.644 393.825 346.644ZM393.825 347.76C392.547 347.76 391.683 348.426 391.683 349.434C391.683 350.46 392.547 351.108 393.825 351.108C395.085 351.108 395.949 350.46 395.949 349.434C395.949 348.426 395.085 347.76 393.825 347.76ZM393.087 342.81H394.545V345.294H393.087V342.81ZM398.145 353.268C401.529 353.268 403.563 354.276 403.563 356.094C403.563 357.894 401.529 358.92 398.145 358.92C394.725 358.92 392.709 357.894 392.709 356.094C392.709 354.276 394.725 353.268 398.145 353.268ZM398.145 354.42C395.643 354.42 394.185 355.014 394.185 356.094C394.185 357.174 395.643 357.786 398.145 357.786C400.611 357.786 402.087 357.174 402.087 356.094C402.087 355.014 400.611 354.42 398.145 354.42ZM417.703 353.034H419.179V358.974H417.703V353.034ZM411.097 352.512H425.803V353.754H411.097V352.512ZM417.685 345.474H418.999V345.888C418.999 348.696 415.957 350.766 412.537 351.288L412.015 350.1C414.949 349.704 417.685 347.922 417.685 345.888V345.474ZM417.883 345.474H419.179V345.888C419.179 347.904 421.933 349.704 424.849 350.1L424.309 351.288C420.907 350.784 417.883 348.66 417.883 345.888V345.474ZM412.519 344.682H424.381V345.906H412.519V344.682ZM417.703 342.684H419.179V345.114H417.703V342.684ZM431.706 345.744H432.93V346.554C432.93 349.488 431.148 351.9 428.43 352.854L427.692 351.684C430.104 350.856 431.706 348.84 431.706 346.554V345.744ZM431.958 345.744H433.2V346.554C433.2 348.714 434.856 350.622 437.268 351.378L436.53 352.566C433.812 351.666 431.958 349.362 431.958 346.554V345.744ZM428.106 344.862H436.782V346.068H428.106V344.862ZM431.706 342.792H433.2V345.312H431.706V342.792ZM436.242 347.688H440.346V348.93H436.242V347.688ZM439.536 342.702H441.03V354.834H439.536V342.702ZM430.644 357.372H441.48V358.596H430.644V357.372ZM430.644 353.754H432.138V358.038H430.644V353.754ZM449.824 343.728H457.402V350.388H449.824V343.728ZM455.962 344.934H451.264V349.2H455.962V344.934ZM460.804 342.684H462.298V352.026H460.804V342.684ZM456.394 353.952H457.672V354.258C457.672 356.598 454.774 358.47 451.48 358.902L450.976 357.75C453.802 357.426 456.394 355.878 456.394 354.258V353.952ZM456.61 353.952H457.906V354.258C457.906 355.824 460.426 357.408 463.252 357.75L462.748 358.902C459.436 358.452 456.61 356.544 456.61 354.258V353.952ZM451.624 353.124H462.676V354.294H451.624V353.124ZM456.394 351.558H457.906V353.646H456.394V351.558ZM476.6 347.202H480.218V348.408H476.6V347.202ZM476.474 351.288H480.182V352.494H476.474V351.288ZM482.684 342.684H484.124V358.956H482.684V342.684ZM479.426 343.098H480.83V358.128H479.426V343.098ZM475.79 344.736H477.23C477.23 349.002 475.52 352.836 471.146 355.446L470.282 354.384C474.08 352.08 475.79 348.84 475.79 345.006V344.736ZM471.002 344.736H476.384V345.96H471.002V344.736ZM487.453 344.16H496.975V345.276H487.453V344.16ZM492.223 345.906C494.563 345.906 496.093 346.842 496.093 348.318C496.093 349.812 494.563 350.748 492.223 350.748C489.901 350.748 488.371 349.812 488.371 348.318C488.371 346.842 489.901 345.906 492.223 345.906ZM492.223 346.95C490.765 346.95 489.775 347.472 489.775 348.318C489.775 349.146 490.765 349.704 492.223 349.704C493.717 349.704 494.671 349.146 494.671 348.318C494.671 347.472 493.717 346.95 492.223 346.95ZM491.467 342.576H492.979V344.754H491.467V342.576ZM491.467 350.154H492.979V352.368H491.467V350.154ZM498.667 342.702H500.161V353.592H498.667V342.702ZM489.253 354.348H500.161V358.956H498.667V355.536H489.253V354.348ZM487.129 353.088L486.931 351.882C489.919 351.882 493.951 351.864 497.371 351.396L497.479 352.44C493.933 353.034 490.063 353.088 487.129 353.088ZM516.299 348.192H520.835V349.416H516.299V348.192ZM512.375 344.088H513.599V346.986C513.599 350.64 511.673 354.132 509.099 355.518L508.145 354.33C510.539 353.142 512.375 350.01 512.375 346.986V344.088ZM512.663 344.088H513.869V346.986C513.869 349.956 515.705 352.908 518.063 354.024L517.181 355.23C514.553 353.898 512.663 350.55 512.663 346.986V344.088ZM520.097 342.666H521.573V358.974H520.097V342.666ZM536.548 342.666H538.042V358.974H536.548V342.666ZM525.658 344.052H527.134V348.354H531.832V344.052H533.326V355.05H525.658V344.052ZM527.134 349.542V353.826H531.832V349.542H527.134ZM547.814 343.8H549.11V345.042C549.11 348.588 545.816 351.342 542.558 352.08L541.892 350.838C544.754 350.298 547.814 347.814 547.814 345.042V343.8ZM548.084 343.8H549.38V345.042C549.38 347.832 552.458 350.298 555.302 350.838L554.636 352.08C551.396 351.342 548.084 348.606 548.084 345.042V343.8ZM541.298 355.536H556.04V356.76H541.298V355.536ZM562.621 355.644H577.363V356.886H562.621V355.644ZM569.209 351.432H570.703V355.986H569.209V351.432ZM564.331 344.034H575.563V351.702H564.331V344.034ZM574.123 345.24H565.789V350.496H574.123V345.24ZM591.455 342.684H592.877V352.98H591.455V342.684ZM588.809 347.094H591.887V348.336H588.809V347.094ZM587.981 343.008H589.385V352.404H587.981V343.008ZM579.089 344.628H587.333V345.816H579.089V344.628ZM583.229 346.644C585.263 346.644 586.685 347.76 586.685 349.434C586.685 351.126 585.263 352.224 583.229 352.224C581.177 352.224 579.755 351.126 579.755 349.434C579.755 347.76 581.177 346.644 583.229 346.644ZM583.229 347.76C581.951 347.76 581.087 348.426 581.087 349.434C581.087 350.46 581.951 351.108 583.229 351.108C584.489 351.108 585.353 350.46 585.353 349.434C585.353 348.426 584.489 347.76 583.229 347.76ZM582.491 342.81H583.949V345.294H582.491V342.81ZM587.549 353.268C590.933 353.268 592.967 354.276 592.967 356.094C592.967 357.894 590.933 358.92 587.549 358.92C584.129 358.92 582.113 357.894 582.113 356.094C582.113 354.276 584.129 353.268 587.549 353.268ZM587.549 354.42C585.047 354.42 583.589 355.014 583.589 356.094C583.589 357.174 585.047 357.786 587.549 357.786C590.015 357.786 591.491 357.174 591.491 356.094C591.491 355.014 590.015 354.42 587.549 354.42Z" fill="#BDBDBD"/>
<path d="M145.125 536.01H146.37V536.667C146.37 539.469 143.396 541.527 140.248 542.063L139.695 540.922C142.445 540.524 145.125 538.725 145.125 536.667V536.01ZM145.488 536.01H146.716V536.667C146.716 538.725 149.414 540.524 152.147 540.922L151.61 542.063C148.446 541.527 145.488 539.469 145.488 536.667V536.01ZM145.177 544.138H146.595V550.105H145.177V544.138ZM138.865 543.377H152.994V544.553H138.865V543.377ZM140.179 535.439H151.628V536.598H140.179V535.439ZM154.774 546.888H168.938V548.081H154.774V546.888ZM161.069 543.101H162.487V547.286H161.069V543.101ZM161.034 535.509H162.28V536.719C162.28 540.057 159.08 542.634 155.933 543.291L155.327 542.098C158.077 541.596 161.034 539.296 161.034 536.719V535.509ZM161.294 535.509H162.539V536.719C162.539 539.313 165.514 541.596 168.263 542.098L167.641 543.291C164.493 542.634 161.294 540.057 161.294 536.719V535.509ZM176.84 548.873C176.504 548.873 176.215 548.754 175.974 548.516C175.732 548.275 175.611 547.984 175.611 547.644C175.611 547.309 175.732 547.022 175.974 546.784C176.215 546.543 176.504 546.422 176.84 546.422C177.175 546.422 177.464 546.543 177.706 546.784C177.947 547.022 178.068 547.309 178.068 547.644C178.068 547.869 178.011 548.076 177.896 548.265C177.785 548.449 177.638 548.596 177.454 548.707C177.27 548.817 177.065 548.873 176.84 548.873ZM176.84 542.006C176.504 542.006 176.215 541.886 175.974 541.644C175.732 541.403 175.611 541.114 175.611 540.778C175.611 540.442 175.732 540.156 175.974 539.918C176.215 539.677 176.504 539.556 176.84 539.556C177.175 539.556 177.464 539.677 177.706 539.918C177.947 540.156 178.068 540.442 178.068 540.778C178.068 541.003 178.011 541.21 177.896 541.398C177.785 541.583 177.638 541.73 177.454 541.841C177.27 541.951 177.065 542.006 176.84 542.006ZM196.616 534.471H197.999V550.105H196.616V534.471ZM193.97 540.731H196.979V541.925H193.97V540.731ZM193.07 534.817H194.419V549.309H193.07V534.817ZM185.288 545.055H186.308C188.591 545.055 190.148 544.968 191.964 544.588L192.102 545.781C190.234 546.179 188.66 546.248 186.308 546.248H185.288V545.055ZM185.288 536.373H191.099V537.549H186.706V545.591H185.288V536.373ZM208.928 538.777H212.871V539.953H208.928V538.777ZM212.058 534.488H213.493V545.937H212.058V534.488ZM203.515 548.583H213.926V549.759H203.515V548.583ZM203.515 544.934H204.95V549.188H203.515V544.934ZM204.622 536.425H205.798V537.688C205.798 540.524 204.034 542.98 201.422 543.948L200.678 542.807C203.013 541.977 204.622 539.901 204.622 537.688V536.425ZM204.898 536.425H206.057V537.67C206.057 539.694 207.579 541.665 209.844 542.461L209.118 543.585C206.576 542.668 204.898 540.316 204.898 537.67V536.425ZM201.128 535.751H209.481V536.909H201.128V535.751ZM217.383 535.439H224.301V536.615H217.383V535.439ZM219.735 538.829H221.153V542.565H219.735V538.829ZM223.73 535.439H225.131V536.287C225.131 537.273 225.131 538.673 224.733 540.524L223.332 540.403C223.73 538.57 223.73 537.273 223.73 536.287V535.439ZM227.275 534.471H228.711V544.225H227.275V534.471ZM228.054 538.725H230.942V539.936H228.054V538.725ZM216.605 543.153L216.432 541.959C219.268 541.959 223.056 541.907 226.221 541.492L226.324 542.547C223.09 543.083 219.389 543.153 216.605 543.153ZM223.661 544.415C226.878 544.415 228.867 545.453 228.867 547.234C228.867 549.033 226.878 550.07 223.661 550.07C220.444 550.07 218.49 549.033 218.49 547.234C218.49 545.453 220.444 544.415 223.661 544.415ZM223.661 545.539C221.344 545.539 219.925 546.162 219.925 547.234C219.925 548.306 221.344 548.929 223.661 548.929C225.996 548.929 227.397 548.306 227.397 547.234C227.397 546.162 225.996 545.539 223.661 545.539ZM239.57 536.771H244.343V537.947H239.57V536.771ZM239.57 540.264H244.343V541.458H239.57V540.264ZM234.884 544.553H245.312V550.105H243.876V545.712H234.884V544.553ZM243.876 534.471H245.312V543.689H243.876V534.471ZM236.717 535.336C239.017 535.336 240.746 536.892 240.746 539.106C240.746 541.319 239.017 542.859 236.717 542.859C234.399 542.859 232.687 541.319 232.687 539.106C232.687 536.892 234.399 535.336 236.717 535.336ZM236.717 536.564C235.195 536.564 234.071 537.618 234.071 539.106C234.071 540.593 235.195 541.631 236.717 541.631C238.239 541.631 239.38 540.593 239.38 539.106C239.38 537.618 238.239 536.564 236.717 536.564ZM252.488 535.82H253.664V538.622C253.664 542.219 251.727 545.556 249.167 546.854L248.285 545.678C250.603 544.571 252.488 541.579 252.488 538.622V535.82ZM252.73 535.82H253.906V538.622C253.906 541.475 255.773 544.346 258.091 545.418L257.226 546.56C254.684 545.314 252.73 542.098 252.73 538.622V535.82ZM259.717 534.454H261.152V550.122H259.717V534.454ZM272.472 544.138H273.942V550.105H272.472V544.138ZM277.851 544.138H279.321V550.105H277.851V544.138ZM268.84 543.36H283.022V544.553H268.84V543.36ZM275.896 535.094C279.165 535.094 281.361 536.408 281.361 538.5C281.361 540.576 279.165 541.907 275.896 541.907C272.645 541.907 270.431 540.576 270.431 538.5C270.431 536.408 272.645 535.094 275.896 535.094ZM275.896 536.252C273.51 536.252 271.884 537.134 271.884 538.5C271.884 539.867 273.51 540.749 275.896 540.749C278.283 540.749 279.891 539.867 279.891 538.5C279.891 537.134 278.283 536.252 275.896 536.252ZM288.693 535.353H289.886V536.961C289.886 539.988 288.174 542.461 285.493 543.464L284.75 542.288C287.136 541.44 288.693 539.348 288.693 536.961V535.353ZM288.952 535.353H290.128V536.909C290.128 539.123 291.65 541.077 293.933 541.873L293.155 542.997C290.63 542.046 288.952 539.746 288.952 536.909V535.353ZM296.181 534.471H297.616V543.723H296.181V534.471ZM292.48 544.173C295.697 544.173 297.686 545.262 297.686 547.13C297.686 548.998 295.697 550.07 292.48 550.07C289.246 550.07 287.257 548.998 287.257 547.13C287.257 545.262 289.246 544.173 292.48 544.173ZM292.48 545.314C290.128 545.314 288.693 545.989 288.693 547.13C288.693 548.272 290.128 548.946 292.48 548.946C294.832 548.946 296.268 548.272 296.268 547.13C296.268 545.989 294.832 545.314 292.48 545.314ZM292.791 537.774H296.492V538.967H292.791V537.774ZM302.44 535.491H312.211V536.65H302.44V535.491ZM300.676 542.201H314.805V543.377H300.676V542.201ZM306.989 542.98H308.424V550.122H306.989V542.98ZM311.537 535.491H312.938V536.84C312.938 538.466 312.938 540.299 312.35 542.945L310.932 542.755C311.537 540.23 311.537 538.414 311.537 536.84V535.491ZM331.729 534.454H333.182V550.105H331.729V534.454ZM332.784 540.801H335.672V541.994H332.784V540.801ZM327.734 536.148H329.135C329.135 540.593 327.094 544.605 322.044 547.148L321.249 546.041C325.572 543.844 327.734 540.507 327.734 536.373V536.148ZM321.975 536.148H328.478V537.324H321.975V536.148ZM345.407 538.518H348.935V539.711H345.407V538.518ZM348.486 534.471H349.921V543.792H348.486V534.471ZM344.785 544.259C348.001 544.259 349.99 545.349 349.99 547.182C349.99 549.033 348.001 550.088 344.785 550.088C341.551 550.088 339.562 549.033 339.562 547.182C339.562 545.349 341.551 544.259 344.785 544.259ZM344.785 545.384C342.433 545.384 340.997 546.041 340.997 547.182C340.997 548.306 342.433 548.963 344.785 548.963C347.137 548.963 348.572 548.306 348.572 547.182C348.572 546.041 347.137 545.384 344.785 545.384ZM341.049 536.045H342.225V537.307C342.225 540.195 340.461 542.668 337.867 543.637L337.123 542.495C339.441 541.648 341.049 539.555 341.049 537.307V536.045ZM341.326 536.045H342.485V537.307C342.485 539.331 344.006 541.268 346.272 542.063L345.546 543.204C343.003 542.288 341.326 539.936 341.326 537.307V536.045ZM337.556 535.612H345.909V536.788H337.556V535.612ZM359.31 542.893H360.728V545.591H359.31V542.893ZM352.963 542.115H367.093V543.291H352.963V542.115ZM354.537 545.107H365.346V550.105H363.911V546.266H354.537V545.107ZM354.848 534.834H356.267V536.598H363.824V534.834H365.26V540.68H354.848V534.834ZM356.267 537.722V539.538H363.824V537.722H356.267ZM368.89 546.992H383.054V548.185H368.89V546.992ZM375.22 543.637H376.655V547.493H375.22V543.637ZM370.602 535.63H381.307V540.368H372.072V543.498H370.654V539.21H379.889V536.788H370.602V535.63ZM370.654 542.893H381.67V544.069H370.654V542.893ZM385.568 548.756L391.059 537.898V537.806H384.708V536.178H393.024V537.861L387.552 548.756H385.568ZM399.28 548.928C398.719 548.92 398.167 548.817 397.622 548.621C397.082 548.424 396.59 548.097 396.148 547.638C395.706 547.18 395.352 546.563 395.086 545.79C394.824 545.016 394.693 544.05 394.693 542.891C394.693 541.794 394.801 540.819 395.018 539.968C395.239 539.116 395.557 538.397 395.97 537.812C396.384 537.222 396.883 536.774 397.469 536.467C398.054 536.16 398.711 536.006 399.44 536.006C400.189 536.006 400.855 536.154 401.436 536.449C402.017 536.743 402.488 537.151 402.848 537.671C403.213 538.191 403.444 538.782 403.542 539.446H401.669C401.542 538.921 401.291 538.494 400.914 538.162C400.537 537.83 400.046 537.665 399.44 537.665C398.519 537.665 397.8 538.066 397.284 538.868C396.773 539.671 396.515 540.786 396.511 542.215H396.603C396.82 541.859 397.086 541.556 397.401 541.306C397.72 541.053 398.077 540.858 398.47 540.723C398.867 540.584 399.284 540.514 399.722 540.514C400.451 540.514 401.11 540.692 401.7 541.048C402.294 541.401 402.767 541.888 403.119 542.51C403.471 543.132 403.647 543.845 403.647 544.647C403.647 545.45 403.465 546.176 403.1 546.827C402.74 547.478 402.232 547.994 401.577 548.375C400.922 548.752 400.156 548.936 399.28 548.928ZM399.274 547.331C399.757 547.331 400.189 547.212 400.57 546.975C400.951 546.737 401.252 546.418 401.473 546.017C401.694 545.616 401.804 545.167 401.804 544.672C401.804 544.189 401.696 543.749 401.479 543.351C401.266 542.954 400.971 542.639 400.595 542.406C400.222 542.172 399.796 542.056 399.317 542.056C398.953 542.056 398.615 542.125 398.304 542.264C397.997 542.404 397.727 542.596 397.493 542.842C397.26 543.087 397.076 543.37 396.94 543.689C396.809 544.004 396.744 544.338 396.744 544.69C396.744 545.161 396.852 545.597 397.069 545.998C397.29 546.4 397.591 546.723 397.972 546.969C398.357 547.21 398.791 547.331 399.274 547.331Z" fill="#BDBDBD"/>
<path d="M1694.75 553.881C1693.48 553.881 1692.36 553.707 1691.37 553.359C1690.4 553.015 1689.57 552.509 1688.9 551.842C1688.23 551.171 1687.72 550.35 1687.37 549.379C1687.02 548.409 1686.85 547.302 1686.85 546.057C1686.85 544.845 1687.02 543.756 1687.38 542.79C1687.73 541.823 1688.24 541 1688.91 540.321C1689.59 539.637 1690.41 539.115 1691.37 538.755C1692.34 538.395 1693.44 538.214 1694.67 538.214C1695.84 538.214 1696.88 538.399 1697.77 538.767C1698.67 539.136 1699.42 539.641 1700.03 540.284C1700.65 540.927 1701.11 541.664 1701.42 542.495C1701.73 543.326 1701.89 544.204 1701.89 545.13C1701.89 545.776 1701.85 546.409 1701.76 547.027C1701.68 547.641 1701.53 548.198 1701.31 548.698C1701.09 549.193 1700.78 549.59 1700.36 549.889C1699.96 550.184 1699.42 550.337 1698.77 550.35C1698.42 550.362 1698.08 550.321 1697.75 550.227C1697.43 550.133 1697.15 549.981 1696.92 549.772C1696.69 549.56 1696.55 549.289 1696.5 548.962H1696.43C1696.33 549.203 1696.17 549.429 1695.94 549.637C1695.71 549.842 1695.41 550.006 1695.06 550.129C1694.71 550.247 1694.3 550.296 1693.83 550.276C1693.31 550.256 1692.85 550.139 1692.44 549.926C1692.02 549.713 1691.67 549.418 1691.37 549.042C1691.08 548.665 1690.86 548.219 1690.7 547.703C1690.55 547.187 1690.47 546.614 1690.47 545.983C1690.47 545.377 1690.56 544.835 1690.74 544.356C1690.91 543.873 1691.15 543.457 1691.45 543.109C1691.76 542.757 1692.11 542.479 1692.51 542.274C1692.91 542.069 1693.33 541.94 1693.77 541.887C1694.2 541.838 1694.59 541.85 1694.95 541.924C1695.31 541.997 1695.61 542.11 1695.85 542.262C1696.09 542.413 1696.24 542.579 1696.31 542.759H1696.39V542.071H1697.9V547.77C1697.9 548.094 1697.98 548.368 1698.15 548.593C1698.32 548.818 1698.56 548.931 1698.88 548.931C1699.25 548.931 1699.54 548.794 1699.75 548.52C1699.96 548.245 1700.11 547.824 1700.2 547.254C1700.29 546.685 1700.33 545.957 1700.33 545.068C1700.33 544.446 1700.25 543.86 1700.08 543.312C1699.92 542.759 1699.67 542.259 1699.35 541.813C1699.03 541.363 1698.64 540.976 1698.17 540.652C1697.71 540.329 1697.17 540.079 1696.58 539.903C1695.98 539.727 1695.32 539.639 1694.6 539.639C1693.63 539.639 1692.76 539.791 1691.99 540.094C1691.23 540.393 1690.59 540.824 1690.07 541.389C1689.55 541.954 1689.15 542.632 1688.88 543.422C1688.61 544.208 1688.48 545.091 1688.48 546.069C1688.48 547.089 1688.62 547.993 1688.89 548.784C1689.17 549.57 1689.57 550.233 1690.11 550.773C1690.64 551.314 1691.31 551.725 1692.1 552.008C1692.89 552.286 1693.8 552.426 1694.83 552.426C1695.29 552.426 1695.74 552.385 1696.18 552.303C1696.62 552.225 1697.02 552.137 1697.36 552.039C1697.71 551.936 1697.97 551.854 1698.14 551.793L1698.57 553.138C1698.32 553.257 1697.98 553.373 1697.56 553.488C1697.14 553.603 1696.69 553.697 1696.19 553.77C1695.71 553.844 1695.23 553.881 1694.75 553.881ZM1694.19 548.771C1694.72 548.771 1695.15 548.665 1695.47 548.452C1695.8 548.239 1696.03 547.922 1696.18 547.5C1696.32 547.074 1696.4 546.542 1696.4 545.903C1696.39 545.281 1696.31 544.786 1696.16 544.417C1696.01 544.045 1695.77 543.778 1695.45 543.619C1695.13 543.455 1694.71 543.373 1694.21 543.373C1693.75 543.373 1693.35 543.486 1693.03 543.711C1692.7 543.936 1692.45 544.241 1692.28 544.626C1692.11 545.011 1692.03 545.439 1692.02 545.91C1692.03 546.405 1692.1 546.872 1692.23 547.31C1692.37 547.744 1692.6 548.096 1692.91 548.366C1693.22 548.636 1693.65 548.771 1694.19 548.771ZM1704.12 539.694H1706.42L1710.43 549.472H1710.57L1714.58 539.694H1716.88V552.272H1715.07V543.17H1714.96L1711.25 552.254H1709.75L1706.04 543.164H1705.92V552.272H1704.12V539.694ZM1730.56 545.983C1730.56 547.326 1730.32 548.481 1729.83 549.447C1729.34 550.409 1728.66 551.15 1727.81 551.67C1726.96 552.186 1725.99 552.444 1724.9 552.444C1723.81 552.444 1722.84 552.186 1721.99 551.67C1721.13 551.15 1720.46 550.407 1719.97 549.441C1719.48 548.475 1719.23 547.322 1719.23 545.983C1719.23 544.64 1719.48 543.488 1719.97 542.526C1720.46 541.559 1721.13 540.818 1721.99 540.302C1722.84 539.782 1723.81 539.522 1724.9 539.522C1725.99 539.522 1726.96 539.782 1727.81 540.302C1728.66 540.818 1729.34 541.559 1729.83 542.526C1730.32 543.488 1730.56 544.64 1730.56 545.983ZM1728.69 545.983C1728.69 544.96 1728.52 544.098 1728.19 543.398C1727.86 542.693 1727.41 542.161 1726.84 541.801C1726.27 541.437 1725.62 541.254 1724.9 541.254C1724.18 541.254 1723.53 541.437 1722.96 541.801C1722.39 542.161 1721.94 542.693 1721.61 543.398C1721.28 544.098 1721.12 544.96 1721.12 545.983C1721.12 547.007 1721.28 547.871 1721.61 548.575C1721.94 549.275 1722.39 549.807 1722.96 550.172C1723.53 550.532 1724.18 550.712 1724.9 550.712C1725.62 550.712 1726.27 550.532 1726.84 550.172C1727.41 549.807 1727.86 549.275 1728.19 548.575C1728.52 547.871 1728.69 547.007 1728.69 545.983ZM1732.93 552.272V539.694H1734.83V545.16H1741.1V539.694H1743V552.272H1741.1V546.788H1734.83V552.272H1732.93ZM1746.83 552.272H1744.81L1749.34 539.694H1751.53L1756.06 552.272H1754.04L1750.49 541.979H1750.39L1746.83 552.272ZM1747.17 547.347H1753.7V548.943H1747.17V547.347ZM1768.03 539.694V552.272H1766.28L1759.89 543.048H1759.77V552.272H1757.88V539.694H1759.63L1766.03 548.931H1766.15V539.694H1768.03ZM1779.31 543.668C1779.19 543.295 1779.03 542.962 1778.83 542.667C1778.63 542.368 1778.4 542.114 1778.12 541.905C1777.85 541.692 1777.53 541.531 1777.18 541.42C1776.83 541.31 1776.45 541.254 1776.03 541.254C1775.33 541.254 1774.69 541.437 1774.12 541.801C1773.55 542.165 1773.1 542.7 1772.77 543.404C1772.44 544.104 1772.28 544.962 1772.28 545.977C1772.28 546.997 1772.44 547.858 1772.77 548.563C1773.1 549.267 1773.56 549.801 1774.14 550.165C1774.71 550.53 1775.37 550.712 1776.11 550.712C1776.79 550.712 1777.39 550.573 1777.89 550.294C1778.41 550.016 1778.8 549.623 1779.08 549.115C1779.36 548.604 1779.5 548.002 1779.5 547.31L1780 547.402H1776.4V545.836H1781.34V547.267C1781.34 548.323 1781.12 549.24 1780.66 550.018C1780.22 550.792 1779.6 551.39 1778.81 551.811C1778.02 552.233 1777.12 552.444 1776.11 552.444C1774.97 552.444 1773.97 552.182 1773.11 551.658C1772.26 551.134 1771.59 550.391 1771.11 549.429C1770.63 548.462 1770.39 547.316 1770.39 545.989C1770.39 544.986 1770.53 544.086 1770.81 543.287C1771.09 542.489 1771.48 541.811 1771.98 541.254C1772.49 540.693 1773.08 540.266 1773.77 539.971C1774.46 539.672 1775.21 539.522 1776.02 539.522C1776.7 539.522 1777.33 539.623 1777.92 539.823C1778.51 540.024 1779.03 540.309 1779.49 540.677C1779.95 541.046 1780.34 541.484 1780.64 541.991C1780.94 542.495 1781.15 543.054 1781.25 543.668H1779.31Z" fill="#BDBDBD"/>
<path d="M139.382 413.726V401.148H143.865C144.844 401.148 145.654 401.326 146.297 401.682C146.94 402.039 147.421 402.526 147.74 403.144C148.06 403.758 148.219 404.45 148.219 405.22C148.219 405.994 148.058 406.69 147.734 407.308C147.415 407.922 146.932 408.409 146.285 408.769C145.642 409.126 144.833 409.304 143.859 409.304H140.776V407.695H143.687C144.305 407.695 144.807 407.588 145.192 407.375C145.576 407.158 145.859 406.864 146.039 406.491C146.219 406.118 146.309 405.695 146.309 405.22C146.309 404.745 146.219 404.323 146.039 403.955C145.859 403.586 145.574 403.298 145.185 403.089C144.801 402.88 144.293 402.776 143.662 402.776H141.279V413.726H139.382ZM150.444 401.148H152.747L156.751 410.925H156.899L160.903 401.148H163.206V413.726H161.4V404.624H161.283L157.574 413.707H156.076L152.366 404.618H152.25V413.726H150.444V401.148ZM185.185 399.441H186.621V415.075H185.185V399.441ZM186.275 405.857H189.18V407.067H186.275V405.857ZM174.515 401.931H183.733V403.107H174.515V401.931ZM179.184 404.404C181.398 404.404 182.989 405.891 182.989 408.001C182.989 410.111 181.398 411.598 179.184 411.598C176.988 411.598 175.38 410.111 175.38 408.001C175.38 405.891 176.988 404.404 179.184 404.404ZM179.184 405.597C177.766 405.597 176.746 406.583 176.746 408.001C176.746 409.402 177.766 410.405 179.184 410.405C180.602 410.405 181.623 409.402 181.623 408.001C181.623 406.583 180.602 405.597 179.184 405.597ZM178.441 399.631H179.876V402.467H178.441V399.631ZM190.511 407.137H204.64V408.313H190.511V407.137ZM196.858 404.629H198.276V407.621H196.858V404.629ZM192.292 404.179H202.997V405.355H192.292V404.179ZM192.292 400.15H202.876V401.308H193.71V404.871H192.292V400.15ZM197.549 409.437C200.887 409.437 202.91 410.457 202.91 412.238C202.91 414.054 200.887 415.057 197.549 415.057C194.212 415.057 192.188 414.054 192.188 412.238C192.188 410.457 194.212 409.437 197.549 409.437ZM197.549 410.543C195.111 410.543 193.641 411.166 193.641 412.238C193.641 413.328 195.111 413.933 197.549 413.933C200.005 413.933 201.458 413.328 201.458 412.238C201.458 411.166 200.005 410.543 197.549 410.543ZM217.834 399.441H219.269V410.993H217.834V399.441ZM214.462 404.266H218.111V405.459H214.462V404.266ZM213.009 400.651H214.513C214.513 404.681 211.677 407.742 207.267 409.212L206.645 408.053C210.467 406.773 213.009 404.318 213.009 401.222V400.651ZM207.423 400.651H213.943V401.827H207.423V400.651ZM209.394 413.553H219.667V414.729H209.394V413.553ZM209.394 409.834H210.83V414.141H209.394V409.834Z" fill="#BDBDBD"/>
<line x1="170.25" y1="416" x2="170.25" y2="399" stroke="#BDBDBD" stroke-width="1.5"/>
<path d="M140.444 442.726H138.43L142.956 430.148H145.149L149.675 442.726H147.66L144.105 432.433H144.006L140.444 442.726ZM140.782 437.8H147.316V439.397H140.782V437.8ZM153.389 430.148V442.726H151.491V430.148H153.389ZM184.527 428.441H185.962V444.075H184.527V428.441ZM185.616 434.857H188.522V436.067H185.616V434.857ZM173.856 430.931H183.074V432.107H173.856V430.931ZM178.526 433.404C180.739 433.404 182.33 434.891 182.33 437.001C182.33 439.111 180.739 440.598 178.526 440.598C176.329 440.598 174.721 439.111 174.721 437.001C174.721 434.891 176.329 433.404 178.526 433.404ZM178.526 434.597C177.108 434.597 176.087 435.583 176.087 437.001C176.087 438.402 177.108 439.405 178.526 439.405C179.944 439.405 180.964 438.402 180.964 437.001C180.964 435.583 179.944 434.597 178.526 434.597ZM177.782 428.631H179.217V431.467H177.782V428.631ZM189.852 436.137H203.981V437.313H189.852V436.137ZM196.199 433.629H197.617V436.621H196.199V433.629ZM191.633 433.179H202.338V434.355H191.633V433.179ZM191.633 429.15H202.217V430.308H193.051V433.871H191.633V429.15ZM196.891 438.437C200.228 438.437 202.252 439.457 202.252 441.238C202.252 443.054 200.228 444.057 196.891 444.057C193.553 444.057 191.529 443.054 191.529 441.238C191.529 439.457 193.553 438.437 196.891 438.437ZM196.891 439.543C194.452 439.543 192.982 440.166 192.982 441.238C192.982 442.328 194.452 442.933 196.891 442.933C199.346 442.933 200.799 442.328 200.799 441.238C200.799 440.166 199.346 439.543 196.891 439.543ZM217.175 428.441H218.611V439.993H217.175V428.441ZM213.803 433.266H217.452V434.459H213.803V433.266ZM212.35 429.651H213.855C213.855 433.681 211.019 436.742 206.609 438.212L205.986 437.053C209.808 435.773 212.35 433.318 212.35 430.222V429.651ZM206.764 429.651H213.284V430.827H206.764V429.651ZM208.736 442.553H219.008V443.729H208.736V442.553ZM208.736 438.834H210.171V443.141H208.736V438.834ZM232.923 429.444H234.427C234.427 433.421 231.574 436.223 226.974 437.451L226.42 436.309C230.484 435.237 232.923 432.972 232.923 430.084V429.444ZM227.233 429.444H233.753V430.602H227.233V429.444ZM237.61 428.441H239.062V437.261H237.61V428.441ZM228.945 438.022H239.062V443.867H228.945V438.022ZM237.644 439.18H230.363V442.691H237.644V439.18ZM245.875 438.108H247.293V441.792H245.875V438.108ZM251.115 438.108H252.533V441.792H251.115V438.108ZM242.848 430.741H255.542V431.917H242.848V430.741ZM242.157 441.1H256.32V442.293H242.157V441.1ZM249.195 432.937C252.36 432.937 254.314 434.009 254.314 435.877C254.314 437.71 252.36 438.783 249.195 438.783C246.03 438.783 244.093 437.71 244.093 435.877C244.093 434.009 246.03 432.937 249.195 432.937ZM249.195 434.061C246.912 434.061 245.529 434.736 245.529 435.877C245.529 437.001 246.912 437.658 249.195 437.658C251.478 437.658 252.862 437.001 252.862 435.877C252.862 434.736 251.478 434.061 249.195 434.061ZM248.503 428.683H249.922V431.45H248.503V428.683ZM269.48 428.458H270.915V440.374H269.48V428.458ZM266.834 432.591H270.085V433.767H266.834V432.591ZM266.834 435.894H270.085V437.053H266.834V435.894ZM258.083 430.343H266.834V431.502H258.083V430.343ZM262.51 432.366C264.586 432.366 266.038 433.56 266.038 435.358C266.038 437.14 264.586 438.35 262.51 438.35C260.418 438.35 258.965 437.14 258.965 435.358C258.965 433.56 260.418 432.366 262.51 432.366ZM262.51 433.491C261.213 433.491 260.331 434.251 260.331 435.358C260.331 436.465 261.213 437.209 262.51 437.209C263.807 437.209 264.689 436.465 264.689 435.358C264.689 434.251 263.807 433.491 262.51 433.491ZM261.801 428.423H263.237V431.087H261.801V428.423ZM260.867 442.553H271.296V443.729H260.867V442.553ZM260.867 439.353H262.303V443.123H260.867V439.353ZM280.039 429.997H290.104V431.19H280.039V429.997ZM278.552 440.702H292.681V441.895H278.552V440.702ZM284.034 435.116H285.47V441.29H284.034V435.116ZM289.568 429.997H290.986V431.554C290.986 433.491 290.986 435.635 290.416 438.8L288.98 438.61C289.568 435.618 289.568 433.421 289.568 431.554V429.997ZM301.915 430.966H306.429V432.142H301.915V430.966ZM301.915 434.079H306.463V435.237H301.915V434.079ZM305.875 428.441H307.311V437.693H305.875V428.441ZM295.17 429.617H302.313V436.569H295.17V429.617ZM300.895 430.775H296.571V435.427H300.895V430.775ZM302.174 438.143C305.391 438.143 307.38 439.232 307.38 441.1C307.38 442.968 305.391 444.04 302.174 444.04C298.94 444.04 296.951 442.968 296.951 441.1C296.951 439.232 298.94 438.143 302.174 438.143ZM302.174 439.284C299.822 439.284 298.387 439.959 298.387 441.1C298.387 442.241 299.822 442.916 302.174 442.916C304.526 442.916 305.962 442.241 305.962 441.1C305.962 439.959 304.526 439.284 302.174 439.284ZM314.521 430.153H315.714V431.744C315.714 434.615 313.95 437.019 311.322 437.97L310.578 436.828C312.93 435.998 314.521 433.975 314.521 431.744V430.153ZM314.798 430.153H315.991V431.744C315.991 433.854 317.617 435.756 319.934 436.534L319.19 437.658C316.596 436.776 314.798 434.494 314.798 431.744V430.153ZM310.958 429.738H319.519V430.896H310.958V429.738ZM321.733 428.458H323.185V439.889H321.733V428.458ZM313.137 442.553H323.652V443.729H313.137V442.553ZM313.137 438.817H314.556V443.071H313.137V438.817Z" fill="#BDBDBD"/>
<line x1="167.25" y1="445" x2="167.25" y2="428" stroke="#BDBDBD" stroke-width="1.5"/>
<path d="M139.382 471.726V459.148H143.988C144.88 459.148 145.619 459.295 146.205 459.59C146.79 459.881 147.228 460.276 147.519 460.776C147.81 461.271 147.955 461.83 147.955 462.452C147.955 462.976 147.859 463.418 147.667 463.779C147.474 464.135 147.216 464.421 146.893 464.638C146.573 464.851 146.221 465.007 145.836 465.105V465.228C146.254 465.248 146.661 465.384 147.059 465.633C147.46 465.879 147.791 466.229 148.053 466.684C148.315 467.138 148.446 467.691 148.446 468.342C148.446 468.984 148.295 469.562 147.992 470.074C147.693 470.581 147.23 470.985 146.604 471.283C145.978 471.578 145.177 471.726 144.203 471.726H139.382ZM141.279 470.098H144.019C144.927 470.098 145.578 469.922 145.972 469.57C146.365 469.218 146.561 468.778 146.561 468.25C146.561 467.852 146.461 467.488 146.26 467.156C146.06 466.825 145.773 466.561 145.4 466.364C145.032 466.168 144.594 466.069 144.086 466.069H141.279V470.098ZM141.279 464.589H143.822C144.248 464.589 144.631 464.507 144.97 464.344C145.314 464.18 145.587 463.951 145.787 463.656C145.992 463.357 146.094 463.005 146.094 462.599C146.094 462.08 145.912 461.643 145.548 461.291C145.183 460.939 144.624 460.763 143.871 460.763H141.279V464.589ZM151.76 471.726H149.745L154.272 459.148H156.464L160.99 471.726H158.976L155.42 461.433H155.322L151.76 471.726ZM152.098 466.8H158.632V468.397H152.098V466.8ZM172.662 463.238H170.746C170.672 462.829 170.535 462.468 170.334 462.157C170.134 461.846 169.888 461.582 169.597 461.365C169.307 461.148 168.981 460.984 168.621 460.874C168.265 460.763 167.886 460.708 167.485 460.708C166.76 460.708 166.111 460.89 165.538 461.255C164.969 461.619 164.518 462.153 164.187 462.857C163.859 463.562 163.696 464.421 163.696 465.437C163.696 466.46 163.859 467.324 164.187 468.028C164.518 468.733 164.971 469.265 165.544 469.625C166.117 469.986 166.762 470.166 167.479 470.166C167.876 470.166 168.252 470.112 168.609 470.006C168.969 469.895 169.294 469.734 169.585 469.521C169.876 469.308 170.121 469.048 170.322 468.741C170.527 468.43 170.668 468.074 170.746 467.672L172.662 467.678C172.56 468.297 172.361 468.866 172.066 469.386C171.776 469.902 171.401 470.348 170.942 470.725C170.488 471.097 169.968 471.386 169.382 471.59C168.797 471.795 168.158 471.898 167.466 471.898C166.377 471.898 165.407 471.64 164.555 471.124C163.704 470.604 163.032 469.861 162.541 468.894C162.054 467.928 161.81 466.776 161.81 465.437C161.81 464.094 162.056 462.941 162.547 461.979C163.038 461.013 163.71 460.272 164.561 459.756C165.413 459.236 166.381 458.976 167.466 458.976C168.134 458.976 168.756 459.072 169.333 459.265C169.915 459.453 170.437 459.731 170.899 460.1C171.362 460.464 171.745 460.911 172.048 461.439C172.351 461.963 172.555 462.563 172.662 463.238ZM174.933 471.726V459.148H176.83V465.154H176.984L182.259 459.148H184.648L179.576 464.81L184.667 471.726H182.382L178.317 466.106L176.83 467.814V471.726H174.933ZM186.417 471.726V459.148H194.303V460.782H188.315V464.614H193.891V466.241H188.315V470.092H194.376V471.726H186.417ZM206.989 459.148V471.726H205.245L198.852 462.501H198.735V471.726H196.837V459.148H198.594L204.993 468.385H205.11V459.148H206.989ZM213.829 471.726H209.757V459.148H213.958C215.19 459.148 216.249 459.4 217.133 459.903C218.018 460.403 218.695 461.121 219.166 462.059C219.641 462.993 219.878 464.112 219.878 465.418C219.878 466.729 219.639 467.854 219.16 468.796C218.685 469.738 217.997 470.463 217.096 470.97C216.196 471.474 215.107 471.726 213.829 471.726ZM211.655 470.067H213.725C214.683 470.067 215.479 469.887 216.114 469.527C216.748 469.163 217.223 468.636 217.539 467.949C217.854 467.257 218.011 466.413 218.011 465.418C218.011 464.432 217.854 463.594 217.539 462.907C217.227 462.219 216.763 461.697 216.144 461.341C215.526 460.984 214.759 460.806 213.841 460.806H211.655V470.067ZM251.281 458.444H252.786C252.786 462.421 249.932 465.223 245.332 466.451L244.778 465.309C248.842 464.237 251.281 461.972 251.281 459.084V458.444ZM245.591 458.444H252.111V459.602H245.591V458.444ZM255.968 457.441H257.42V466.261H255.968V457.441ZM247.303 467.022H257.42V472.867H247.303V467.022ZM256.002 468.18H248.721V471.691H256.002V468.18ZM260.515 469.858H274.679V471.051H260.515V469.858ZM266.81 466.07H268.228V470.256H266.81V466.07ZM266.775 458.478H268.02V459.689C268.02 463.027 264.821 465.603 261.673 466.261L261.068 465.067C263.818 464.566 266.775 462.266 266.775 459.689V458.478ZM267.035 458.478H268.28V459.689C268.28 462.283 271.254 464.566 274.004 465.067L273.381 466.261C270.234 465.603 267.035 463.027 267.035 459.689V458.478ZM287.786 457.441H289.239V466.71H287.786V457.441ZM277.219 464.791H278.482C281.318 464.791 283.411 464.704 285.918 464.306L286.074 465.465C283.497 465.897 281.387 465.984 278.482 465.984H277.219V464.791ZM277.185 458.375H284.275V462.646H278.62V465.5H277.219V461.539H282.875V459.551H277.185V458.375ZM279.139 467.575H289.239V472.867H279.139V467.575ZM287.821 468.716H280.54V471.708H287.821V468.716Z" fill="#BDBDBD"/>
<line x1="235.25" y1="473" x2="235.25" y2="456" stroke="#BDBDBD" stroke-width="1.5"/>
<path d="M139.382 500.726V488.148H147.181V489.782H141.279V493.614H146.622V495.241H141.279V500.726H139.382ZM149.515 500.726V488.148H153.998C154.973 488.148 155.781 488.316 156.424 488.652C157.071 488.987 157.554 489.452 157.873 490.046C158.193 490.635 158.353 491.317 158.353 492.091C158.353 492.861 158.191 493.538 157.867 494.124C157.548 494.705 157.065 495.157 156.418 495.481C155.775 495.804 154.967 495.966 153.992 495.966H150.596V494.332H153.82C154.434 494.332 154.934 494.244 155.319 494.068C155.708 493.892 155.992 493.636 156.172 493.301C156.352 492.965 156.443 492.562 156.443 492.091C156.443 491.616 156.35 491.204 156.166 490.856C155.986 490.508 155.701 490.242 155.313 490.058C154.928 489.87 154.422 489.776 153.796 489.776H151.413V500.726H149.515ZM155.724 495.051L158.832 500.726H156.67L153.624 495.051H155.724ZM171.587 494.437C171.587 495.78 171.342 496.934 170.85 497.901C170.359 498.863 169.685 499.604 168.83 500.124C167.978 500.64 167.01 500.898 165.925 500.898C164.836 500.898 163.863 500.64 163.008 500.124C162.156 499.604 161.485 498.861 160.993 497.894C160.502 496.928 160.256 495.776 160.256 494.437C160.256 493.094 160.502 491.941 160.993 490.979C161.485 490.013 162.156 489.272 163.008 488.756C163.863 488.236 164.836 487.976 165.925 487.976C167.01 487.976 167.978 488.236 168.83 488.756C169.685 489.272 170.359 490.013 170.85 490.979C171.342 491.941 171.587 493.094 171.587 494.437ZM169.708 494.437C169.708 493.413 169.542 492.551 169.21 491.851C168.883 491.147 168.433 490.615 167.859 490.255C167.29 489.89 166.645 489.708 165.925 489.708C165.2 489.708 164.553 489.89 163.984 490.255C163.415 490.615 162.965 491.147 162.633 491.851C162.306 492.551 162.142 493.413 162.142 494.437C162.142 495.46 162.306 496.324 162.633 497.028C162.965 497.729 163.415 498.261 163.984 498.625C164.553 498.986 165.2 499.166 165.925 499.166C166.645 499.166 167.29 498.986 167.859 498.625C168.433 498.261 168.883 497.729 169.21 497.028C169.542 496.324 169.708 495.46 169.708 494.437ZM184.105 488.148V500.726H182.361L175.968 491.501H175.851V500.726H173.953V488.148H175.71L182.109 497.385H182.226V488.148H184.105ZM186.253 489.782V488.148H195.987V489.782H192.063V500.726H190.171V489.782H186.253ZM198.138 500.726V488.148H206.023V489.782H200.036V493.614H205.612V495.241H200.036V499.092H206.097V500.726H198.138ZM218.71 488.148V500.726H216.966L210.573 491.501H210.456V500.726H208.558V488.148H210.315L216.714 497.385H216.831V488.148H218.71ZM225.55 500.726H221.478V488.148H225.679C226.911 488.148 227.97 488.4 228.854 488.903C229.738 489.403 230.416 490.121 230.887 491.059C231.362 491.993 231.599 493.112 231.599 494.418C231.599 495.729 231.36 496.854 230.881 497.796C230.406 498.738 229.718 499.463 228.817 499.97C227.916 500.474 226.827 500.726 225.55 500.726ZM223.376 499.067H225.446C226.404 499.067 227.2 498.887 227.835 498.527C228.469 498.163 228.944 497.636 229.259 496.949C229.575 496.257 229.732 495.413 229.732 494.418C229.732 493.432 229.575 492.594 229.259 491.907C228.948 491.219 228.483 490.697 227.865 490.341C227.247 489.984 226.479 489.806 225.562 489.806H223.376V499.067ZM260.085 490.487H263.613V491.681H260.085V490.487ZM263.163 486.441H264.599V495.762H263.163V486.441ZM259.463 496.229C262.679 496.229 264.668 497.319 264.668 499.152C264.668 501.002 262.679 502.057 259.463 502.057C256.229 502.057 254.24 501.002 254.24 499.152C254.24 497.319 256.229 496.229 259.463 496.229ZM259.463 497.353C257.111 497.353 255.675 498.01 255.675 499.152C255.675 500.276 257.111 500.933 259.463 500.933C261.815 500.933 263.25 500.276 263.25 499.152C263.25 498.01 261.815 497.353 259.463 497.353ZM255.727 488.014H256.903V489.277C256.903 492.165 255.139 494.638 252.545 495.607L251.801 494.465C254.119 493.618 255.727 491.525 255.727 489.277V488.014ZM256.004 488.014H257.162V489.277C257.162 491.3 258.684 493.237 260.95 494.033L260.223 495.174C257.681 494.258 256.004 491.906 256.004 489.277V488.014ZM252.234 487.582H260.587V488.758H252.234V487.582ZM275.112 488.966H279.626V490.142H275.112V488.966ZM275.112 492.079H279.661V493.237H275.112V492.079ZM279.073 486.441H280.508V495.693H279.073V486.441ZM268.368 487.617H275.51V494.569H268.368V487.617ZM274.092 488.775H269.768V493.427H274.092V488.775ZM275.372 496.143C278.588 496.143 280.577 497.232 280.577 499.1C280.577 500.968 278.588 502.04 275.372 502.04C272.138 502.04 270.149 500.968 270.149 499.1C270.149 497.232 272.138 496.143 275.372 496.143ZM275.372 497.284C273.02 497.284 271.584 497.959 271.584 499.1C271.584 500.241 273.02 500.916 275.372 500.916C277.724 500.916 279.159 500.241 279.159 499.1C279.159 497.959 277.724 497.284 275.372 497.284ZM283.551 495.399H297.732V496.575H283.551V495.399ZM289.88 496.125H291.298V502.075H289.88V496.125ZM290.607 487.063C293.875 487.063 296.071 488.395 296.071 490.487C296.071 492.58 293.875 493.912 290.607 493.912C287.355 493.912 285.142 492.58 285.142 490.487C285.142 488.395 287.355 487.063 290.607 487.063ZM290.607 488.222C288.22 488.222 286.594 489.104 286.594 490.487C286.594 491.871 288.22 492.753 290.607 492.753C292.993 492.753 294.601 491.871 294.601 490.487C294.601 489.104 292.993 488.222 290.607 488.222Z" fill="#BDBDBD"/>
<line x1="242.25" y1="502" x2="242.25" y2="485" stroke="#BDBDBD" stroke-width="1.5"/>
</g>
<defs>
<filter id="filter0_d_338_259" x="59.0001" y="286.245" width="298.872" height="42.8757" filterUnits="userSpaceOnUse" color-interpolation-filters="sRGB">
<feFlood flood-opacity="0" result="BackgroundImageFix"/>
<feColorMatrix in="SourceAlpha" type="matrix" values="0 0 0 0 0 0 0 0 0 0 0 0 0 0 0 0 0 0 127 0" result="hardAlpha"/>
<feOffset dy="2.45349"/>
<feGaussianBlur stdDeviation="1.22675"/>
<feComposite in2="hardAlpha" operator="out"/>
<feColorMatrix type="matrix" values="0 0 0 0 0 0 0 0 0 0 0 0 0 0 0 0 0 0 0.25 0"/>
<feBlend mode="normal" in2="BackgroundImageFix" result="effect1_dropShadow_338_259"/>
<feBlend mode="normal" in="SourceGraphic" in2="effect1_dropShadow_338_259" result="shape"/>
</filter>
<linearGradient id="paint0_linear_338_259" x1="959.5" y1="0" x2="959.5" y2="963.887" gradientUnits="userSpaceOnUse">
<stop stop-color="#4A3C92"/>
<stop offset="0.495" stop-color="#261A5F"/>
<stop offset="0.9999" stop-color="#08041F"/>
</linearGradient>
<linearGradient id="paint1_linear_338_259" x1="222.587" y1="304.592" x2="355.419" y2="304.592" gradientUnits="userSpaceOnUse">
<stop stop-color="white"/>
<stop offset="1" stop-color="#9990FF" stop-opacity="0.7"/>
</linearGradient>
<linearGradient id="paint2_linear_338_259" x1="101.413" y1="294.424" x2="127.335" y2="289.797" gradientUnits="userSpaceOnUse">
<stop stop-color="#8F79FF" stop-opacity="0"/>
<stop offset="0.987093" stop-color="#8F79FF"/>
</linearGradient>
<clipPath id="clip0_338_259">
<rect width="1920" height="642" fill="white"/>
</clipPath>
</defs>
</svg>

