<svg width="1918" height="648" viewBox="0 0 1918 648" fill="none" xmlns="http://www.w3.org/2000/svg">
<g clip-path="url(#clip0_1406_1330)">
<path fill-rule="evenodd" clip-rule="evenodd" d="M1640.5 895.028C1973.25 895.028 2243 694.669 2243 447.514C2243 200.359 1973.25 0 1640.5 0C1524.84 0 1416.79 24.207 1325.04 66.1721C1233.47 101.012 1077.86 175.268 842.5 287.751C806.489 295.279 781.395 273.373 753.342 248.883C746.963 243.314 740.431 237.612 733.582 232.091C623.116 137.61 460.201 77.8674 278.5 77.8674C-54.2516 77.8674 -324 278.227 -324 525.381C-324 772.536 -54.2516 972.895 278.5 972.895C510.835 972.895 712.455 875.217 812.985 732.133H1175.54C1286.04 831.615 1453.3 895.028 1640.5 895.028Z" fill="url(#paint0_linear_1406_1330)"/>
<g filter="url(#filter0_d_1406_1330)">
<path d="M167.379 304.334L160.801 316.31C159.841 317.907 158.642 318.705 157.203 318.705C155.798 318.705 154.616 317.862 153.657 316.177L146.975 304.334V323.185H139.831V291.605H146.872L157.203 309.834L167.482 291.605H174.523V323.185H167.379V304.334ZM209.86 305.931V308.326C209.86 313.619 208.695 317.463 206.365 319.858C204.07 322.253 200.369 323.451 195.264 323.451C190.158 323.451 186.458 322.253 184.162 319.858C181.901 317.463 180.77 313.574 180.77 308.193V305.887C180.77 300.978 181.918 297.327 184.214 294.932C186.544 292.536 190.21 291.339 195.212 291.339C200.249 291.339 203.95 292.551 206.314 294.976C208.678 297.4 209.86 301.052 209.86 305.931ZM202.716 308.193V306.552C202.716 303.714 202.305 301.451 201.483 299.766C200.523 297.814 198.467 296.839 195.315 296.839C192.129 296.839 190.056 297.814 189.096 299.766C188.308 301.363 187.914 303.625 187.914 306.552V308.193C187.914 312.008 188.531 314.58 189.764 315.911C190.244 316.472 190.947 316.96 191.872 317.374C192.831 317.759 193.962 317.951 195.264 317.951C196.6 317.951 197.731 317.759 198.656 317.374C199.581 316.99 200.301 316.517 200.815 315.955C201.328 315.393 201.722 314.654 201.997 313.737C202.476 312.288 202.716 310.44 202.716 308.193Z" fill="white"/>
<path d="M250.29 323.185H243.146V310.411H229.731V323.185H222.587V291.605H229.731V304.955H243.146V291.605H250.29V323.185ZM287.067 323.185H279.615L277.559 317.729H265.276L263.271 323.185H255.819L267.537 294.266C268.051 293.26 268.616 292.566 269.233 292.182C269.884 291.797 270.672 291.605 271.597 291.605C272.523 291.605 273.259 291.782 273.807 292.137C274.389 292.492 274.903 293.202 275.349 294.266L287.067 323.185ZM275.915 312.54L271.597 300.032L267.075 312.54H275.915ZM321.641 291.605V319.991C321.641 320.967 321.298 321.81 320.613 322.519C319.927 323.199 319.122 323.54 318.197 323.54C315.833 323.54 313.897 322.356 312.39 319.991L299.746 302.915V323.185H292.602V291.605H299.489L314.497 312.274V291.605H321.641ZM327.819 308.326V304.423C327.819 300.313 329.07 297.105 331.571 294.798C334.073 292.492 337.533 291.339 341.953 291.339C346.373 291.339 349.92 292.492 352.592 294.798C354.477 296.425 355.419 298.864 355.419 302.117H348.737C348.737 298.598 346.562 296.839 342.21 296.839C340.909 296.839 339.795 297.06 338.87 297.504C337.979 297.918 337.311 298.405 336.865 298.968C336.42 299.529 336.077 300.357 335.837 301.451C335.598 302.545 335.461 303.462 335.426 304.201C335.392 304.94 335.375 305.931 335.375 307.173C335.375 308.415 335.375 309.258 335.375 309.701C335.409 310.115 335.461 310.81 335.529 311.786C335.632 312.732 335.769 313.412 335.94 313.826C336.146 314.24 336.42 314.772 336.762 315.423C337.139 316.073 337.602 316.532 338.15 316.798C339.555 317.566 341.148 317.951 342.93 317.951C345.911 317.951 348.018 316.857 349.251 314.669V312.54H344.831V307.395H355.368V316.931C354.306 319.089 352.627 320.715 350.331 321.81C348.035 322.904 345.431 323.451 342.519 323.451C337.345 323.451 333.593 322.209 331.263 319.725C328.967 317.211 327.819 313.412 327.819 308.326Z" fill="url(#paint1_linear_1406_1330)"/>
<mask id="mask0_1406_1330" style="mask-type:luminance" maskUnits="userSpaceOnUse" x="61" y="280" width="64" height="55">
<path d="M124.415 280H61V334.726H124.415V280Z" fill="white"/>
</mask>
<g mask="url(#mask0_1406_1330)">
<path d="M71.6249 298.568L81.3846 301L92.1117 294.277L76.7169 294.657C76.5659 294.663 76.4194 294.704 76.2925 294.775L71.4212 297.191C71.2697 297.264 71.1468 297.374 71.0686 297.507C70.9903 297.641 70.9601 297.791 70.9821 297.94C71.004 298.088 71.077 298.227 71.1916 298.339C71.3062 298.451 71.4571 298.531 71.6249 298.568Z" fill="white" fill-opacity="0.7"/>
<path d="M119.608 291.038L108.915 289.046C108.016 288.878 107.085 288.878 106.186 289.048C105.287 289.217 104.44 289.551 103.704 290.028L71.4041 310.285L63.6474 309.992C63.2031 309.979 62.7652 310.087 62.3957 310.3C62.0262 310.514 61.7436 310.822 61.588 311.181C61.4323 311.54 61.4113 311.933 61.5281 312.303C61.6448 312.673 61.8933 313.002 62.2386 313.244L69.7917 318.415C69.916 318.501 70.064 318.559 70.2215 318.582C70.379 318.605 70.5408 318.593 70.6913 318.546C72.8469 317.829 80.8752 314.152 90.3633 309.655L92.2642 326.515C92.2804 326.661 92.3424 326.8 92.4437 326.918C92.5448 327.036 92.6815 327.128 92.8387 327.183C92.9958 327.239 93.1677 327.257 93.3357 327.234C93.5036 327.212 93.6614 327.151 93.7919 327.057L98.0351 324.01C98.2674 323.842 98.4237 323.609 98.4766 323.351L102.499 303.884C109.288 300.632 115.772 297.483 120.338 295.257C120.812 295.034 121.195 294.691 121.436 294.275C121.676 293.858 121.762 293.388 121.683 292.927C121.603 292.467 121.361 292.039 120.99 291.701C120.619 291.363 120.137 291.132 119.608 291.038Z" fill="white"/>
<path d="M119.608 291.038L108.915 289.046C108.016 288.878 107.085 288.878 106.186 289.048C105.287 289.217 104.44 289.551 103.704 290.028L71.4041 310.285L63.6474 309.992C63.2031 309.979 62.7652 310.087 62.3957 310.3C62.0262 310.514 61.7436 310.822 61.588 311.181C61.4323 311.54 61.4113 311.933 61.5281 312.303C61.6448 312.673 61.8933 313.002 62.2386 313.244L69.7917 318.415C69.916 318.501 70.064 318.559 70.2215 318.582C70.379 318.605 70.5408 318.593 70.6913 318.546C72.8469 317.829 80.8752 314.152 90.3633 309.655L92.2642 326.515C92.2804 326.661 92.3424 326.8 92.4437 326.918C92.5448 327.036 92.6815 327.128 92.8387 327.183C92.9958 327.239 93.1677 327.257 93.3357 327.234C93.5036 327.212 93.6614 327.151 93.7919 327.057L98.0351 324.01C98.2674 323.842 98.4237 323.609 98.4766 323.351L102.499 303.884C109.288 300.632 115.772 297.483 120.338 295.257C120.812 295.034 121.195 294.691 121.436 294.275C121.676 293.858 121.762 293.388 121.683 292.927C121.603 292.467 121.361 292.039 120.99 291.701C120.619 291.363 120.137 291.132 119.608 291.038Z" fill="url(#paint2_linear_1406_1330)" fill-opacity="0.6"/>
</g>
</g>
<path d="M150.78 345.858H152.274V357.972H150.78V345.858ZM139.368 347.172H147.936V348.396H139.368V347.172ZM139.098 355.524L138.936 354.246C141.6 354.246 145.398 354.21 148.44 353.85L148.53 354.966C145.398 355.47 141.744 355.524 139.098 355.524ZM140.988 348.216H142.428V354.462H140.988V348.216ZM144.876 348.216H146.316V354.462H144.876V348.216ZM148.08 348.936H151.572V350.16H148.08V348.936ZM148.08 352.05H151.572V353.274H148.08V352.05ZM141.87 360.546H152.706V361.77H141.87V360.546ZM141.87 356.982H143.364V361.32H141.87V356.982ZM167.303 345.84H168.797V362.148H167.303V345.84ZM156.395 356.982H157.745C160.463 356.982 162.893 356.874 165.773 356.406L165.935 357.63C162.983 358.116 160.535 358.224 157.745 358.224H156.395V356.982ZM156.359 347.37H163.883V353.184H157.889V357.45H156.395V351.96H162.371V348.594H156.359V347.37ZM183.033 345.858H184.527V362.13H183.033V345.858ZM184.167 352.536H187.191V353.796H184.167V352.536ZM171.927 348.45H181.521V349.674H171.927V348.45ZM176.787 351.024C179.091 351.024 180.747 352.572 180.747 354.768C180.747 356.964 179.091 358.512 176.787 358.512C174.501 358.512 172.827 356.964 172.827 354.768C172.827 352.572 174.501 351.024 176.787 351.024ZM176.787 352.266C175.311 352.266 174.249 353.292 174.249 354.768C174.249 356.226 175.311 357.27 176.787 357.27C178.263 357.27 179.325 356.226 179.325 354.768C179.325 353.292 178.263 352.266 176.787 352.266ZM176.013 346.056H177.507V349.008H176.013V346.056ZM190.124 347.478H200.6V348.72H190.124V347.478ZM188.576 358.62H203.282V359.862H188.576V358.62ZM194.282 352.806H195.776V359.232H194.282V352.806ZM200.042 347.478H201.518V349.098C201.518 351.114 201.518 353.346 200.924 356.64L199.43 356.442C200.042 353.328 200.042 351.042 200.042 349.098V347.478ZM216.486 346.272H217.764V347.064C217.764 350.016 214.65 352.194 211.356 352.77L210.762 351.582C213.642 351.15 216.486 349.242 216.486 347.064V346.272ZM216.72 346.272H217.998V347.064C217.998 349.188 220.878 351.132 223.704 351.564L223.146 352.734C219.852 352.176 216.72 349.944 216.72 347.064V346.272ZM209.88 354.138H224.622V355.362H209.88V354.138ZM216.612 354.894H218.106V358.638H216.612V354.894ZM211.752 360.546H222.984V361.77H211.752V360.546ZM211.752 357.072H213.228V360.942H211.752V357.072ZM226.457 358.8H241.199V360.042H226.457V358.8ZM233.081 354.858H234.557V359.214H233.081V354.858ZM233.045 347.91H234.305V348.918C234.305 352.248 230.975 354.768 227.771 355.434L227.159 354.246C229.967 353.778 233.045 351.492 233.045 348.918V347.91ZM233.315 347.91H234.575V348.918C234.575 351.492 237.671 353.724 240.515 354.192L239.921 355.38C236.663 354.732 233.315 352.248 233.315 348.918V347.91ZM227.663 347.334H239.957V348.558H227.663V347.334ZM243.015 358.89H257.757V360.132H243.015V358.89ZM249.603 355.398H251.097V359.412H249.603V355.398ZM244.797 347.064H255.939V351.996H246.327V355.254H244.851V350.79H254.463V348.27H244.797V347.064ZM244.851 354.624H256.317V355.848H244.851V354.624ZM259.556 354.102H274.316V355.326H259.556V354.102ZM266.288 354.876H267.8V358.62H266.288V354.876ZM261.428 360.528H272.678V361.77H261.428V360.528ZM261.428 357.018H262.922V360.87H261.428V357.018ZM266.918 346.254C270.356 346.254 272.624 347.514 272.624 349.53C272.624 351.546 270.356 352.806 266.918 352.806C263.462 352.806 261.212 351.546 261.212 349.53C261.212 347.514 263.462 346.254 266.918 346.254ZM266.918 347.478C264.434 347.478 262.796 348.27 262.796 349.53C262.796 350.808 264.434 351.582 266.918 351.582C269.402 351.582 271.04 350.808 271.04 349.53C271.04 348.27 269.402 347.478 266.918 347.478ZM288.222 349.476H293.136V350.718H288.222V349.476ZM288.222 354.624H293.136V355.866H288.222V354.624ZM285.234 347.1C287.592 347.1 289.284 349.314 289.284 352.77C289.284 356.244 287.592 358.458 285.234 358.458C282.858 358.458 281.184 356.244 281.184 352.77C281.184 349.314 282.858 347.1 285.234 347.1ZM285.234 348.45C283.668 348.45 282.588 350.142 282.588 352.77C282.588 355.416 283.668 357.144 285.234 357.144C286.8 357.144 287.88 355.416 287.88 352.77C287.88 350.142 286.8 348.45 285.234 348.45ZM292.812 345.84H294.288V362.148H292.812V345.84ZM309.731 345.858H311.153V356.154H309.731V345.858ZM307.085 350.268H310.163V351.51H307.085V350.268ZM306.257 346.182H307.661V355.578H306.257V346.182ZM297.365 347.802H305.609V348.99H297.365V347.802ZM301.505 349.818C303.539 349.818 304.961 350.934 304.961 352.608C304.961 354.3 303.539 355.398 301.505 355.398C299.453 355.398 298.031 354.3 298.031 352.608C298.031 350.934 299.453 349.818 301.505 349.818ZM301.505 350.934C300.227 350.934 299.363 351.6 299.363 352.608C299.363 353.634 300.227 354.282 301.505 354.282C302.765 354.282 303.629 353.634 303.629 352.608C303.629 351.6 302.765 350.934 301.505 350.934ZM300.767 345.984H302.225V348.468H300.767V345.984ZM305.825 356.442C309.209 356.442 311.243 357.45 311.243 359.268C311.243 361.068 309.209 362.094 305.825 362.094C302.405 362.094 300.389 361.068 300.389 359.268C300.389 357.45 302.405 356.442 305.825 356.442ZM305.825 357.594C303.323 357.594 301.865 358.188 301.865 359.268C301.865 360.348 303.323 360.96 305.825 360.96C308.291 360.96 309.767 360.348 309.767 359.268C309.767 358.188 308.291 357.594 305.825 357.594ZM321.357 346.128C324.939 346.128 327.081 347.136 327.081 348.954C327.081 350.772 324.939 351.78 321.357 351.78C317.757 351.78 315.633 350.772 315.633 348.954C315.633 347.136 317.757 346.128 321.357 346.128ZM321.357 347.262C318.693 347.262 317.163 347.874 317.163 348.954C317.163 350.034 318.693 350.646 321.357 350.646C324.003 350.646 325.533 350.034 325.533 348.954C325.533 347.874 324.003 347.262 321.357 347.262ZM313.995 352.86H328.701V354.066H313.995V352.86ZM315.777 355.452H326.829V359.124H317.289V361.104H315.813V358.044H325.353V356.604H315.777V355.452ZM315.813 360.78H327.315V361.95H315.813V360.78ZM340.646 346.614C343.076 346.614 344.804 347.964 344.804 349.962C344.804 351.942 343.076 353.328 340.646 353.328C338.234 353.328 336.506 351.942 336.506 349.962C336.506 347.964 338.234 346.614 340.646 346.614ZM340.646 347.856C339.062 347.856 337.928 348.72 337.928 349.962C337.928 351.222 339.062 352.068 340.646 352.068C342.23 352.068 343.364 351.222 343.364 349.962C343.364 348.72 342.23 347.856 340.646 347.856ZM339.98 355.128H341.474V361.626H339.98V355.128ZM347.18 345.858H348.656V362.148H347.18V345.858ZM335.498 355.938L335.3 354.678C338.324 354.678 342.446 354.642 346.028 354.102L346.136 355.218C342.464 355.884 338.468 355.938 335.498 355.938ZM363.018 345.876H364.512V358.08H363.018V345.876ZM364.044 351.204H366.924V352.464H364.044V351.204ZM351.93 347.838H361.542V349.044H351.93V347.838ZM356.736 349.944C359.04 349.944 360.624 351.15 360.624 352.986C360.624 354.804 359.04 356.01 356.736 356.01C354.414 356.01 352.83 354.804 352.83 352.986C352.83 351.15 354.414 349.944 356.736 349.944ZM356.736 351.114C355.26 351.114 354.252 351.852 354.252 352.986C354.252 354.102 355.26 354.84 356.736 354.84C358.194 354.84 359.202 354.102 359.202 352.986C359.202 351.852 358.194 351.114 356.736 351.114ZM355.98 345.858H357.474V348.468H355.98V345.858ZM354.378 360.546H365.25V361.77H354.378V360.546ZM354.378 357.108H355.872V361.068H354.378V357.108ZM380.542 349.476H385.456V350.718H380.542V349.476ZM380.542 354.624H385.456V355.866H380.542V354.624ZM377.554 347.1C379.912 347.1 381.604 349.314 381.604 352.77C381.604 356.244 379.912 358.458 377.554 358.458C375.178 358.458 373.504 356.244 373.504 352.77C373.504 349.314 375.178 347.1 377.554 347.1ZM377.554 348.45C375.988 348.45 374.908 350.142 374.908 352.77C374.908 355.416 375.988 357.144 377.554 357.144C379.12 357.144 380.2 355.416 380.2 352.77C380.2 350.142 379.12 348.45 377.554 348.45ZM385.132 345.84H386.608V362.148H385.132V345.84ZM402.051 345.858H403.473V356.154H402.051V345.858ZM399.405 350.268H402.483V351.51H399.405V350.268ZM398.577 346.182H399.981V355.578H398.577V346.182ZM389.685 347.802H397.929V348.99H389.685V347.802ZM393.825 349.818C395.859 349.818 397.281 350.934 397.281 352.608C397.281 354.3 395.859 355.398 393.825 355.398C391.773 355.398 390.351 354.3 390.351 352.608C390.351 350.934 391.773 349.818 393.825 349.818ZM393.825 350.934C392.547 350.934 391.683 351.6 391.683 352.608C391.683 353.634 392.547 354.282 393.825 354.282C395.085 354.282 395.949 353.634 395.949 352.608C395.949 351.6 395.085 350.934 393.825 350.934ZM393.087 345.984H394.545V348.468H393.087V345.984ZM398.145 356.442C401.529 356.442 403.563 357.45 403.563 359.268C403.563 361.068 401.529 362.094 398.145 362.094C394.725 362.094 392.709 361.068 392.709 359.268C392.709 357.45 394.725 356.442 398.145 356.442ZM398.145 357.594C395.643 357.594 394.185 358.188 394.185 359.268C394.185 360.348 395.643 360.96 398.145 360.96C400.611 360.96 402.087 360.348 402.087 359.268C402.087 358.188 400.611 357.594 398.145 357.594ZM417.703 356.208H419.179V362.148H417.703V356.208ZM411.097 355.686H425.803V356.928H411.097V355.686ZM417.685 348.648H418.999V349.062C418.999 351.87 415.957 353.94 412.537 354.462L412.015 353.274C414.949 352.878 417.685 351.096 417.685 349.062V348.648ZM417.883 348.648H419.179V349.062C419.179 351.078 421.933 352.878 424.849 353.274L424.309 354.462C420.907 353.958 417.883 351.834 417.883 349.062V348.648ZM412.519 347.856H424.381V349.08H412.519V347.856ZM417.703 345.858H419.179V348.288H417.703V345.858ZM431.706 348.918H432.93V349.728C432.93 352.662 431.148 355.074 428.43 356.028L427.692 354.858C430.104 354.03 431.706 352.014 431.706 349.728V348.918ZM431.958 348.918H433.2V349.728C433.2 351.888 434.856 353.796 437.268 354.552L436.53 355.74C433.812 354.84 431.958 352.536 431.958 349.728V348.918ZM428.106 348.036H436.782V349.242H428.106V348.036ZM431.706 345.966H433.2V348.486H431.706V345.966ZM436.242 350.862H440.346V352.104H436.242V350.862ZM439.536 345.876H441.03V358.008H439.536V345.876ZM430.644 360.546H441.48V361.77H430.644V360.546ZM430.644 356.928H432.138V361.212H430.644V356.928ZM449.824 346.902H457.402V353.562H449.824V346.902ZM455.962 348.108H451.264V352.374H455.962V348.108ZM460.804 345.858H462.298V355.2H460.804V345.858ZM456.394 357.126H457.672V357.432C457.672 359.772 454.774 361.644 451.48 362.076L450.976 360.924C453.802 360.6 456.394 359.052 456.394 357.432V357.126ZM456.61 357.126H457.906V357.432C457.906 358.998 460.426 360.582 463.252 360.924L462.748 362.076C459.436 361.626 456.61 359.718 456.61 357.432V357.126ZM451.624 356.298H462.676V357.468H451.624V356.298ZM456.394 354.732H457.906V356.82H456.394V354.732ZM476.6 350.376H480.218V351.582H476.6V350.376ZM476.474 354.462H480.182V355.668H476.474V354.462ZM482.684 345.858H484.124V362.13H482.684V345.858ZM479.426 346.272H480.83V361.302H479.426V346.272ZM475.79 347.91H477.23C477.23 352.176 475.52 356.01 471.146 358.62L470.282 357.558C474.08 355.254 475.79 352.014 475.79 348.18V347.91ZM471.002 347.91H476.384V349.134H471.002V347.91ZM487.453 347.334H496.975V348.45H487.453V347.334ZM492.223 349.08C494.563 349.08 496.093 350.016 496.093 351.492C496.093 352.986 494.563 353.922 492.223 353.922C489.901 353.922 488.371 352.986 488.371 351.492C488.371 350.016 489.901 349.08 492.223 349.08ZM492.223 350.124C490.765 350.124 489.775 350.646 489.775 351.492C489.775 352.32 490.765 352.878 492.223 352.878C493.717 352.878 494.671 352.32 494.671 351.492C494.671 350.646 493.717 350.124 492.223 350.124ZM491.467 345.75H492.979V347.928H491.467V345.75ZM491.467 353.328H492.979V355.542H491.467V353.328ZM498.667 345.876H500.161V356.766H498.667V345.876ZM489.253 357.522H500.161V362.13H498.667V358.71H489.253V357.522ZM487.129 356.262L486.931 355.056C489.919 355.056 493.951 355.038 497.371 354.57L497.479 355.614C493.933 356.208 490.063 356.262 487.129 356.262ZM516.299 351.366H520.835V352.59H516.299V351.366ZM512.375 347.262H513.599V350.16C513.599 353.814 511.673 357.306 509.099 358.692L508.145 357.504C510.539 356.316 512.375 353.184 512.375 350.16V347.262ZM512.663 347.262H513.869V350.16C513.869 353.13 515.705 356.082 518.063 357.198L517.181 358.404C514.553 357.072 512.663 353.724 512.663 350.16V347.262ZM520.097 345.84H521.573V362.148H520.097V345.84ZM536.548 345.84H538.042V362.148H536.548V345.84ZM525.658 347.226H527.134V351.528H531.832V347.226H533.326V358.224H525.658V347.226ZM527.134 352.716V357H531.832V352.716H527.134ZM547.814 346.974H549.11V348.216C549.11 351.762 545.816 354.516 542.558 355.254L541.892 354.012C544.754 353.472 547.814 350.988 547.814 348.216V346.974ZM548.084 346.974H549.38V348.216C549.38 351.006 552.458 353.472 555.302 354.012L554.636 355.254C551.396 354.516 548.084 351.78 548.084 348.216V346.974ZM541.298 358.71H556.04V359.934H541.298V358.71ZM562.621 358.818H577.363V360.06H562.621V358.818ZM569.209 354.606H570.703V359.16H569.209V354.606ZM564.331 347.208H575.563V354.876H564.331V347.208ZM574.123 348.414H565.789V353.67H574.123V348.414ZM591.455 345.858H592.877V356.154H591.455V345.858ZM588.809 350.268H591.887V351.51H588.809V350.268ZM587.981 346.182H589.385V355.578H587.981V346.182ZM579.089 347.802H587.333V348.99H579.089V347.802ZM583.229 349.818C585.263 349.818 586.685 350.934 586.685 352.608C586.685 354.3 585.263 355.398 583.229 355.398C581.177 355.398 579.755 354.3 579.755 352.608C579.755 350.934 581.177 349.818 583.229 349.818ZM583.229 350.934C581.951 350.934 581.087 351.6 581.087 352.608C581.087 353.634 581.951 354.282 583.229 354.282C584.489 354.282 585.353 353.634 585.353 352.608C585.353 351.6 584.489 350.934 583.229 350.934ZM582.491 345.984H583.949V348.468H582.491V345.984ZM587.549 356.442C590.933 356.442 592.967 357.45 592.967 359.268C592.967 361.068 590.933 362.094 587.549 362.094C584.129 362.094 582.113 361.068 582.113 359.268C582.113 357.45 584.129 356.442 587.549 356.442ZM587.549 357.594C585.047 357.594 583.589 358.188 583.589 359.268C583.589 360.348 585.047 360.96 587.549 360.96C590.015 360.96 591.491 360.348 591.491 359.268C591.491 358.188 590.015 357.594 587.549 357.594Z" fill="#BDBDBD"/>
<path d="M145.125 540.98H146.37V541.637C146.37 544.439 143.396 546.497 140.248 547.033L139.695 545.891C142.445 545.494 145.125 543.695 145.125 541.637V540.98ZM145.488 540.98H146.716V541.637C146.716 543.695 149.414 545.494 152.147 545.891L151.61 547.033C148.446 546.497 145.488 544.439 145.488 541.637V540.98ZM145.177 549.108H146.595V555.075H145.177V549.108ZM138.865 548.347H152.994V549.523H138.865V548.347ZM140.179 540.409H151.628V541.568H140.179V540.409ZM154.774 551.858H168.938V553.051H154.774V551.858ZM161.069 548.07H162.487V552.256H161.069V548.07ZM161.034 540.478H162.28V541.689C162.28 545.027 159.08 547.603 155.933 548.261L155.327 547.067C158.077 546.566 161.034 544.266 161.034 541.689V540.478ZM161.294 540.478H162.539V541.689C162.539 544.283 165.514 546.566 168.263 547.067L167.641 548.261C164.493 547.603 161.294 545.027 161.294 541.689V540.478ZM176.84 553.842C176.504 553.842 176.215 553.724 175.974 553.486C175.732 553.245 175.611 552.954 175.611 552.614C175.611 552.278 175.732 551.992 175.974 551.754C176.215 551.513 176.504 551.392 176.84 551.392C177.175 551.392 177.464 551.513 177.706 551.754C177.947 551.992 178.068 552.278 178.068 552.614C178.068 552.839 178.011 553.046 177.896 553.234C177.785 553.419 177.638 553.566 177.454 553.676C177.27 553.787 177.065 553.842 176.84 553.842ZM176.84 546.976C176.504 546.976 176.215 546.855 175.974 546.614C175.732 546.372 175.611 546.084 175.611 545.748C175.611 545.412 175.732 545.126 175.974 544.888C176.215 544.647 176.504 544.526 176.84 544.526C177.175 544.526 177.464 544.647 177.706 544.888C177.947 545.126 178.068 545.412 178.068 545.748C178.068 545.973 178.011 546.18 177.896 546.368C177.785 546.552 177.638 546.7 177.454 546.81C177.27 546.921 177.065 546.976 176.84 546.976ZM196.616 539.441H197.999V555.075H196.616V539.441ZM193.97 545.701H196.979V546.894H193.97V545.701ZM193.07 539.787H194.419V554.279H193.07V539.787ZM185.288 550.025H186.308C188.591 550.025 190.148 549.938 191.964 549.558L192.102 550.751C190.234 551.149 188.66 551.218 186.308 551.218H185.288V550.025ZM185.288 541.343H191.099V542.519H186.706V550.561H185.288V541.343ZM208.928 543.747H212.871V544.923H208.928V543.747ZM212.058 539.458H213.493V550.907H212.058V539.458ZM203.515 553.553H213.926V554.729H203.515V553.553ZM203.515 549.904H204.95V554.158H203.515V549.904ZM204.622 541.395H205.798V542.657C205.798 545.494 204.034 547.949 201.422 548.918L200.678 547.776C203.013 546.946 204.622 544.871 204.622 542.657V541.395ZM204.898 541.395H206.057V542.64C206.057 544.663 207.579 546.635 209.844 547.431L209.118 548.555C206.576 547.638 204.898 545.286 204.898 542.64V541.395ZM201.128 540.72H209.481V541.879H201.128V540.72ZM217.383 540.409H224.301V541.585H217.383V540.409ZM219.735 543.799H221.153V547.534H219.735V543.799ZM223.73 540.409H225.131V541.257C225.131 542.242 225.131 543.643 224.733 545.494L223.332 545.373C223.73 543.539 223.73 542.242 223.73 541.257V540.409ZM227.275 539.441H228.711V549.195H227.275V539.441ZM228.054 543.695H230.942V544.906H228.054V543.695ZM216.605 548.122L216.432 546.929C219.268 546.929 223.056 546.877 226.221 546.462L226.324 547.517C223.09 548.053 219.389 548.122 216.605 548.122ZM223.661 549.385C226.878 549.385 228.867 550.422 228.867 552.204C228.867 554.002 226.878 555.04 223.661 555.04C220.444 555.04 218.49 554.002 218.49 552.204C218.49 550.422 220.444 549.385 223.661 549.385ZM223.661 550.509C221.344 550.509 219.925 551.131 219.925 552.204C219.925 553.276 221.344 553.899 223.661 553.899C225.996 553.899 227.397 553.276 227.397 552.204C227.397 551.131 225.996 550.509 223.661 550.509ZM239.57 541.741H244.343V542.917H239.57V541.741ZM239.57 545.234H244.343V546.427H239.57V545.234ZM234.884 549.523H245.312V555.075H243.876V550.682H234.884V549.523ZM243.876 539.441H245.312V548.658H243.876V539.441ZM236.717 540.305C239.017 540.305 240.746 541.862 240.746 544.075C240.746 546.289 239.017 547.828 236.717 547.828C234.399 547.828 232.687 546.289 232.687 544.075C232.687 541.862 234.399 540.305 236.717 540.305ZM236.717 541.533C235.195 541.533 234.071 542.588 234.071 544.075C234.071 545.563 235.195 546.6 236.717 546.6C238.239 546.6 239.38 545.563 239.38 544.075C239.38 542.588 238.239 541.533 236.717 541.533ZM252.488 540.79H253.664V543.591C253.664 547.188 251.727 550.526 249.167 551.823L248.285 550.647C250.603 549.54 252.488 546.549 252.488 543.591V540.79ZM252.73 540.79H253.906V543.591C253.906 546.445 255.773 549.316 258.091 550.388L257.226 551.529C254.684 550.284 252.73 547.067 252.73 543.591V540.79ZM259.717 539.423H261.152V555.092H259.717V539.423ZM272.472 549.108H273.942V555.075H272.472V549.108ZM277.851 549.108H279.321V555.075H277.851V549.108ZM268.84 548.33H283.022V549.523H268.84V548.33ZM275.896 540.063C279.165 540.063 281.361 541.378 281.361 543.47C281.361 545.545 279.165 546.877 275.896 546.877C272.645 546.877 270.431 545.545 270.431 543.47C270.431 541.378 272.645 540.063 275.896 540.063ZM275.896 541.222C273.51 541.222 271.884 542.104 271.884 543.47C271.884 544.836 273.51 545.718 275.896 545.718C278.283 545.718 279.891 544.836 279.891 543.47C279.891 542.104 278.283 541.222 275.896 541.222ZM288.693 540.323H289.886V541.931C289.886 544.957 288.174 547.431 285.493 548.434L284.75 547.258C287.136 546.41 288.693 544.318 288.693 541.931V540.323ZM288.952 540.323H290.128V541.879C290.128 544.093 291.65 546.047 293.933 546.843L293.155 547.967C290.63 547.015 288.952 544.715 288.952 541.879V540.323ZM296.181 539.441H297.616V548.693H296.181V539.441ZM292.48 549.143C295.697 549.143 297.686 550.232 297.686 552.1C297.686 553.968 295.697 555.04 292.48 555.04C289.246 555.04 287.257 553.968 287.257 552.1C287.257 550.232 289.246 549.143 292.48 549.143ZM292.48 550.284C290.128 550.284 288.693 550.959 288.693 552.1C288.693 553.241 290.128 553.916 292.48 553.916C294.832 553.916 296.268 553.241 296.268 552.1C296.268 550.959 294.832 550.284 292.48 550.284ZM292.791 542.744H296.492V543.937H292.791V542.744ZM302.44 540.461H312.211V541.62H302.44V540.461ZM300.676 547.171H314.805V548.347H300.676V547.171ZM306.989 547.949H308.424V555.092H306.989V547.949ZM311.537 540.461H312.938V541.81C312.938 543.436 312.938 545.269 312.35 547.915L310.932 547.725C311.537 545.2 311.537 543.384 311.537 541.81V540.461ZM331.729 539.423H333.182V555.075H331.729V539.423ZM332.784 545.77H335.672V546.964H332.784V545.77ZM327.734 541.118H329.135C329.135 545.563 327.094 549.575 322.044 552.117L321.249 551.01C325.572 548.814 327.734 545.476 327.734 541.343V541.118ZM321.975 541.118H328.478V542.294H321.975V541.118ZM345.407 543.487H348.935V544.681H345.407V543.487ZM348.486 539.441H349.921V548.762H348.486V539.441ZM344.785 549.229C348.001 549.229 349.99 550.319 349.99 552.152C349.99 554.002 348.001 555.057 344.785 555.057C341.551 555.057 339.562 554.002 339.562 552.152C339.562 550.319 341.551 549.229 344.785 549.229ZM344.785 550.353C342.433 550.353 340.997 551.01 340.997 552.152C340.997 553.276 342.433 553.933 344.785 553.933C347.137 553.933 348.572 553.276 348.572 552.152C348.572 551.01 347.137 550.353 344.785 550.353ZM341.049 541.014H342.225V542.277C342.225 545.165 340.461 547.638 337.867 548.607L337.123 547.465C339.441 546.618 341.049 544.525 341.049 542.277V541.014ZM341.326 541.014H342.485V542.277C342.485 544.3 344.006 546.237 346.272 547.033L345.546 548.174C343.003 547.258 341.326 544.906 341.326 542.277V541.014ZM337.556 540.582H345.909V541.758H337.556V540.582ZM359.31 547.863H360.728V550.561H359.31V547.863ZM352.963 547.085H367.093V548.261H352.963V547.085ZM354.537 550.077H365.346V555.075H363.911V551.235H354.537V550.077ZM354.848 539.804H356.267V541.568H363.824V539.804H365.26V545.649H354.848V539.804ZM356.267 542.692V544.508H363.824V542.692H356.267ZM368.89 551.962H383.054V553.155H368.89V551.962ZM375.22 548.607H376.655V552.463H375.22V548.607ZM370.602 540.599H381.307V545.338H372.072V548.468H370.654V544.179H379.889V541.758H370.602V540.599ZM370.654 547.863H381.67V549.039H370.654V547.863ZM385.568 553.726L391.059 542.868V542.776H384.708V541.148H393.024V542.831L387.552 553.726H385.568ZM399.28 553.898C398.719 553.889 398.167 553.787 397.622 553.59C397.082 553.394 396.59 553.066 396.148 552.608C395.706 552.149 395.352 551.533 395.086 550.759C394.824 549.985 394.693 549.019 394.693 547.861C394.693 546.763 394.801 545.789 395.018 544.937C395.239 544.086 395.557 543.367 395.97 542.782C396.384 542.192 396.883 541.744 397.469 541.437C398.054 541.13 398.711 540.976 399.44 540.976C400.189 540.976 400.855 541.123 401.436 541.418C402.017 541.713 402.488 542.12 402.848 542.64C403.213 543.16 403.444 543.752 403.542 544.415H401.669C401.542 543.891 401.291 543.463 400.914 543.132C400.537 542.8 400.046 542.634 399.44 542.634C398.519 542.634 397.8 543.035 397.284 543.838C396.773 544.64 396.515 545.756 396.511 547.185H396.603C396.82 546.829 397.086 546.526 397.401 546.276C397.72 546.022 398.077 545.828 398.47 545.693C398.867 545.553 399.284 545.484 399.722 545.484C400.451 545.484 401.11 545.662 401.7 546.018C402.294 546.37 402.767 546.857 403.119 547.48C403.471 548.102 403.647 548.815 403.647 549.617C403.647 550.419 403.465 551.146 403.1 551.797C402.74 552.448 402.232 552.964 401.577 553.345C400.922 553.721 400.156 553.906 399.28 553.898ZM399.274 552.301C399.757 552.301 400.189 552.182 400.57 551.945C400.951 551.707 401.252 551.388 401.473 550.987C401.694 550.585 401.804 550.137 401.804 549.642C401.804 549.158 401.696 548.718 401.479 548.321C401.266 547.924 400.971 547.609 400.595 547.375C400.222 547.142 399.796 547.025 399.317 547.025C398.953 547.025 398.615 547.095 398.304 547.234C397.997 547.373 397.727 547.566 397.493 547.811C397.26 548.057 397.076 548.34 396.94 548.659C396.809 548.974 396.744 549.308 396.744 549.66C396.744 550.131 396.852 550.567 397.069 550.968C397.29 551.369 397.591 551.693 397.972 551.938C398.357 552.18 398.791 552.301 399.274 552.301Z" fill="#BDBDBD"/>
<path d="M1694.75 558.883C1693.48 558.883 1692.36 558.709 1691.37 558.361C1690.4 558.018 1689.57 557.512 1688.9 556.845C1688.23 556.173 1687.72 555.352 1687.37 554.382C1687.02 553.411 1686.85 552.304 1686.85 551.059C1686.85 549.847 1687.02 548.758 1687.38 547.792C1687.73 546.826 1688.24 546.003 1688.91 545.323C1689.59 544.64 1690.41 544.118 1691.37 543.757C1692.34 543.397 1693.44 543.217 1694.67 543.217C1695.84 543.217 1696.88 543.401 1697.77 543.77C1698.67 544.138 1699.42 544.644 1700.03 545.286C1700.65 545.929 1701.11 546.666 1701.42 547.497C1701.73 548.328 1701.89 549.207 1701.89 550.132C1701.89 550.779 1701.85 551.411 1701.76 552.03C1701.68 552.644 1701.53 553.201 1701.31 553.7C1701.09 554.196 1700.78 554.593 1700.36 554.892C1699.96 555.186 1699.42 555.34 1698.77 555.352C1698.42 555.364 1698.08 555.324 1697.75 555.229C1697.43 555.135 1697.15 554.984 1696.92 554.775C1696.69 554.562 1696.55 554.292 1696.5 553.964H1696.43C1696.33 554.206 1696.17 554.431 1695.94 554.64C1695.71 554.844 1695.41 555.008 1695.06 555.131C1694.71 555.25 1694.3 555.299 1693.83 555.278C1693.31 555.258 1692.85 555.141 1692.44 554.928C1692.02 554.716 1691.67 554.421 1691.37 554.044C1691.08 553.667 1690.86 553.221 1690.7 552.705C1690.55 552.189 1690.47 551.616 1690.47 550.986C1690.47 550.38 1690.56 549.837 1690.74 549.358C1690.91 548.875 1691.15 548.459 1691.45 548.111C1691.76 547.759 1692.11 547.481 1692.51 547.276C1692.91 547.072 1693.33 546.943 1693.77 546.889C1694.2 546.84 1694.59 546.852 1694.95 546.926C1695.31 547 1695.61 547.112 1695.85 547.264C1696.09 547.415 1696.24 547.581 1696.31 547.761H1696.39V547.074H1697.9V552.773C1697.9 553.096 1697.98 553.371 1698.15 553.596C1698.32 553.821 1698.56 553.934 1698.88 553.934C1699.25 553.934 1699.54 553.796 1699.75 553.522C1699.96 553.248 1700.11 552.826 1700.2 552.257C1700.29 551.688 1700.33 550.959 1700.33 550.071C1700.33 549.448 1700.25 548.863 1700.08 548.314C1699.92 547.761 1699.67 547.262 1699.35 546.816C1699.03 546.365 1698.64 545.978 1698.17 545.655C1697.71 545.331 1697.17 545.082 1696.58 544.906C1695.98 544.73 1695.32 544.642 1694.6 544.642C1693.63 544.642 1692.76 544.793 1691.99 545.096C1691.23 545.395 1690.59 545.827 1690.07 546.392C1689.55 546.957 1689.15 547.634 1688.88 548.425C1688.61 549.211 1688.48 550.093 1688.48 551.072C1688.48 552.091 1688.62 552.996 1688.89 553.786C1689.17 554.572 1689.57 555.235 1690.11 555.776C1690.64 556.316 1691.31 556.728 1692.1 557.01C1692.89 557.289 1693.8 557.428 1694.83 557.428C1695.29 557.428 1695.74 557.387 1696.18 557.305C1696.62 557.227 1697.02 557.139 1697.36 557.041C1697.71 556.939 1697.97 556.857 1698.14 556.795L1698.57 558.14C1698.32 558.259 1697.98 558.376 1697.56 558.49C1697.14 558.605 1696.69 558.699 1696.19 558.773C1695.71 558.847 1695.23 558.883 1694.75 558.883ZM1694.19 553.774C1694.72 553.774 1695.15 553.667 1695.47 553.454C1695.8 553.242 1696.03 552.924 1696.18 552.503C1696.32 552.077 1696.4 551.545 1696.4 550.906C1696.39 550.283 1696.31 549.788 1696.16 549.42C1696.01 549.047 1695.77 548.781 1695.45 548.621C1695.13 548.457 1694.71 548.376 1694.21 548.376C1693.75 548.376 1693.35 548.488 1693.03 548.713C1692.7 548.939 1692.45 549.244 1692.28 549.628C1692.11 550.013 1692.03 550.441 1692.02 550.912C1692.03 551.407 1692.1 551.874 1692.23 552.312C1692.37 552.746 1692.6 553.098 1692.91 553.368C1693.22 553.639 1693.65 553.774 1694.19 553.774ZM1704.12 544.697H1706.42L1710.43 554.474H1710.57L1714.58 544.697H1716.88V557.274H1715.07V548.173H1714.96L1711.25 557.256H1709.75L1706.04 548.167H1705.92V557.274H1704.12V544.697ZM1730.56 550.986C1730.56 552.329 1730.32 553.483 1729.83 554.449C1729.34 555.412 1728.66 556.153 1727.81 556.673C1726.96 557.188 1725.99 557.446 1724.9 557.446C1723.81 557.446 1722.84 557.188 1721.99 556.673C1721.13 556.153 1720.46 555.409 1719.97 554.443C1719.48 553.477 1719.23 552.324 1719.23 550.986C1719.23 549.643 1719.48 548.49 1719.97 547.528C1720.46 546.562 1721.13 545.821 1721.99 545.305C1722.84 544.785 1723.81 544.525 1724.9 544.525C1725.99 544.525 1726.96 544.785 1727.81 545.305C1728.66 545.821 1729.34 546.562 1729.83 547.528C1730.32 548.49 1730.56 549.643 1730.56 550.986ZM1728.69 550.986C1728.69 549.962 1728.52 549.1 1728.19 548.4C1727.86 547.696 1727.41 547.164 1726.84 546.803C1726.27 546.439 1725.62 546.257 1724.9 546.257C1724.18 546.257 1723.53 546.439 1722.96 546.803C1722.39 547.164 1721.94 547.696 1721.61 548.4C1721.28 549.1 1721.12 549.962 1721.12 550.986C1721.12 552.009 1721.28 552.873 1721.61 553.577C1721.94 554.277 1722.39 554.81 1722.96 555.174C1723.53 555.534 1724.18 555.715 1724.9 555.715C1725.62 555.715 1726.27 555.534 1726.84 555.174C1727.41 554.81 1727.86 554.277 1728.19 553.577C1728.52 552.873 1728.69 552.009 1728.69 550.986ZM1732.93 557.274V544.697H1734.83V550.163H1741.1V544.697H1743V557.274H1741.1V551.79H1734.83V557.274H1732.93ZM1746.83 557.274H1744.81L1749.34 544.697H1751.53L1756.06 557.274H1754.04L1750.49 546.981H1750.39L1746.83 557.274ZM1747.17 552.349H1753.7V553.946H1747.17V552.349ZM1768.03 544.697V557.274H1766.28L1759.89 548.05H1759.77V557.274H1757.88V544.697H1759.63L1766.03 553.934H1766.15V544.697H1768.03ZM1779.31 548.67C1779.19 548.298 1779.03 547.964 1778.83 547.669C1778.63 547.37 1778.4 547.117 1778.12 546.908C1777.85 546.695 1777.53 546.533 1777.18 546.423C1776.83 546.312 1776.45 546.257 1776.03 546.257C1775.33 546.257 1774.69 546.439 1774.12 546.803C1773.55 547.168 1773.1 547.702 1772.77 548.406C1772.44 549.106 1772.28 549.964 1772.28 550.98C1772.28 551.999 1772.44 552.861 1772.77 553.565C1773.1 554.269 1773.56 554.804 1774.14 555.168C1774.71 555.532 1775.37 555.715 1776.11 555.715C1776.79 555.715 1777.39 555.575 1777.89 555.297C1778.41 555.018 1778.8 554.625 1779.08 554.118C1779.36 553.606 1779.5 553.004 1779.5 552.312L1780 552.404H1776.4V550.838H1781.34V552.269C1781.34 553.326 1781.12 554.243 1780.66 555.021C1780.22 555.794 1779.6 556.392 1778.81 556.814C1778.02 557.236 1777.12 557.446 1776.11 557.446C1774.97 557.446 1773.97 557.184 1773.11 556.66C1772.26 556.136 1771.59 555.393 1771.11 554.431C1770.63 553.465 1770.39 552.318 1770.39 550.992C1770.39 549.989 1770.53 549.088 1770.81 548.29C1771.09 547.491 1771.48 546.814 1771.98 546.257C1772.49 545.696 1773.08 545.268 1773.77 544.973C1774.46 544.674 1775.21 544.525 1776.02 544.525C1776.7 544.525 1777.33 544.625 1777.92 544.826C1778.51 545.026 1779.03 545.311 1779.49 545.679C1779.95 546.048 1780.34 546.486 1780.64 546.994C1780.94 547.497 1781.15 548.056 1781.25 548.67H1779.31Z" fill="#BDBDBD"/>
<path d="M139.382 413.726V401.148H143.865C144.844 401.148 145.654 401.326 146.297 401.682C146.94 402.039 147.421 402.526 147.74 403.144C148.06 403.758 148.219 404.45 148.219 405.22C148.219 405.994 148.058 406.69 147.734 407.308C147.415 407.922 146.932 408.409 146.285 408.769C145.642 409.126 144.833 409.304 143.859 409.304H140.776V407.695H143.687C144.305 407.695 144.807 407.588 145.192 407.375C145.576 407.158 145.859 406.864 146.039 406.491C146.219 406.118 146.309 405.695 146.309 405.22C146.309 404.745 146.219 404.323 146.039 403.955C145.859 403.586 145.574 403.298 145.185 403.089C144.801 402.88 144.293 402.776 143.662 402.776H141.279V413.726H139.382ZM150.444 401.148H152.747L156.751 410.925H156.899L160.903 401.148H163.206V413.726H161.4V404.624H161.283L157.574 413.707H156.076L152.366 404.618H152.25V413.726H150.444V401.148ZM185.185 399.441H186.621V415.075H185.185V399.441ZM186.275 405.857H189.18V407.067H186.275V405.857ZM174.515 401.931H183.733V403.107H174.515V401.931ZM179.184 404.404C181.398 404.404 182.989 405.891 182.989 408.001C182.989 410.111 181.398 411.598 179.184 411.598C176.988 411.598 175.38 410.111 175.38 408.001C175.38 405.891 176.988 404.404 179.184 404.404ZM179.184 405.597C177.766 405.597 176.746 406.583 176.746 408.001C176.746 409.402 177.766 410.405 179.184 410.405C180.602 410.405 181.623 409.402 181.623 408.001C181.623 406.583 180.602 405.597 179.184 405.597ZM178.441 399.631H179.876V402.467H178.441V399.631ZM190.511 407.137H204.64V408.313H190.511V407.137ZM196.858 404.629H198.276V407.621H196.858V404.629ZM192.292 404.179H202.997V405.355H192.292V404.179ZM192.292 400.15H202.876V401.308H193.71V404.871H192.292V400.15ZM197.549 409.437C200.887 409.437 202.91 410.457 202.91 412.238C202.91 414.054 200.887 415.057 197.549 415.057C194.212 415.057 192.188 414.054 192.188 412.238C192.188 410.457 194.212 409.437 197.549 409.437ZM197.549 410.543C195.111 410.543 193.641 411.166 193.641 412.238C193.641 413.328 195.111 413.933 197.549 413.933C200.005 413.933 201.458 413.328 201.458 412.238C201.458 411.166 200.005 410.543 197.549 410.543ZM217.834 399.441H219.269V410.993H217.834V399.441ZM214.462 404.266H218.111V405.459H214.462V404.266ZM213.009 400.651H214.513C214.513 404.681 211.677 407.742 207.267 409.212L206.645 408.053C210.467 406.773 213.009 404.318 213.009 401.222V400.651ZM207.423 400.651H213.943V401.827H207.423V400.651ZM209.394 413.553H219.667V414.729H209.394V413.553ZM209.394 409.834H210.83V414.141H209.394V409.834Z" fill="#BDBDBD"/>
<line x1="173.25" y1="416" x2="173.25" y2="399" stroke="#BDBDBD" stroke-width="1.5"/>
<path d="M140.444 442.726H138.43L142.956 430.148H145.149L149.675 442.726H147.66L144.105 432.433H144.006L140.444 442.726ZM140.782 437.8H147.316V439.397H140.782V437.8ZM153.389 430.148V442.726H151.491V430.148H153.389ZM184.527 428.441H185.962V444.075H184.527V428.441ZM185.616 434.857H188.522V436.067H185.616V434.857ZM173.856 430.931H183.074V432.107H173.856V430.931ZM178.526 433.404C180.739 433.404 182.33 434.891 182.33 437.001C182.33 439.111 180.739 440.598 178.526 440.598C176.329 440.598 174.721 439.111 174.721 437.001C174.721 434.891 176.329 433.404 178.526 433.404ZM178.526 434.597C177.108 434.597 176.087 435.583 176.087 437.001C176.087 438.402 177.108 439.405 178.526 439.405C179.944 439.405 180.964 438.402 180.964 437.001C180.964 435.583 179.944 434.597 178.526 434.597ZM177.782 428.631H179.217V431.467H177.782V428.631ZM189.852 436.137H203.981V437.313H189.852V436.137ZM196.199 433.629H197.617V436.621H196.199V433.629ZM191.633 433.179H202.338V434.355H191.633V433.179ZM191.633 429.15H202.217V430.308H193.051V433.871H191.633V429.15ZM196.891 438.437C200.228 438.437 202.252 439.457 202.252 441.238C202.252 443.054 200.228 444.057 196.891 444.057C193.553 444.057 191.529 443.054 191.529 441.238C191.529 439.457 193.553 438.437 196.891 438.437ZM196.891 439.543C194.452 439.543 192.982 440.166 192.982 441.238C192.982 442.328 194.452 442.933 196.891 442.933C199.346 442.933 200.799 442.328 200.799 441.238C200.799 440.166 199.346 439.543 196.891 439.543ZM217.175 428.441H218.611V439.993H217.175V428.441ZM213.803 433.266H217.452V434.459H213.803V433.266ZM212.35 429.651H213.855C213.855 433.681 211.019 436.742 206.609 438.212L205.986 437.053C209.808 435.773 212.35 433.318 212.35 430.222V429.651ZM206.764 429.651H213.284V430.827H206.764V429.651ZM208.736 442.553H219.008V443.729H208.736V442.553ZM208.736 438.834H210.171V443.141H208.736V438.834ZM232.923 429.444H234.427C234.427 433.421 231.574 436.223 226.974 437.451L226.42 436.309C230.484 435.237 232.923 432.972 232.923 430.084V429.444ZM227.233 429.444H233.753V430.602H227.233V429.444ZM237.61 428.441H239.062V437.261H237.61V428.441ZM228.945 438.022H239.062V443.867H228.945V438.022ZM237.644 439.18H230.363V442.691H237.644V439.18ZM245.875 438.108H247.293V441.792H245.875V438.108ZM251.115 438.108H252.533V441.792H251.115V438.108ZM242.848 430.741H255.542V431.917H242.848V430.741ZM242.157 441.1H256.32V442.293H242.157V441.1ZM249.195 432.937C252.36 432.937 254.314 434.009 254.314 435.877C254.314 437.71 252.36 438.783 249.195 438.783C246.03 438.783 244.093 437.71 244.093 435.877C244.093 434.009 246.03 432.937 249.195 432.937ZM249.195 434.061C246.912 434.061 245.529 434.736 245.529 435.877C245.529 437.001 246.912 437.658 249.195 437.658C251.478 437.658 252.862 437.001 252.862 435.877C252.862 434.736 251.478 434.061 249.195 434.061ZM248.503 428.683H249.922V431.45H248.503V428.683ZM269.48 428.458H270.915V440.374H269.48V428.458ZM266.834 432.591H270.085V433.767H266.834V432.591ZM266.834 435.894H270.085V437.053H266.834V435.894ZM258.083 430.343H266.834V431.502H258.083V430.343ZM262.51 432.366C264.586 432.366 266.038 433.56 266.038 435.358C266.038 437.14 264.586 438.35 262.51 438.35C260.418 438.35 258.965 437.14 258.965 435.358C258.965 433.56 260.418 432.366 262.51 432.366ZM262.51 433.491C261.213 433.491 260.331 434.251 260.331 435.358C260.331 436.465 261.213 437.209 262.51 437.209C263.807 437.209 264.689 436.465 264.689 435.358C264.689 434.251 263.807 433.491 262.51 433.491ZM261.801 428.423H263.237V431.087H261.801V428.423ZM260.867 442.553H271.296V443.729H260.867V442.553ZM260.867 439.353H262.303V443.123H260.867V439.353ZM280.039 429.997H290.104V431.19H280.039V429.997ZM278.552 440.702H292.681V441.895H278.552V440.702ZM284.034 435.116H285.47V441.29H284.034V435.116ZM289.568 429.997H290.986V431.554C290.986 433.491 290.986 435.635 290.416 438.8L288.98 438.61C289.568 435.618 289.568 433.421 289.568 431.554V429.997ZM301.915 430.966H306.429V432.142H301.915V430.966ZM301.915 434.079H306.463V435.237H301.915V434.079ZM305.875 428.441H307.311V437.693H305.875V428.441ZM295.17 429.617H302.313V436.569H295.17V429.617ZM300.895 430.775H296.571V435.427H300.895V430.775ZM302.174 438.143C305.391 438.143 307.38 439.232 307.38 441.1C307.38 442.968 305.391 444.04 302.174 444.04C298.94 444.04 296.951 442.968 296.951 441.1C296.951 439.232 298.94 438.143 302.174 438.143ZM302.174 439.284C299.822 439.284 298.387 439.959 298.387 441.1C298.387 442.241 299.822 442.916 302.174 442.916C304.526 442.916 305.962 442.241 305.962 441.1C305.962 439.959 304.526 439.284 302.174 439.284ZM314.521 430.153H315.714V431.744C315.714 434.615 313.95 437.019 311.322 437.97L310.578 436.828C312.93 435.998 314.521 433.975 314.521 431.744V430.153ZM314.798 430.153H315.991V431.744C315.991 433.854 317.617 435.756 319.934 436.534L319.19 437.658C316.596 436.776 314.798 434.494 314.798 431.744V430.153ZM310.958 429.738H319.519V430.896H310.958V429.738ZM321.733 428.458H323.185V439.889H321.733V428.458ZM313.137 442.553H323.652V443.729H313.137V442.553ZM313.137 438.817H314.556V443.071H313.137V438.817Z" fill="#BDBDBD"/>
<line x1="167.25" y1="445" x2="167.25" y2="428" stroke="#BDBDBD" stroke-width="1.5"/>
<path d="M139.382 471.726V459.148H143.988C144.88 459.148 145.619 459.295 146.205 459.59C146.79 459.881 147.228 460.276 147.519 460.776C147.81 461.271 147.955 461.83 147.955 462.452C147.955 462.976 147.859 463.418 147.667 463.779C147.474 464.135 147.216 464.421 146.893 464.638C146.573 464.851 146.221 465.007 145.836 465.105V465.228C146.254 465.248 146.661 465.384 147.059 465.633C147.46 465.879 147.791 466.229 148.053 466.684C148.315 467.138 148.446 467.691 148.446 468.342C148.446 468.984 148.295 469.562 147.992 470.074C147.693 470.581 147.23 470.985 146.604 471.283C145.978 471.578 145.177 471.726 144.203 471.726H139.382ZM141.279 470.098H144.019C144.927 470.098 145.578 469.922 145.972 469.57C146.365 469.218 146.561 468.778 146.561 468.25C146.561 467.852 146.461 467.488 146.26 467.156C146.06 466.825 145.773 466.561 145.4 466.364C145.032 466.168 144.594 466.069 144.086 466.069H141.279V470.098ZM141.279 464.589H143.822C144.248 464.589 144.631 464.507 144.97 464.344C145.314 464.18 145.587 463.951 145.787 463.656C145.992 463.357 146.094 463.005 146.094 462.599C146.094 462.08 145.912 461.643 145.548 461.291C145.183 460.939 144.624 460.763 143.871 460.763H141.279V464.589ZM151.76 471.726H149.745L154.272 459.148H156.464L160.99 471.726H158.976L155.42 461.433H155.322L151.76 471.726ZM152.098 466.8H158.632V468.397H152.098V466.8ZM172.662 463.238H170.746C170.672 462.829 170.535 462.468 170.334 462.157C170.134 461.846 169.888 461.582 169.597 461.365C169.307 461.148 168.981 460.984 168.621 460.874C168.265 460.763 167.886 460.708 167.485 460.708C166.76 460.708 166.111 460.89 165.538 461.255C164.969 461.619 164.518 462.153 164.187 462.857C163.859 463.562 163.696 464.421 163.696 465.437C163.696 466.46 163.859 467.324 164.187 468.028C164.518 468.733 164.971 469.265 165.544 469.625C166.117 469.986 166.762 470.166 167.479 470.166C167.876 470.166 168.252 470.112 168.609 470.006C168.969 469.895 169.294 469.734 169.585 469.521C169.876 469.308 170.121 469.048 170.322 468.741C170.527 468.43 170.668 468.074 170.746 467.672L172.662 467.678C172.56 468.297 172.361 468.866 172.066 469.386C171.776 469.902 171.401 470.348 170.942 470.725C170.488 471.097 169.968 471.386 169.382 471.59C168.797 471.795 168.158 471.898 167.466 471.898C166.377 471.898 165.407 471.64 164.555 471.124C163.704 470.604 163.032 469.861 162.541 468.894C162.054 467.928 161.81 466.776 161.81 465.437C161.81 464.094 162.056 462.941 162.547 461.979C163.038 461.013 163.71 460.272 164.561 459.756C165.413 459.236 166.381 458.976 167.466 458.976C168.134 458.976 168.756 459.072 169.333 459.265C169.915 459.453 170.437 459.731 170.899 460.1C171.362 460.464 171.745 460.911 172.048 461.439C172.351 461.963 172.555 462.563 172.662 463.238ZM174.933 471.726V459.148H176.83V465.154H176.984L182.259 459.148H184.648L179.576 464.81L184.667 471.726H182.382L178.317 466.106L176.83 467.814V471.726H174.933ZM186.417 471.726V459.148H194.303V460.782H188.315V464.614H193.891V466.241H188.315V470.092H194.376V471.726H186.417ZM206.989 459.148V471.726H205.245L198.852 462.501H198.735V471.726H196.837V459.148H198.594L204.993 468.385H205.11V459.148H206.989ZM213.829 471.726H209.757V459.148H213.958C215.19 459.148 216.249 459.4 217.133 459.903C218.018 460.403 218.695 461.121 219.166 462.059C219.641 462.993 219.878 464.112 219.878 465.418C219.878 466.729 219.639 467.854 219.16 468.796C218.685 469.738 217.997 470.463 217.096 470.97C216.196 471.474 215.107 471.726 213.829 471.726ZM211.655 470.067H213.725C214.683 470.067 215.479 469.887 216.114 469.527C216.748 469.163 217.223 468.636 217.539 467.949C217.854 467.257 218.011 466.413 218.011 465.418C218.011 464.432 217.854 463.594 217.539 462.907C217.227 462.219 216.763 461.697 216.144 461.341C215.526 460.984 214.759 460.806 213.841 460.806H211.655V470.067ZM246.704 458.444H248.209C248.209 462.421 245.355 465.223 240.755 466.451L240.201 465.309C244.266 464.237 246.704 461.972 246.704 459.084V458.444ZM241.014 458.444H247.534V459.602H241.014V458.444ZM251.391 457.441H252.843V466.261H251.391V457.441ZM242.726 467.022H252.843V472.867H242.726V467.022ZM251.425 468.18H244.145V471.691H251.425V468.18ZM255.938 469.875H270.102V471.068H255.938V469.875ZM262.302 466.088H263.72V470.273H262.302V466.088ZM262.267 459.412H263.478V460.381C263.478 463.58 260.279 466.001 257.2 466.641L256.612 465.5C259.31 465.05 262.267 462.854 262.267 460.381V459.412ZM262.527 459.412H263.737V460.381C263.737 462.854 266.712 464.998 269.444 465.448L268.874 466.589C265.744 465.967 262.527 463.58 262.527 460.381V459.412ZM257.096 458.859H268.908V460.035H257.096V458.859ZM278.903 457.7C282.345 457.7 284.403 458.669 284.403 460.415C284.403 462.162 282.345 463.13 278.903 463.13C275.444 463.13 273.403 462.162 273.403 460.415C273.403 458.669 275.444 457.7 278.903 457.7ZM278.903 458.79C276.343 458.79 274.873 459.378 274.873 460.415C274.873 461.453 276.343 462.041 278.903 462.041C281.445 462.041 282.915 461.453 282.915 460.415C282.915 459.378 281.445 458.79 278.903 458.79ZM271.83 464.168H285.959V465.327H271.83V464.168ZM273.542 466.658H284.16V470.186H274.995V472.089H273.576V469.149H282.742V467.765H273.542V466.658ZM273.576 471.777H284.627V472.902H273.576V471.777ZM299.009 458.444H300.513C300.513 462.421 297.66 465.223 293.059 466.451L292.506 465.309C296.57 464.237 299.009 461.972 299.009 459.084V458.444ZM293.319 458.444H299.839V459.602H293.319V458.444ZM303.695 457.441H305.148V466.261H303.695V457.441ZM295.031 467.022H305.148V472.867H295.031V467.022ZM303.73 468.18H296.449V471.691H303.73V468.18ZM308.242 469.858H322.406V471.051H308.242V469.858ZM314.537 466.07H315.956V470.256H314.537V466.07ZM314.503 458.478H315.748V459.689C315.748 463.027 312.549 465.603 309.401 466.261L308.796 465.067C311.546 464.566 314.503 462.266 314.503 459.689V458.478ZM314.762 458.478H316.007V459.689C316.007 462.283 318.982 464.566 321.732 465.067L321.109 466.261C317.962 465.603 314.762 463.027 314.762 459.689V458.478ZM335.514 457.441H336.967V466.71H335.514V457.441ZM324.947 464.791H326.21C329.046 464.791 331.138 464.704 333.646 464.306L333.802 465.465C331.225 465.897 329.115 465.984 326.21 465.984H324.947V464.791ZM324.913 458.375H332.003V462.646H326.348V465.5H324.947V461.539H330.602V459.551H324.913V458.375ZM326.867 467.575H336.967V472.867H326.867V467.575ZM335.548 468.716H328.268V471.708H335.548V468.716Z" fill="#BDBDBD"/>
<line x1="244.25" y1="473.726" x2="244.25" y2="456.726" stroke="#BDBDBD" stroke-width="1.5"/>
<path d="M139.382 500.726V488.148H147.181V489.782H141.279V493.614H146.622V495.241H141.279V500.726H139.382ZM149.515 500.726V488.148H153.998C154.973 488.148 155.781 488.316 156.424 488.652C157.071 488.987 157.554 489.452 157.873 490.046C158.193 490.635 158.353 491.317 158.353 492.091C158.353 492.861 158.191 493.538 157.867 494.124C157.548 494.705 157.065 495.157 156.418 495.481C155.775 495.804 154.967 495.966 153.992 495.966H150.596V494.332H153.82C154.434 494.332 154.934 494.244 155.319 494.068C155.708 493.892 155.992 493.636 156.172 493.301C156.352 492.965 156.443 492.562 156.443 492.091C156.443 491.616 156.35 491.204 156.166 490.856C155.986 490.508 155.701 490.242 155.313 490.058C154.928 489.87 154.422 489.776 153.796 489.776H151.413V500.726H149.515ZM155.724 495.051L158.832 500.726H156.67L153.624 495.051H155.724ZM171.587 494.437C171.587 495.78 171.342 496.934 170.85 497.901C170.359 498.863 169.685 499.604 168.83 500.124C167.978 500.64 167.01 500.898 165.925 500.898C164.836 500.898 163.863 500.64 163.008 500.124C162.156 499.604 161.485 498.861 160.993 497.894C160.502 496.928 160.256 495.776 160.256 494.437C160.256 493.094 160.502 491.941 160.993 490.979C161.485 490.013 162.156 489.272 163.008 488.756C163.863 488.236 164.836 487.976 165.925 487.976C167.01 487.976 167.978 488.236 168.83 488.756C169.685 489.272 170.359 490.013 170.85 490.979C171.342 491.941 171.587 493.094 171.587 494.437ZM169.708 494.437C169.708 493.413 169.542 492.551 169.21 491.851C168.883 491.147 168.433 490.615 167.859 490.255C167.29 489.89 166.645 489.708 165.925 489.708C165.2 489.708 164.553 489.89 163.984 490.255C163.415 490.615 162.965 491.147 162.633 491.851C162.306 492.551 162.142 493.413 162.142 494.437C162.142 495.46 162.306 496.324 162.633 497.028C162.965 497.729 163.415 498.261 163.984 498.625C164.553 498.986 165.2 499.166 165.925 499.166C166.645 499.166 167.29 498.986 167.859 498.625C168.433 498.261 168.883 497.729 169.21 497.028C169.542 496.324 169.708 495.46 169.708 494.437ZM184.105 488.148V500.726H182.361L175.968 491.501H175.851V500.726H173.953V488.148H175.71L182.109 497.385H182.226V488.148H184.105ZM186.253 489.782V488.148H195.987V489.782H192.063V500.726H190.171V489.782H186.253ZM198.138 500.726V488.148H206.023V489.782H200.036V493.614H205.612V495.241H200.036V499.092H206.097V500.726H198.138ZM218.71 488.148V500.726H216.966L210.573 491.501H210.456V500.726H208.558V488.148H210.315L216.714 497.385H216.831V488.148H218.71ZM225.55 500.726H221.478V488.148H225.679C226.911 488.148 227.97 488.4 228.854 488.903C229.738 489.403 230.416 490.121 230.887 491.059C231.362 491.993 231.599 493.112 231.599 494.418C231.599 495.729 231.36 496.854 230.881 497.796C230.406 498.738 229.718 499.463 228.817 499.97C227.916 500.474 226.827 500.726 225.55 500.726ZM223.376 499.067H225.446C226.404 499.067 227.2 498.887 227.835 498.527C228.469 498.163 228.944 497.636 229.259 496.949C229.575 496.257 229.732 495.413 229.732 494.418C229.732 493.432 229.575 492.594 229.259 491.907C228.948 491.219 228.483 490.697 227.865 490.341C227.247 489.984 226.479 489.806 225.562 489.806H223.376V499.067ZM260.085 490.487H263.613V491.681H260.085V490.487ZM263.163 486.441H264.599V495.762H263.163V486.441ZM259.463 496.229C262.679 496.229 264.668 497.319 264.668 499.152C264.668 501.002 262.679 502.057 259.463 502.057C256.229 502.057 254.24 501.002 254.24 499.152C254.24 497.319 256.229 496.229 259.463 496.229ZM259.463 497.353C257.111 497.353 255.675 498.01 255.675 499.152C255.675 500.276 257.111 500.933 259.463 500.933C261.815 500.933 263.25 500.276 263.25 499.152C263.25 498.01 261.815 497.353 259.463 497.353ZM255.727 488.014H256.903V489.277C256.903 492.165 255.139 494.638 252.545 495.607L251.801 494.465C254.119 493.618 255.727 491.525 255.727 489.277V488.014ZM256.004 488.014H257.162V489.277C257.162 491.3 258.684 493.237 260.95 494.033L260.223 495.174C257.681 494.258 256.004 491.906 256.004 489.277V488.014ZM252.234 487.582H260.587V488.758H252.234V487.582ZM275.112 488.966H279.626V490.142H275.112V488.966ZM275.112 492.079H279.661V493.237H275.112V492.079ZM279.073 486.441H280.508V495.693H279.073V486.441ZM268.368 487.617H275.51V494.569H268.368V487.617ZM274.092 488.775H269.768V493.427H274.092V488.775ZM275.372 496.143C278.588 496.143 280.577 497.232 280.577 499.1C280.577 500.968 278.588 502.04 275.372 502.04C272.138 502.04 270.149 500.968 270.149 499.1C270.149 497.232 272.138 496.143 275.372 496.143ZM275.372 497.284C273.02 497.284 271.584 497.959 271.584 499.1C271.584 500.241 273.02 500.916 275.372 500.916C277.724 500.916 279.159 500.241 279.159 499.1C279.159 497.959 277.724 497.284 275.372 497.284ZM283.551 495.399H297.732V496.575H283.551V495.399ZM289.88 496.125H291.298V502.075H289.88V496.125ZM290.607 487.063C293.875 487.063 296.071 488.395 296.071 490.487C296.071 492.58 293.875 493.912 290.607 493.912C287.355 493.912 285.142 492.58 285.142 490.487C285.142 488.395 287.355 487.063 290.607 487.063ZM290.607 488.222C288.22 488.222 286.594 489.104 286.594 490.487C286.594 491.871 288.22 492.753 290.607 492.753C292.993 492.753 294.601 491.871 294.601 490.487C294.601 489.104 292.993 488.222 290.607 488.222Z" fill="#BDBDBD"/>
<line x1="257.25" y1="502.726" x2="257.25" y2="485.726" stroke="#BDBDBD" stroke-width="1.5"/>
</g>
<defs>
<filter id="filter0_d_1406_1330" x="59.0001" y="288.92" width="298.872" height="43.2307" filterUnits="userSpaceOnUse" color-interpolation-filters="sRGB">
<feFlood flood-opacity="0" result="BackgroundImageFix"/>
<feColorMatrix in="SourceAlpha" type="matrix" values="0 0 0 0 0 0 0 0 0 0 0 0 0 0 0 0 0 0 127 0" result="hardAlpha"/>
<feOffset dy="2.45349"/>
<feGaussianBlur stdDeviation="1.22675"/>
<feComposite in2="hardAlpha" operator="out"/>
<feColorMatrix type="matrix" values="0 0 0 0 0 0 0 0 0 0 0 0 0 0 0 0 0 0 0.25 0"/>
<feBlend mode="normal" in2="BackgroundImageFix" result="effect1_dropShadow_1406_1330"/>
<feBlend mode="normal" in="SourceGraphic" in2="effect1_dropShadow_1406_1330" result="shape"/>
</filter>
<linearGradient id="paint0_linear_1406_1330" x1="959.5" y1="0" x2="959.5" y2="972.895" gradientUnits="userSpaceOnUse">
<stop stop-color="#4A3C92"/>
<stop offset="0.495" stop-color="#261A5F"/>
<stop offset="0.9999" stop-color="#08041F"/>
</linearGradient>
<linearGradient id="paint1_linear_1406_1330" x1="222.587" y1="307.439" x2="355.419" y2="307.439" gradientUnits="userSpaceOnUse">
<stop stop-color="white"/>
<stop offset="1" stop-color="#9990FF" stop-opacity="0.7"/>
</linearGradient>
<linearGradient id="paint2_linear_1406_1330" x1="101.413" y1="297.176" x2="127.349" y2="292.589" gradientUnits="userSpaceOnUse">
<stop stop-color="#8F79FF" stop-opacity="0"/>
<stop offset="0.987093" stop-color="#8F79FF"/>
</linearGradient>
<clipPath id="clip0_1406_1330">
<rect width="1920" height="648" fill="white"/>
</clipPath>
</defs>
</svg>
