<svg width="612" height="104" viewBox="0 0 612 104" fill="none" xmlns="http://www.w3.org/2000/svg">
<rect width="612" height="104" rx="18" fill="#36229D"/>
<path d="M224.666 61.007H252.32V64.571H224.666V61.007ZM236.249 55.232H240.638V62.459H236.249V55.232ZM227.768 39.359H249.218V49.523H232.19V54.671H227.834V46.091H244.862V42.824H227.768V39.359ZM227.834 52.922H249.911V56.453H227.834V52.922ZM258.818 40.184H278.189V43.649H258.818V40.184ZM256.013 60.38H283.634V63.944H256.013V60.38ZM275.879 40.184H280.235V43.814C280.235 48.104 280.235 52.262 279.146 58.532L274.757 58.169C275.879 52.295 275.879 47.939 275.879 43.814V40.184ZM308.315 37.412H312.737V59.357H308.315V37.412ZM292.376 63.911H313.496V67.409H292.376V63.911ZM292.376 57.146H296.765V65.33H292.376V57.146ZM296.105 39.326C300.791 39.326 304.388 42.56 304.388 47.081C304.388 51.569 300.791 54.836 296.105 54.836C291.419 54.836 287.789 51.569 287.789 47.081C287.789 42.56 291.419 39.326 296.105 39.326ZM296.105 43.121C293.828 43.121 292.079 44.573 292.079 47.081C292.079 49.556 293.828 51.008 296.105 51.008C298.349 51.008 300.098 49.556 300.098 47.081C300.098 44.573 298.349 43.121 296.105 43.121ZM346.905 37.379H351.261V67.937H346.905V37.379ZM350.271 49.292H355.683V52.955H350.271V49.292ZM327.171 41.9H344.958V45.398H327.171V41.9ZM336.114 47.114C340.569 47.114 343.869 50.15 343.869 54.407C343.869 58.664 340.569 61.7 336.114 61.7C331.659 61.7 328.359 58.664 328.359 54.407C328.359 50.15 331.659 47.114 336.114 47.114ZM336.114 50.678C334.035 50.678 332.55 52.064 332.55 54.407C332.55 56.75 334.035 58.136 336.114 58.136C338.193 58.136 339.678 56.75 339.678 54.407C339.678 52.064 338.193 50.678 336.114 50.678ZM333.903 37.874H338.292V43.22H333.903V37.874ZM379.704 37.379H384.126V67.937H379.704V37.379ZM370.695 40.547H375.051C375.051 49.886 371.883 57.542 361.026 62.789L358.749 59.291C367.527 55.067 370.695 49.523 370.695 41.339V40.547ZM360.366 40.547H372.774V44.012H360.366V40.547Z" fill="white"/>
</svg>
