<svg width="31" height="25" viewBox="0 0 31 25" fill="none" xmlns="http://www.w3.org/2000/svg">
<path d="M14.254 7.04234C13.815 6.99553 13.3689 6.9687 12.9167 6.96203C10.9408 6.97067 8.89244 7.44447 6.95361 8.35236C5.51405 9.05422 4.11175 10.0451 2.89392 11.2673C2.29582 11.8912 1.53246 12.7946 1.40912 13.7585C1.42369 14.5935 2.33266 15.624 2.89392 16.2497C4.03592 17.424 5.40169 18.3864 6.95361 19.1647C7.00636 19.1899 7.05927 19.2148 7.11234 19.2394L5.67251 21.7182L7.62889 22.858L18.2047 4.70683L16.3215 3.57227L14.254 7.04234ZM18.7197 8.28034L17.2826 10.7355C17.9437 11.5822 18.3362 12.6263 18.3362 13.7585C18.3362 16.5805 15.9096 18.8683 12.9153 18.8683C12.7858 18.8683 12.6604 18.8546 12.5332 18.8462L11.5822 20.4691C12.0208 20.5154 12.4642 20.5492 12.9167 20.555C14.8945 20.5462 16.9417 20.067 18.8784 19.1647C20.3179 18.4628 21.7216 17.472 22.9395 16.2497C23.5376 15.6258 24.3009 14.7224 24.4243 13.7585C24.4097 12.9236 23.5007 11.893 22.9395 11.2673C21.7975 10.0931 20.4303 9.13056 18.8784 8.35232C18.826 8.32729 18.7724 8.30477 18.7197 8.28034ZM12.9153 8.6487C13.0466 8.6487 13.1769 8.65388 13.3058 8.66254L12.1919 10.5638C10.6285 10.8763 9.45543 12.1875 9.45543 13.7571C9.45543 14.1514 9.5291 14.5289 9.66474 14.8788C9.66489 14.8792 9.66458 14.8798 9.66474 14.8802L8.54796 16.787C7.8853 15.9395 7.49441 14.892 7.49441 13.7585C7.49443 10.9365 9.92105 8.64869 12.9153 8.6487ZM16.156 12.6576L13.6458 16.9449C15.2007 16.6265 16.3653 15.3213 16.3653 13.7571C16.3653 13.37 16.287 13.002 16.156 12.6576Z" fill="black" fill-opacity="0.5"/>
</svg>
