<svg width="61" height="61" viewBox="0 0 61 61" fill="none" xmlns="http://www.w3.org/2000/svg">
<circle cx="30.5" cy="30.5" r="29.3704" stroke="#3619CC" stroke-width="2.25926"/>
<path d="M30.5 15.5086C28.8804 15.5086 27.3272 16.1519 26.1821 17.2971C25.0369 18.4423 24.3935 19.9955 24.3935 21.6151V32.471C24.3935 33.2729 24.5515 34.067 24.8583 34.8078C25.1652 35.5487 25.615 36.2219 26.1821 36.7889C26.7491 37.3559 27.4223 37.8057 28.1631 38.1126C28.904 38.4195 29.6981 38.5774 30.5 38.5774C31.3019 38.5774 32.0959 38.4195 32.8368 38.1126C33.5777 37.8057 34.2509 37.3559 34.8179 36.7889C35.3849 36.2219 35.8347 35.5487 36.1416 34.8078C36.4485 34.067 36.6064 33.2729 36.6064 32.471V21.6151C36.6064 19.9955 35.9631 18.4423 34.8179 17.2971C33.6727 16.1519 32.1195 15.5086 30.5 15.5086ZM21.6795 31.4532C21.6795 31.1833 21.5723 30.9245 21.3814 30.7336C21.1906 30.5427 20.9317 30.4355 20.6618 30.4355C20.3919 30.4355 20.133 30.5427 19.9421 30.7336C19.7513 30.9245 19.644 31.1833 19.644 31.4532V32.471C19.644 35.174 20.6523 37.7799 22.4718 39.7788C24.2913 41.7778 26.7911 43.026 29.4822 43.2794V47.0586C29.4822 47.3286 29.5895 47.5874 29.7803 47.7783C29.9712 47.9692 30.2301 48.0764 30.5 48.0764C30.7699 48.0764 31.0288 47.9692 31.2196 47.7783C31.4105 47.5874 31.5177 47.3286 31.5177 47.0586V43.2794C34.2088 43.026 36.7086 41.7778 38.5282 39.7788C40.3477 37.7799 41.356 35.174 41.3559 32.471V31.4532C41.3559 31.1833 41.2487 30.9245 41.0578 30.7336C40.867 30.5427 40.6081 30.4355 40.3382 30.4355C40.0682 30.4355 39.8094 30.5427 39.6185 30.7336C39.4276 30.9245 39.3204 31.1833 39.3204 31.4532V32.471C39.3204 34.8103 38.3911 37.0538 36.737 38.708C35.0828 40.3621 32.8393 41.2914 30.5 41.2914C28.1606 41.2914 25.9171 40.3621 24.263 38.708C22.6088 37.0538 21.6795 34.8103 21.6795 32.471V31.4532Z" fill="#3619CC"/>
</svg>
