<svg width="1063" height="360" viewBox="0 0 1063 360" fill="none" xmlns="http://www.w3.org/2000/svg">
<rect y="129.502" width="478.667" height="85.242" fill="#927DFF"/>
<rect x="126.224" y="281.954" width="168.845" height="39.3425" fill="#755BFB" fill-opacity="0.3"/>
<rect x="319.658" y="281.954" width="286.872" height="39.3425" fill="#755BFB" fill-opacity="0.3"/>
<rect x="631.119" y="281.954" width="306.543" height="39.3425" fill="#755BFB" fill-opacity="0.3"/>
<path d="M147.925 60.149H161.105V78.9351H147.925V60.149ZM147.827 27.6915H158.253V29.757C158.253 45.0022 150.089 58.2803 132.778 62.903L126.877 52.8707C141.434 49.0348 147.827 39.4942 147.827 29.757V27.6915ZM150.581 27.6915H161.105V29.757C161.105 39.1008 167.695 48.3463 182.153 52.0838L176.35 62.1162C159.039 57.6901 150.581 44.6088 150.581 29.757V27.6915ZM129.631 21.3967H179.498V31.7241H129.631V21.3967ZM147.925 11.4627H161.105V25.9211H147.925V11.4627ZM187.563 10.5775H200.644V101.95H187.563V10.5775ZM126.582 85.0332L125.008 74.4107C140.942 74.4107 163.367 74.214 182.547 71.3616L183.53 80.9022C163.761 84.7381 142.319 84.9348 126.582 85.0332ZM239.094 19.7247H249.716V25.5277C249.716 42.6416 241.651 58.477 224.144 64.1816L217.554 53.8542C232.602 48.9364 239.094 36.937 239.094 25.5277V19.7247ZM241.848 19.7247H252.372V25.5277C252.372 36.1501 258.568 47.3627 272.928 52.1822L266.535 62.4112C249.618 56.8049 241.848 41.6581 241.848 25.5277V19.7247ZM267.617 32.4126H284.928V43.0351H267.617V32.4126ZM221.094 15.6921H270.076V26.0194H221.094V15.6921ZM232.209 69.0011H294.271V101.754H281.19V79.4268H232.209V69.0011ZM281.19 10.6759H294.271V64.8701H281.19V10.6759ZM340.786 16.6756C355.146 16.6756 365.867 26.0194 365.867 39.1008C365.867 52.2805 355.146 61.6244 340.786 61.6244C326.525 61.6244 315.607 52.2805 315.607 39.1008C315.607 26.0194 326.525 16.6756 340.786 16.6756ZM340.786 27.8882C333.803 27.8882 328.492 32.0192 328.492 39.1008C328.492 46.2808 333.803 50.4118 340.786 50.4118C347.77 50.4118 353.081 46.2808 353.081 39.1008C353.081 32.0192 347.77 27.8882 340.786 27.8882ZM374.424 10.5775H387.505V101.95H374.424V10.5775ZM313.443 83.4595L311.87 72.9353C327.902 72.9353 350.228 72.7386 369.408 69.8863L370.391 79.3285C350.622 83.2627 329.18 83.4595 313.443 83.4595ZM471.341 29.2652H496.127V39.7893H471.341V29.2652ZM471.341 57.4934H496.127V68.0175H471.341V57.4934ZM455.604 16.9707C469.177 16.9707 479.111 29.5603 479.111 49.4282C479.111 69.4929 469.177 82.0825 455.604 82.0825C441.932 82.0825 432.097 69.4929 432.097 49.4282C432.097 29.5603 441.932 16.9707 455.604 16.9707ZM455.604 28.8718C449.014 28.8718 444.49 36.0518 444.49 49.4282C444.49 63.0014 449.014 70.2797 455.604 70.2797C462.292 70.2797 466.718 63.0014 466.718 49.4282C466.718 36.0518 462.292 28.8718 455.604 28.8718ZM494.061 10.5775H507.044V101.95H494.061V10.5775ZM589.262 10.6759H601.655V67.7225H589.262V10.6759ZM578.148 33.1011H592.705V43.7236H578.148V33.1011ZM570.378 12.4463H582.574V64.7718H570.378V12.4463ZM523.659 20.0197H567.821V30.0521H523.659V20.0197ZM545.887 33.0027C557.297 33.0027 565.558 39.4942 565.558 48.9364C565.558 58.3786 557.297 64.7718 545.887 64.7718C534.478 64.7718 526.216 58.3786 526.216 48.9364C526.216 39.4942 534.478 33.0027 545.887 33.0027ZM545.887 42.3466C541.068 42.3466 537.822 44.7071 537.822 48.9364C537.822 53.1658 541.068 55.5263 545.887 55.5263C550.608 55.5263 553.854 53.1658 553.854 48.9364C553.854 44.7071 550.608 42.3466 545.887 42.3466ZM539.297 11.5611H552.182V26.9047H539.297V11.5611ZM570.87 68.706C590.344 68.706 602.147 74.6074 602.147 85.2299C602.147 95.754 590.344 101.754 570.87 101.754C551.297 101.754 539.494 95.754 539.494 85.2299C539.494 74.6074 551.297 68.706 570.87 68.706ZM570.87 78.4433C558.674 78.4433 552.575 80.5088 552.575 85.2299C552.575 89.8526 558.674 92.0164 570.87 92.0164C582.968 92.0164 589.066 89.8526 589.066 85.2299C589.066 80.5088 582.968 78.4433 570.87 78.4433ZM658.694 11.9545C679.447 11.9545 691.643 17.4625 691.643 27.4948C691.643 37.5271 679.447 43.0351 658.694 43.0351C637.843 43.0351 625.745 37.5271 625.745 27.4948C625.745 17.4625 637.843 11.9545 658.694 11.9545ZM658.694 21.4951C645.514 21.4951 639.318 23.4622 639.318 27.4948C639.318 31.7241 645.514 33.4945 658.694 33.4945C671.874 33.4945 678.07 31.7241 678.07 27.4948C678.07 23.4622 671.874 21.4951 658.694 21.4951ZM617.483 47.2644H699.807V57.5918H617.483V47.2644ZM626.925 62.7063H689.873V86.1151H639.908V94.1803H627.023V77.0663H676.988V72.4436H626.925V62.7063ZM627.023 91.3279H692.234V101.164H627.023V91.3279ZM766.135 14.3151C780.003 14.3151 790.036 22.2819 790.036 33.7896C790.036 45.1005 780.003 53.2641 766.135 53.2641C752.365 53.2641 742.333 45.1005 742.333 33.7896C742.333 22.2819 752.365 14.3151 766.135 14.3151ZM766.135 24.9375C759.545 24.9375 754.824 28.0849 754.824 33.7896C754.824 39.3959 759.545 42.5433 766.135 42.5433C772.823 42.5433 777.545 39.3959 777.545 33.7896C777.545 28.0849 772.823 24.9375 766.135 24.9375ZM760.037 62.3129H773.118V98.9997H760.037V62.3129ZM799.871 10.6759H812.854V101.754H799.871V10.6759ZM738.497 69.1978L736.923 58.5753C752.857 58.5753 775.381 58.3786 794.658 55.4279L795.544 64.9685C775.774 68.9027 754.234 69.0995 738.497 69.1978ZM888.679 10.7742H901.761V78.8367H888.679V10.7742ZM898.023 38.5107H913.858V49.2315H898.023V38.5107ZM830.059 20.2164H883.663V30.4455H830.059V20.2164ZM856.91 33.6912C869.992 33.6912 879.237 40.8712 879.237 51.297C879.237 61.7227 869.992 68.8044 856.91 68.8044C843.731 68.8044 834.485 61.7227 834.485 51.297C834.485 40.8712 843.731 33.6912 856.91 33.6912ZM856.91 43.6252C851.107 43.6252 847.075 46.3792 847.075 51.297C847.075 56.2148 851.107 58.8704 856.91 58.8704C862.713 58.8704 866.746 56.2148 866.746 51.297C866.746 46.3792 862.713 43.6252 856.91 43.6252ZM850.32 10.5775H863.402V25.2326H850.32V10.5775ZM843.042 89.7542H905.006V100.18H843.042V89.7542ZM843.042 73.7222H856.123V94.2786H843.042V73.7222ZM6.66878 136.468H25.3201L45.0193 184.529H45.8576L65.5567 136.468H84.2081V208H69.5385V161.441H68.9447L50.4331 207.651H40.4438L21.9321 161.267H21.3384V208H6.66878V136.468ZM165.353 172.234C165.353 180.035 163.874 186.671 160.917 192.143C157.983 197.615 153.978 201.795 148.902 204.682C143.849 207.546 138.168 208.978 131.857 208.978C125.501 208.978 119.796 207.534 114.743 204.647C109.69 201.76 105.697 197.58 102.763 192.108C99.8288 186.636 98.3618 180.011 98.3618 172.234C98.3618 164.434 99.8288 157.797 102.763 152.325C105.697 146.853 109.69 142.685 114.743 139.821C119.796 136.934 125.501 135.49 131.857 135.49C138.168 135.49 143.849 136.934 148.902 139.821C153.978 142.685 157.983 146.853 160.917 152.325C163.874 157.797 165.353 164.434 165.353 172.234ZM150.02 172.234C150.02 167.181 149.263 162.92 147.749 159.451C146.259 155.981 144.152 153.35 141.428 151.557C138.703 149.764 135.513 148.868 131.857 148.868C128.202 148.868 125.012 149.764 122.287 151.557C119.563 153.35 117.444 155.981 115.93 159.451C114.44 162.92 113.695 167.181 113.695 172.234C113.695 177.287 114.44 181.548 115.93 185.018C117.444 188.487 119.563 191.118 122.287 192.911C125.012 194.704 128.202 195.601 131.857 195.601C135.513 195.601 138.703 194.704 141.428 192.911C144.152 191.118 146.259 188.487 147.749 185.018C149.263 181.548 150.02 177.287 150.02 172.234ZM179.507 208V136.468H194.63V165.982H225.332V136.468H240.42V208H225.332V178.451H194.63V208H179.507ZM268.17 208H251.963L276.657 136.468H296.147L320.806 208H304.599L286.681 152.814H286.123L268.17 208ZM267.157 179.883H305.438V191.689H267.157V179.883ZM392.197 136.468V208H379.134L348.014 162.978H347.49V208H332.366V136.468H345.638L376.514 181.455H377.143V136.468H392.197ZM455.075 159.59C454.586 157.891 453.899 156.389 453.014 155.085C452.129 153.757 451.046 152.64 449.766 151.732C448.508 150.8 447.065 150.09 445.435 149.601C443.828 149.112 442.047 148.868 440.091 148.868C436.435 148.868 433.222 149.776 430.451 151.592C427.703 153.408 425.561 156.051 424.024 159.52C422.487 162.967 421.719 167.181 421.719 172.164C421.719 177.147 422.476 181.385 423.989 184.878C425.503 188.371 427.645 191.037 430.416 192.876C433.187 194.693 436.458 195.601 440.23 195.601C443.653 195.601 446.576 194.995 448.997 193.784C451.442 192.55 453.305 190.816 454.586 188.58C455.89 186.345 456.542 183.702 456.542 180.652L459.615 181.106H441.174V169.719H471.106V178.731C471.106 185.018 469.779 190.42 467.125 194.937C464.47 199.431 460.814 202.901 456.157 205.346C451.5 207.767 446.168 208.978 440.161 208.978C433.455 208.978 427.563 207.499 422.487 204.542C417.411 201.562 413.453 197.335 410.612 191.863C407.794 186.368 406.386 179.848 406.386 172.304C406.386 166.506 407.224 161.337 408.9 156.796C410.6 152.232 412.975 148.367 416.026 145.2C419.076 142.033 422.627 139.623 426.679 137.97C430.73 136.317 435.119 135.49 439.846 135.49C443.898 135.49 447.67 136.084 451.163 137.272C454.656 138.436 457.753 140.089 460.454 142.231C463.178 144.374 465.402 146.923 467.125 149.88C468.848 152.814 469.954 156.051 470.443 159.59H455.075ZM524.346 126.955C545.099 126.955 557.295 132.462 557.295 142.495C557.295 152.527 545.099 158.035 524.346 158.035C503.494 158.035 491.396 152.527 491.396 142.495C491.396 132.462 503.494 126.955 524.346 126.955ZM524.346 136.495C511.166 136.495 504.97 138.462 504.97 142.495C504.97 146.724 511.166 148.495 524.346 148.495C537.525 148.495 543.722 146.724 543.722 142.495C543.722 138.462 537.525 136.495 524.346 136.495ZM483.135 162.264H565.459V172.592H483.135V162.264ZM492.577 177.706H555.525V201.115H505.56V209.18H492.675V192.066H542.64V187.444H492.577V177.706ZM492.675 206.328H557.885V216.164H492.675V206.328ZM604.936 133.151H648.311V177.116H604.936V133.151ZM635.426 143.478H617.82V166.789H635.426V143.478ZM660.9 125.676H673.982V192.066H660.9V125.676ZM670.244 151.937H686.079V162.658H670.244V151.937ZM615.263 204.754H677.227V215.18H615.263V204.754ZM615.263 185.575H628.344V209.967H615.263V185.575ZM763.675 160.101H779.707V170.821H763.675V160.101ZM753.937 125.578H767.117V216.655H753.937V125.578ZM698.465 134.331H711.546V190.886H698.465V134.331ZM698.465 183.608H706.333C719.316 183.608 733.381 182.722 748.036 179.772L749.413 190.493C734.365 193.64 719.71 194.427 706.333 194.427H698.465V183.608ZM789.24 195.607H871.662V206.23H789.24V195.607ZM823.763 176.133H836.844V198.164H823.763V176.133ZM797.895 131.479H810.878V145.445H849.729V131.479H862.712V178.887H797.895V131.479ZM810.878 155.675V168.461H849.729V155.675H810.878ZM918.472 156.265H933.52V166.887H918.472V156.265ZM898.997 133.544H909.03V148.888C909.03 169.543 903.325 189.706 888.768 198.656L880.9 188.821C894.276 180.559 898.997 164.33 898.997 148.888V133.544ZM901.85 133.544H911.685V148.298C911.685 163.15 915.521 178.296 927.914 186.362L920.833 196.591C906.374 187.64 901.85 167.969 901.85 148.298V133.544ZM948.372 125.676H960.864V216.754H948.372V125.676ZM929.881 127.053H942.077V212.623H929.881V127.053ZM994.199 171.903H1007.18V197.476H994.199V171.903ZM1027.25 171.903H1040.33V197.476H1027.25V171.903ZM976.101 195.607H1058.52V206.23H976.101V195.607ZM1017.21 130.102C1036.79 130.102 1051.25 139.741 1051.25 154.593C1051.25 169.444 1036.79 178.985 1017.21 178.985C997.543 178.985 983.183 169.444 983.183 154.593C983.183 139.741 997.543 130.102 1017.21 130.102ZM1017.21 140.331C1004.53 140.331 996.067 145.544 996.067 154.593C996.067 163.543 1004.53 168.854 1017.21 168.854C1029.9 168.854 1038.36 163.543 1038.36 154.593C1038.36 145.544 1029.9 140.331 1017.21 140.331Z" fill="black"/>
<path d="M143.383 319.251L149.251 283.485H153.442L147.574 319.251H143.383ZM127.194 309.681L127.875 305.49H154.979L154.298 309.681H127.194ZM130.809 319.251L136.677 283.485H140.868L135 319.251H130.809ZM129.272 297.247L129.953 293.055H157.057L156.376 297.247H129.272ZM173.805 292.427V296.618H159.153V292.427H173.805ZM163.082 286H168.304V311.375C168.304 312.388 168.455 313.15 168.758 313.663C169.061 314.163 169.451 314.507 169.928 314.693C170.417 314.868 170.947 314.955 171.517 314.955C171.936 314.955 172.303 314.926 172.618 314.868C172.932 314.81 173.176 314.763 173.351 314.728L174.294 319.042C173.991 319.158 173.561 319.274 173.002 319.391C172.443 319.519 171.744 319.589 170.906 319.6C169.532 319.624 168.252 319.379 167.064 318.867C165.877 318.355 164.916 317.563 164.183 316.492C163.449 315.421 163.082 314.076 163.082 312.458V286ZM179.581 319.251V292.427H184.628V296.688H184.908C185.397 295.244 186.258 294.109 187.492 293.282C188.738 292.444 190.147 292.025 191.719 292.025C192.045 292.025 192.429 292.037 192.871 292.06C193.325 292.083 193.68 292.112 193.936 292.147V297.142C193.727 297.084 193.354 297.02 192.819 296.95C192.283 296.868 191.748 296.828 191.212 296.828C189.978 296.828 188.878 297.09 187.911 297.614C186.957 298.126 186.2 298.842 185.641 299.762C185.082 300.67 184.803 301.706 184.803 302.87V319.251H179.581ZM206.021 319.845C204.322 319.845 202.785 319.531 201.411 318.902C200.037 318.262 198.949 317.336 198.145 316.125C197.354 314.914 196.958 313.43 196.958 311.672C196.958 310.158 197.249 308.913 197.831 307.935C198.413 306.957 199.199 306.182 200.189 305.612C201.178 305.041 202.284 304.611 203.507 304.32C204.729 304.029 205.975 303.807 207.244 303.656C208.851 303.47 210.155 303.318 211.156 303.202C212.157 303.074 212.885 302.87 213.339 302.591C213.793 302.311 214.02 301.857 214.02 301.229V301.106C214.02 299.581 213.589 298.399 212.728 297.561C211.878 296.723 210.609 296.304 208.92 296.304C207.162 296.304 205.777 296.694 204.764 297.474C203.763 298.242 203.07 299.098 202.686 300.041L197.779 298.923C198.361 297.293 199.211 295.978 200.328 294.976C201.458 293.964 202.756 293.23 204.223 292.776C205.69 292.31 207.232 292.077 208.851 292.077C209.922 292.077 211.057 292.206 212.256 292.462C213.467 292.706 214.596 293.16 215.644 293.824C216.703 294.487 217.571 295.436 218.246 296.67C218.921 297.893 219.259 299.482 219.259 301.438V319.251H214.16V315.584H213.95C213.612 316.259 213.106 316.923 212.431 317.575C211.755 318.227 210.888 318.768 209.829 319.199C208.769 319.63 207.5 319.845 206.021 319.845ZM207.157 315.654C208.6 315.654 209.834 315.368 210.859 314.798C211.895 314.227 212.681 313.482 213.217 312.563C213.764 311.631 214.037 310.636 214.037 309.576V306.118C213.851 306.305 213.49 306.479 212.955 306.642C212.431 306.794 211.831 306.928 211.156 307.044C210.481 307.149 209.823 307.248 209.182 307.341C208.542 307.422 208.006 307.492 207.576 307.55C206.563 307.678 205.637 307.894 204.799 308.197C203.972 308.499 203.309 308.936 202.808 309.506C202.319 310.065 202.075 310.81 202.075 311.742C202.075 313.034 202.552 314.012 203.507 314.676C204.461 315.328 205.678 315.654 207.157 315.654ZM248.201 292.427L238.474 319.251H232.885L223.14 292.427H228.746L235.54 313.069H235.819L242.595 292.427H248.201ZM258.33 283.485V319.251H253.108V283.485H258.33ZM276.916 319.793C274.273 319.793 271.997 319.228 270.087 318.099C268.19 316.958 266.723 315.357 265.687 313.296C264.662 311.224 264.15 308.796 264.15 306.014C264.15 303.266 264.662 300.844 265.687 298.749C266.723 296.653 268.166 295.017 270.018 293.841C271.88 292.665 274.058 292.077 276.549 292.077C278.063 292.077 279.53 292.328 280.95 292.828C282.37 293.329 283.645 294.115 284.774 295.186C285.904 296.257 286.794 297.648 287.446 299.36C288.098 301.06 288.424 303.126 288.424 305.56V307.411H267.101V303.499H283.308C283.308 302.125 283.028 300.908 282.469 299.849C281.91 298.778 281.125 297.934 280.112 297.317C279.11 296.7 277.934 296.391 276.584 296.391C275.117 296.391 273.836 296.752 272.742 297.474C271.659 298.184 270.821 299.115 270.227 300.268C269.645 301.409 269.354 302.649 269.354 303.988V307.044C269.354 308.837 269.668 310.362 270.297 311.619C270.937 312.877 271.828 313.837 272.969 314.501C274.11 315.153 275.443 315.479 276.968 315.479C277.958 315.479 278.86 315.339 279.675 315.06C280.49 314.769 281.194 314.338 281.788 313.768C282.382 313.197 282.836 312.493 283.15 311.654L288.093 312.545C287.697 314 286.987 315.275 285.962 316.37C284.949 317.452 283.674 318.296 282.137 318.902C280.612 319.496 278.872 319.793 276.916 319.793ZM335.293 319.251L341.161 283.485H345.352L339.484 319.251H335.293ZM319.104 309.681L319.785 305.49H346.889L346.208 309.681H319.104ZM322.719 319.251L328.587 283.485H332.778L326.91 319.251H322.719ZM321.182 297.247L321.863 293.055H348.967L348.286 297.247H321.182ZM353.193 329.31V292.427H358.293V296.775H358.729C359.032 296.216 359.469 295.57 360.039 294.837C360.61 294.103 361.401 293.463 362.414 292.916C363.427 292.357 364.766 292.077 366.431 292.077C368.596 292.077 370.529 292.625 372.229 293.719C373.929 294.813 375.262 296.391 376.228 298.452C377.206 300.512 377.695 302.992 377.695 305.891C377.695 308.79 377.212 311.276 376.246 313.348C375.279 315.409 373.952 316.998 372.264 318.116C370.576 319.222 368.649 319.775 366.483 319.775C364.853 319.775 363.52 319.501 362.484 318.954C361.46 318.407 360.656 317.767 360.074 317.033C359.492 316.3 359.044 315.648 358.729 315.077H358.415V329.31H353.193ZM358.31 305.839C358.31 307.725 358.584 309.378 359.131 310.799C359.678 312.219 360.47 313.331 361.506 314.134C362.542 314.926 363.811 315.322 365.313 315.322C366.873 315.322 368.177 314.908 369.225 314.082C370.273 313.244 371.065 312.108 371.6 310.676C372.147 309.244 372.421 307.632 372.421 305.839C372.421 304.069 372.153 302.48 371.618 301.071C371.094 299.663 370.302 298.551 369.243 297.736C368.195 296.921 366.885 296.513 365.313 296.513C363.8 296.513 362.519 296.903 361.471 297.683C360.435 298.463 359.649 299.552 359.114 300.949C358.578 302.346 358.31 303.976 358.31 305.839ZM383.545 319.251V292.427H388.592V296.688H388.872C389.361 295.244 390.222 294.109 391.457 293.282C392.702 292.444 394.111 292.025 395.683 292.025C396.009 292.025 396.393 292.037 396.835 292.06C397.289 292.083 397.645 292.112 397.901 292.147V297.142C397.691 297.084 397.319 297.02 396.783 296.95C396.247 296.868 395.712 296.828 395.176 296.828C393.942 296.828 392.842 297.09 391.876 297.614C390.921 298.126 390.164 298.842 389.605 299.762C389.046 300.67 388.767 301.706 388.767 302.87V319.251H383.545ZM413.02 319.793C410.377 319.793 408.101 319.228 406.192 318.099C404.294 316.958 402.827 315.357 401.791 313.296C400.766 311.224 400.254 308.796 400.254 306.014C400.254 303.266 400.766 300.844 401.791 298.749C402.827 296.653 404.271 295.017 406.122 293.841C407.985 292.665 410.162 292.077 412.653 292.077C414.167 292.077 415.634 292.328 417.054 292.828C418.474 293.329 419.749 294.115 420.879 295.186C422.008 296.257 422.899 297.648 423.551 299.36C424.203 301.06 424.529 303.126 424.529 305.56V307.411H403.205V303.499H419.412C419.412 302.125 419.132 300.908 418.573 299.849C418.015 298.778 417.229 297.934 416.216 297.317C415.215 296.7 414.039 296.391 412.688 296.391C411.221 296.391 409.94 296.752 408.846 297.474C407.763 298.184 406.925 299.115 406.331 300.268C405.749 301.409 405.458 302.649 405.458 303.988V307.044C405.458 308.837 405.772 310.362 406.401 311.619C407.041 312.877 407.932 313.837 409.073 314.501C410.214 315.153 411.547 315.479 413.072 315.479C414.062 315.479 414.964 315.339 415.779 315.06C416.594 314.769 417.299 314.338 417.892 313.768C418.486 313.197 418.94 312.493 419.255 311.654L424.197 312.545C423.801 314 423.091 315.275 422.066 316.37C421.053 317.452 419.778 318.296 418.242 318.902C416.716 319.496 414.976 319.793 413.02 319.793ZM443.088 292.427V296.618H427.93V292.427H443.088ZM432.086 319.251V289.318C432.086 287.642 432.453 286.25 433.186 285.144C433.92 284.027 434.892 283.194 436.103 282.647C437.314 282.088 438.629 281.809 440.05 281.809C441.097 281.809 441.994 281.896 442.739 282.071C443.484 282.234 444.037 282.385 444.398 282.525L443.176 286.751C442.931 286.681 442.617 286.6 442.233 286.507C441.848 286.402 441.383 286.349 440.835 286.349C439.566 286.349 438.658 286.664 438.111 287.292C437.576 287.921 437.308 288.829 437.308 290.017V319.251H432.086ZM458.98 319.793C456.337 319.793 454.061 319.228 452.152 318.099C450.254 316.958 448.787 315.357 447.751 313.296C446.727 311.224 446.214 308.796 446.214 306.014C446.214 303.266 446.727 300.844 447.751 298.749C448.787 296.653 450.231 295.017 452.082 293.841C453.945 292.665 456.122 292.077 458.614 292.077C460.127 292.077 461.594 292.328 463.014 292.828C464.435 293.329 465.71 294.115 466.839 295.186C467.968 296.257 468.859 297.648 469.511 299.36C470.163 301.06 470.489 303.126 470.489 305.56V307.411H449.166V303.499H465.372C465.372 302.125 465.093 300.908 464.534 299.849C463.975 298.778 463.189 297.934 462.176 297.317C461.175 296.7 459.999 296.391 458.649 296.391C457.182 296.391 455.901 296.752 454.806 297.474C453.724 298.184 452.885 299.115 452.292 300.268C451.71 301.409 451.418 302.649 451.418 303.988V307.044C451.418 308.837 451.733 310.362 452.362 311.619C453.002 312.877 453.893 313.837 455.034 314.501C456.174 315.153 457.508 315.479 459.033 315.479C460.022 315.479 460.925 315.339 461.74 315.06C462.555 314.769 463.259 314.338 463.853 313.768C464.446 313.197 464.901 312.493 465.215 311.654L470.157 312.545C469.761 314 469.051 315.275 468.027 316.37C467.014 317.452 465.739 318.296 464.202 318.902C462.677 319.496 460.936 319.793 458.98 319.793ZM476.283 319.251V292.427H481.33V296.688H481.609C482.098 295.244 482.96 294.109 484.194 293.282C485.439 292.444 486.848 292.025 488.42 292.025C488.746 292.025 489.13 292.037 489.573 292.06C490.027 292.083 490.382 292.112 490.638 292.147V297.142C490.428 297.084 490.056 297.02 489.52 296.95C488.985 296.868 488.449 296.828 487.913 296.828C486.679 296.828 485.579 297.09 484.613 297.614C483.658 298.126 482.901 298.842 482.343 299.762C481.784 300.67 481.504 301.706 481.504 302.87V319.251H476.283ZM505.757 319.793C503.114 319.793 500.838 319.228 498.929 318.099C497.031 316.958 495.564 315.357 494.528 313.296C493.503 311.224 492.991 308.796 492.991 306.014C492.991 303.266 493.503 300.844 494.528 298.749C495.564 296.653 497.008 295.017 498.859 293.841C500.722 292.665 502.899 292.077 505.39 292.077C506.904 292.077 508.371 292.328 509.791 292.828C511.212 293.329 512.487 294.115 513.616 295.186C514.745 296.257 515.636 297.648 516.288 299.36C516.94 301.06 517.266 303.126 517.266 305.56V307.411H495.942V303.499H512.149C512.149 302.125 511.869 300.908 511.311 299.849C510.752 298.778 509.966 297.934 508.953 297.317C507.952 296.7 506.776 296.391 505.425 296.391C503.958 296.391 502.678 296.752 501.583 297.474C500.501 298.184 499.662 299.115 499.068 300.268C498.486 301.409 498.195 302.649 498.195 303.988V307.044C498.195 308.837 498.51 310.362 499.138 311.619C499.779 312.877 500.669 313.837 501.81 314.501C502.951 315.153 504.284 315.479 505.81 315.479C506.799 315.479 507.701 315.339 508.516 315.06C509.331 314.769 510.036 314.338 510.63 313.768C511.223 313.197 511.677 312.493 511.992 311.654L516.934 312.545C516.538 314 515.828 315.275 514.803 316.37C513.79 317.452 512.516 318.296 510.979 318.902C509.454 319.496 507.713 319.793 505.757 319.793ZM528.281 303.324V319.251H523.059V292.427H528.072V296.793H528.403C529.02 295.372 529.987 294.231 531.302 293.37C532.63 292.508 534.3 292.077 536.314 292.077C538.142 292.077 539.743 292.462 541.117 293.23C542.491 293.987 543.556 295.116 544.313 296.618C545.07 298.12 545.448 299.977 545.448 302.189V319.251H540.226V302.818C540.226 300.873 539.72 299.354 538.707 298.26C537.694 297.154 536.303 296.601 534.533 296.601C533.322 296.601 532.245 296.863 531.302 297.386C530.371 297.91 529.632 298.679 529.084 299.692C528.549 300.693 528.281 301.904 528.281 303.324ZM563.75 319.793C561.154 319.793 558.918 319.205 557.044 318.029C555.181 316.841 553.749 315.205 552.748 313.121C551.747 311.037 551.246 308.651 551.246 305.961C551.246 303.237 551.758 300.833 552.783 298.749C553.807 296.653 555.251 295.017 557.114 293.841C558.977 292.665 561.171 292.077 563.698 292.077C565.735 292.077 567.551 292.456 569.146 293.213C570.741 293.958 572.028 295.006 573.006 296.356C573.996 297.707 574.583 299.284 574.77 301.089H569.688C569.408 299.831 568.768 298.749 567.767 297.841C566.777 296.932 565.45 296.478 563.785 296.478C562.33 296.478 561.055 296.863 559.96 297.631C558.878 298.388 558.034 299.47 557.428 300.879C556.823 302.276 556.52 303.93 556.52 305.839C556.52 307.795 556.817 309.483 557.411 310.903C558.004 312.324 558.843 313.424 559.926 314.204C561.02 314.984 562.306 315.374 563.785 315.374C564.775 315.374 565.671 315.194 566.474 314.833C567.289 314.46 567.97 313.931 568.518 313.244C569.077 312.557 569.467 311.73 569.688 310.764H574.77C574.583 312.498 574.019 314.047 573.076 315.409C572.133 316.771 570.869 317.842 569.286 318.622C567.714 319.403 565.869 319.793 563.75 319.793ZM591.915 319.793C589.272 319.793 586.996 319.228 585.086 318.099C583.189 316.958 581.722 315.357 580.686 313.296C579.661 311.224 579.149 308.796 579.149 306.014C579.149 303.266 579.661 300.844 580.686 298.749C581.722 296.653 583.165 295.017 585.017 293.841C586.879 292.665 589.057 292.077 591.548 292.077C593.062 292.077 594.529 292.328 595.949 292.828C597.369 293.329 598.644 294.115 599.774 295.186C600.903 296.257 601.794 297.648 602.446 299.36C603.097 301.06 603.423 303.126 603.423 305.56V307.411H582.1V303.499H598.307C598.307 302.125 598.027 300.908 597.468 299.849C596.909 298.778 596.124 297.934 595.111 297.317C594.109 296.7 592.934 296.391 591.583 296.391C590.116 296.391 588.835 296.752 587.741 297.474C586.658 298.184 585.82 299.115 585.226 300.268C584.644 301.409 584.353 302.649 584.353 303.988V307.044C584.353 308.837 584.667 310.362 585.296 311.619C585.936 312.877 586.827 313.837 587.968 314.501C589.109 315.153 590.442 315.479 591.967 315.479C592.957 315.479 593.859 315.339 594.674 315.06C595.489 314.769 596.193 314.338 596.787 313.768C597.381 313.197 597.835 312.493 598.149 311.654L603.092 312.545C602.696 314 601.986 315.275 600.961 316.37C599.948 317.452 598.673 318.296 597.137 318.902C595.611 319.496 593.871 319.793 591.915 319.793ZM650.292 319.251L656.16 283.485H660.351L654.483 319.251H650.292ZM634.103 309.681L634.784 305.49H661.888L661.207 309.681H634.103ZM637.718 319.251L643.586 283.485H647.777L641.909 319.251H637.718ZM636.181 297.247L636.862 293.055H663.966L663.285 297.247H636.181ZM679.491 319.793C676.895 319.793 674.66 319.205 672.785 318.029C670.923 316.841 669.49 315.205 668.489 313.121C667.488 311.037 666.987 308.651 666.987 305.961C666.987 303.237 667.5 300.833 668.524 298.749C669.549 296.653 670.992 295.017 672.855 293.841C674.718 292.665 676.913 292.077 679.439 292.077C681.476 292.077 683.293 292.456 684.888 293.213C686.483 293.958 687.769 295.006 688.747 296.356C689.737 297.707 690.325 299.284 690.511 301.089H685.429C685.15 299.831 684.509 298.749 683.508 297.841C682.518 296.932 681.191 296.478 679.526 296.478C678.071 296.478 676.796 296.863 675.702 297.631C674.619 298.388 673.775 299.47 673.17 300.879C672.564 302.276 672.261 303.93 672.261 305.839C672.261 307.795 672.558 309.483 673.152 310.903C673.746 312.324 674.584 313.424 675.667 314.204C676.761 314.984 678.048 315.374 679.526 315.374C680.516 315.374 681.412 315.194 682.216 314.833C683.031 314.46 683.712 313.931 684.259 313.244C684.818 312.557 685.208 311.73 685.429 310.764H690.511C690.325 312.498 689.76 314.047 688.817 315.409C687.874 316.771 686.611 317.842 685.027 318.622C683.456 319.403 681.61 319.793 679.491 319.793ZM707.394 319.793C704.879 319.793 702.685 319.216 700.81 318.064C698.936 316.911 697.481 315.299 696.444 313.226C695.408 311.154 694.89 308.732 694.89 305.961C694.89 303.179 695.408 300.745 696.444 298.661C697.481 296.577 698.936 294.959 700.81 293.806C702.685 292.654 704.879 292.077 707.394 292.077C709.909 292.077 712.104 292.654 713.978 293.806C715.853 294.959 717.308 296.577 718.344 298.661C719.38 300.745 719.898 303.179 719.898 305.961C719.898 308.732 719.38 311.154 718.344 313.226C717.308 315.299 715.853 316.911 713.978 318.064C712.104 319.216 709.909 319.793 707.394 319.793ZM707.412 315.409C709.042 315.409 710.392 314.978 711.463 314.117C712.534 313.255 713.326 312.108 713.838 310.676C714.362 309.244 714.624 307.667 714.624 305.944C714.624 304.232 714.362 302.661 713.838 301.229C713.326 299.785 712.534 298.626 711.463 297.753C710.392 296.88 709.042 296.443 707.412 296.443C705.77 296.443 704.408 296.88 703.325 297.753C702.254 298.626 701.457 299.785 700.933 301.229C700.42 302.661 700.164 304.232 700.164 305.944C700.164 307.667 700.42 309.244 700.933 310.676C701.457 312.108 702.254 313.255 703.325 314.117C704.408 314.978 705.77 315.409 707.412 315.409ZM730.949 303.324V319.251H725.727V292.427H730.739V296.793H731.071C731.688 295.372 732.654 294.231 733.97 293.37C735.297 292.508 736.968 292.077 738.982 292.077C740.81 292.077 742.411 292.462 743.784 293.23C745.158 293.987 746.224 295.116 746.98 296.618C747.737 298.12 748.116 299.977 748.116 302.189V319.251H742.894V302.818C742.894 300.873 742.387 299.354 741.374 298.26C740.362 297.154 738.97 296.601 737.201 296.601C735.99 296.601 734.913 296.863 733.97 297.386C733.038 297.91 732.299 298.679 731.752 299.692C731.216 300.693 730.949 301.904 730.949 303.324ZM767.884 292.427V296.618H752.726V292.427H767.884ZM756.882 319.251V289.318C756.882 287.642 757.249 286.25 757.983 285.144C758.716 284.027 759.688 283.194 760.899 282.647C762.11 282.088 763.425 281.809 764.846 281.809C765.894 281.809 766.79 281.896 767.535 282.071C768.28 282.234 768.833 282.385 769.194 282.525L767.972 286.751C767.727 286.681 767.413 286.6 767.029 286.507C766.645 286.402 766.179 286.349 765.632 286.349C764.363 286.349 763.454 286.664 762.907 287.292C762.372 287.921 762.104 288.829 762.104 290.017V319.251H756.882ZM783.515 319.793C781 319.793 778.805 319.216 776.931 318.064C775.056 316.911 773.601 315.299 772.565 313.226C771.529 311.154 771.011 308.732 771.011 305.961C771.011 303.179 771.529 300.745 772.565 298.661C773.601 296.577 775.056 294.959 776.931 293.806C778.805 292.654 781 292.077 783.515 292.077C786.029 292.077 788.224 292.654 790.098 293.806C791.973 294.959 793.428 296.577 794.464 298.661C795.501 300.745 796.019 303.179 796.019 305.961C796.019 308.732 795.501 311.154 794.464 313.226C793.428 315.299 791.973 316.911 790.098 318.064C788.224 319.216 786.029 319.793 783.515 319.793ZM783.532 315.409C785.162 315.409 786.513 314.978 787.584 314.117C788.655 313.255 789.447 312.108 789.959 310.676C790.483 309.244 790.745 307.667 790.745 305.944C790.745 304.232 790.483 302.661 789.959 301.229C789.447 299.785 788.655 298.626 787.584 297.753C786.513 296.88 785.162 296.443 783.532 296.443C781.89 296.443 780.528 296.88 779.446 297.753C778.374 298.626 777.577 299.785 777.053 301.229C776.541 302.661 776.285 304.232 776.285 305.944C776.285 307.667 776.541 309.244 777.053 310.676C777.577 312.108 778.374 313.255 779.446 314.117C780.528 314.978 781.89 315.409 783.532 315.409ZM801.847 319.251V292.427H806.894V296.688H807.174C807.663 295.244 808.524 294.109 809.758 293.282C811.004 292.444 812.413 292.025 813.985 292.025C814.311 292.025 814.695 292.037 815.137 292.06C815.591 292.083 815.946 292.112 816.203 292.147V297.142C815.993 297.084 815.62 297.02 815.085 296.95C814.549 296.868 814.014 296.828 813.478 296.828C812.244 296.828 811.144 297.09 810.177 297.614C809.223 298.126 808.466 298.842 807.907 299.762C807.348 300.67 807.069 301.706 807.069 302.87V319.251H801.847ZM834.828 292.427V296.618H820.176V292.427H834.828ZM824.105 286H829.327V311.375C829.327 312.388 829.478 313.15 829.781 313.663C830.083 314.163 830.473 314.507 830.951 314.693C831.44 314.868 831.969 314.955 832.54 314.955C832.959 314.955 833.326 314.926 833.64 314.868C833.954 314.81 834.199 314.763 834.374 314.728L835.317 319.042C835.014 319.158 834.583 319.274 834.024 319.391C833.465 319.519 832.767 319.589 831.929 319.6C830.555 319.624 829.274 319.379 828.087 318.867C826.899 318.355 825.939 317.563 825.205 316.492C824.472 315.421 824.105 314.076 824.105 312.458V286ZM848.41 319.845C846.71 319.845 845.173 319.531 843.8 318.902C842.426 318.262 841.337 317.336 840.534 316.125C839.742 314.914 839.346 313.43 839.346 311.672C839.346 310.158 839.637 308.913 840.22 307.935C840.802 306.957 841.588 306.182 842.577 305.612C843.567 305.041 844.673 304.611 845.895 304.32C847.118 304.029 848.364 303.807 849.633 303.656C851.239 303.47 852.543 303.318 853.544 303.202C854.546 303.074 855.273 302.87 855.727 302.591C856.182 302.311 856.409 301.857 856.409 301.229V301.106C856.409 299.581 855.978 298.399 855.116 297.561C854.266 296.723 852.997 296.304 851.309 296.304C849.551 296.304 848.166 296.694 847.153 297.474C846.151 298.242 845.459 299.098 845.075 300.041L840.167 298.923C840.749 297.293 841.599 295.978 842.717 294.976C843.846 293.964 845.144 293.23 846.611 292.776C848.078 292.31 849.621 292.077 851.239 292.077C852.31 292.077 853.446 292.206 854.645 292.462C855.856 292.706 856.985 293.16 858.033 293.824C859.092 294.487 859.96 295.436 860.635 296.67C861.31 297.893 861.648 299.482 861.648 301.438V319.251H856.548V315.584H856.339C856.001 316.259 855.495 316.923 854.819 317.575C854.144 318.227 853.277 318.768 852.217 319.199C851.158 319.63 849.889 319.845 848.41 319.845ZM849.545 315.654C850.989 315.654 852.223 315.368 853.248 314.798C854.284 314.227 855.07 313.482 855.605 312.563C856.152 311.631 856.426 310.636 856.426 309.576V306.118C856.24 306.305 855.879 306.479 855.343 306.642C854.819 306.794 854.22 306.928 853.544 307.044C852.869 307.149 852.211 307.248 851.571 307.341C850.931 307.422 850.395 307.492 849.964 307.55C848.951 307.678 848.026 307.894 847.188 308.197C846.361 308.499 845.697 308.936 845.197 309.506C844.708 310.065 844.463 310.81 844.463 311.742C844.463 313.034 844.941 314.012 845.895 314.676C846.85 315.328 848.067 315.654 849.545 315.654ZM869.022 319.251V283.485H874.243V296.775H874.558C874.86 296.216 875.297 295.57 875.868 294.837C876.438 294.103 877.23 293.463 878.243 292.916C879.256 292.357 880.594 292.077 882.259 292.077C884.425 292.077 886.358 292.625 888.057 293.719C889.757 294.813 891.09 296.391 892.057 298.452C893.034 300.512 893.523 302.992 893.523 305.891C893.523 308.79 893.04 311.276 892.074 313.348C891.108 315.409 889.78 316.998 888.092 318.116C886.404 319.222 884.477 319.775 882.312 319.775C880.682 319.775 879.349 319.501 878.313 318.954C877.288 318.407 876.485 317.767 875.903 317.033C875.32 316.3 874.872 315.648 874.558 315.077H874.121V319.251H869.022ZM874.139 305.839C874.139 307.725 874.412 309.378 874.959 310.799C875.507 312.219 876.298 313.331 877.335 314.134C878.371 314.926 879.64 315.322 881.142 315.322C882.702 315.322 884.006 314.908 885.054 314.082C886.101 313.244 886.893 312.108 887.429 310.676C887.976 309.244 888.249 307.632 888.249 305.839C888.249 304.069 887.982 302.48 887.446 301.071C886.922 299.663 886.13 298.551 885.071 297.736C884.023 296.921 882.713 296.513 881.142 296.513C879.628 296.513 878.347 296.903 877.3 297.683C876.263 298.463 875.478 299.552 874.942 300.949C874.406 302.346 874.139 303.976 874.139 305.839ZM904.609 283.485V319.251H899.387V283.485H904.609ZM923.194 319.793C920.552 319.793 918.276 319.228 916.366 318.099C914.468 316.958 913.001 315.357 911.965 313.296C910.941 311.224 910.428 308.796 910.428 306.014C910.428 303.266 910.941 300.844 911.965 298.749C913.001 296.653 914.445 295.017 916.296 293.841C918.159 292.665 920.336 292.077 922.828 292.077C924.341 292.077 925.808 292.328 927.229 292.828C928.649 293.329 929.924 294.115 931.053 295.186C932.183 296.257 933.073 297.648 933.725 299.36C934.377 301.06 934.703 303.126 934.703 305.56V307.411H913.38V303.499H929.586C929.586 302.125 929.307 300.908 928.748 299.849C928.189 298.778 927.403 297.934 926.39 297.317C925.389 296.7 924.213 296.391 922.863 296.391C921.396 296.391 920.115 296.752 919.021 297.474C917.938 298.184 917.1 299.115 916.506 300.268C915.924 301.409 915.633 302.649 915.633 303.988V307.044C915.633 308.837 915.947 310.362 916.576 311.619C917.216 312.877 918.107 313.837 919.248 314.501C920.389 315.153 921.722 315.479 923.247 315.479C924.237 315.479 925.139 315.339 925.954 315.06C926.769 314.769 927.473 314.338 928.067 313.768C928.661 313.197 929.115 312.493 929.429 311.654L934.371 312.545C933.975 314 933.265 315.275 932.241 316.37C931.228 317.452 929.953 318.296 928.416 318.902C926.891 319.496 925.15 319.793 923.194 319.793Z" fill="#4E4E4E"/>
</svg>
