<svg width="1175" height="229" viewBox="0 0 1175 229" fill="none" xmlns="http://www.w3.org/2000/svg">
<path d="M62.9012 0.299999H76.3012V53.7H62.9012V0.299999ZM72.4012 22.2H88.4012V33H72.4012V22.2ZM45.9012 55.4C64.9012 55.4 77.2012 62.5 77.2012 74.2C77.2012 86 64.9012 93 45.9012 93C26.8012 93 14.5012 86 14.5012 74.2C14.5012 62.5 26.8012 55.4 45.9012 55.4ZM45.9012 66C34.1012 66 27.6012 68.6 27.6012 74.2C27.6012 79.7 34.1012 82.4 45.9012 82.4C57.6012 82.4 64.1012 79.7 64.1012 74.2C64.1012 68.6 57.6012 66 45.9012 66ZM6.40117 38.3H14.1012C34.5012 38.3 44.6012 37.8 55.7012 35.4L57.0012 46C45.7012 48.5 35.0012 48.9 14.1012 48.9H6.40117V38.3ZM6.40117 6.5H47.8012V17.1H19.6012V45.5H6.40117V6.5ZM118.793 10.6H129.693V16.4C129.693 34.1 121.393 50 103.493 55.9L96.8934 45.4C112.293 40.3 118.793 28.2 118.793 16.4V10.6ZM121.493 10.6H132.293V16.4C132.293 27.2 138.493 37.8 153.393 42.3L147.093 52.7C129.493 47.4 121.493 32.9 121.493 16.4V10.6ZM100.393 6.5H150.393V17.1H100.393V6.5ZM157.793 0.299999H171.093V55.2H157.793V0.299999ZM167.393 21.6H183.393V32.5H167.393V21.6ZM140.893 56.9C160.093 56.9 172.193 63.6 172.193 74.9C172.193 86.2 160.093 92.9 140.893 92.9C121.593 92.9 109.493 86.2 109.493 74.9C109.493 63.6 121.593 56.9 140.893 56.9ZM140.893 67.3C129.093 67.3 122.693 69.7 122.693 74.9C122.693 80.1 129.093 82.7 140.893 82.7C152.693 82.7 158.993 80.1 158.993 74.9C158.993 69.7 152.693 67.3 140.893 67.3ZM244.73 6.69999C258.53 6.69999 268.63 19.5 268.63 39.7C268.63 60.1 258.53 72.9 244.73 72.9C230.83 72.9 220.83 60.1 220.83 39.7C220.83 19.5 230.83 6.69999 244.73 6.69999ZM244.73 18.8C238.03 18.8 233.53 26.1 233.53 39.7C233.53 53.5 238.03 60.9 244.73 60.9C251.53 60.9 255.93 53.5 255.93 39.7C255.93 26.1 251.53 18.8 244.73 18.8ZM283.83 0.199994H297.03V93.1H283.83V0.199994ZM264.73 33.6H289.43V44.3H264.73V33.6ZM377.822 0.299999H391.222V93.2H377.822V0.299999ZM319.922 60H327.922C347.422 60 358.422 59.6 370.822 57.3L372.022 68.2C359.522 70.7 347.822 71.1 327.922 71.1H319.922V60ZM319.922 8.49999H364.622V19.2H333.122V64.2H319.922V8.49999ZM409.414 71.9H493.214V82.7H409.414V71.9ZM444.514 54.4H457.814V76.3H444.514V54.4ZM418.814 6.3H483.814V37.1H432.214V52.7H419.014V26.7H470.614V16.8H418.814V6.3ZM419.014 47.4H485.914V58.1H419.014V47.4ZM532.551 59.2H537.151C545.151 59.2 550.151 59.1 556.151 57.7L557.451 68.5C551.051 69.9 545.851 70 537.151 70H532.551V59.2ZM532.551 8.8H556.351V19.4H545.651V63.8H532.551V8.8ZM560.651 59.2H565.851C576.351 59.2 581.951 59 588.551 57.5L589.551 68.2C582.651 69.9 576.951 70 565.851 70H560.651V59.2ZM560.651 8.8H585.851V19.4H573.851V64.1H560.651V8.8ZM595.751 0.299999H609.051V92.9H595.751V0.299999ZM582.051 32.4H600.151V43.3H582.051V32.4ZM694.543 35.3H710.843V46.2H694.543V35.3ZM684.643 0.199994H698.043V92.8H684.643V0.199994ZM628.243 9.1H641.543V66.6H628.243V9.1ZM628.243 59.2H636.243C649.443 59.2 663.743 58.3 678.643 55.3L680.043 66.2C664.743 69.4 649.843 70.2 636.243 70.2H628.243V59.2ZM729.036 8.09999H787.736V18.8H729.036V8.09999ZM720.536 71H804.236V81.8H720.536V71ZM750.136 39.2H763.436V76.3H750.136V39.2ZM782.936 8.09999H796.236V17C796.236 28.6 796.236 41.6 792.536 61.4L779.236 59.9C782.936 41.5 782.936 28.1 782.936 17V8.09999ZM905.172 0.399997H918.572V51.6H905.172V0.399997ZM863.272 3.49999H874.272V12.4C874.272 29.5 865.672 44.9 847.572 50.4L841.072 40C856.672 35.3 863.272 23.7 863.272 12.4V3.49999ZM865.972 3.49999H876.872V12.4C876.872 23.4 883.372 34.1 898.472 38.4L892.072 48.9C874.272 43.6 865.972 29.2 865.972 12.4V3.49999ZM855.972 55.8H918.972V66.3H855.972V55.8ZM855.072 81.4H919.872V91.9H855.072V81.4ZM866.872 59.7H879.872V87.6H866.872V59.7ZM895.072 59.7H908.172V87.6H895.072V59.7ZM995.764 0.199994H1009.16V93.1H995.764V0.199994ZM1006.16 34.5H1022.56V45.4H1006.16V34.5ZM940.164 59.8H947.964C963.564 59.8 975.864 59.3 989.464 56.9L990.764 67.9C976.764 70.4 964.064 70.8 947.964 70.8H940.164V59.8ZM940.164 8.8H983.364V19.5H953.364V65.1H940.164V8.8ZM1076.26 14.8H1099.56V25.4H1076.26V14.8ZM1076.26 34.7H1099.96V45.3H1076.26V34.7ZM1035.36 7.7H1079.16V53H1035.36V7.7ZM1066.06 18.2H1048.46V42.6H1066.06V18.2ZM1095.76 0.399997H1109.06V67.8H1095.76V0.399997ZM1047.76 80.7H1111.06V91.3H1047.76V80.7ZM1047.76 61.4H1061.16V86.2H1047.76V61.4ZM1141.58 62.196V60.9886C1141.61 56.8456 1141.97 53.5431 1142.68 51.081C1143.42 48.6188 1144.48 46.6302 1145.88 45.1151C1147.28 43.5999 1148.96 42.2268 1150.92 40.9957C1152.39 40.0488 1153.7 39.0663 1154.86 38.0483C1156.02 37.0303 1156.95 35.9058 1157.63 34.6747C1158.32 33.42 1158.66 32.0232 1158.66 30.4844C1158.66 28.8509 1158.27 27.4186 1157.49 26.1875C1156.71 24.9564 1155.66 24.0095 1154.33 23.3466C1153.03 22.6837 1151.59 22.3523 1150 22.3523C1148.46 22.3523 1147 22.6955 1145.63 23.3821C1144.26 24.045 1143.13 25.0393 1142.26 26.3651C1141.38 27.6671 1140.91 29.2888 1140.84 31.2301H1126.35C1126.47 26.4953 1127.6 22.589 1129.76 19.5114C1131.91 16.41 1134.76 14.1018 1138.32 12.5866C1141.87 11.0478 1145.79 10.2784 1150.07 10.2784C1154.78 10.2784 1158.95 11.0597 1162.57 12.6222C1166.19 14.161 1169.03 16.3982 1171.09 19.3338C1173.15 22.2694 1174.18 25.8087 1174.18 29.9517C1174.18 32.7216 1173.72 35.1837 1172.8 37.3381C1171.9 39.4687 1170.63 41.3627 1169 43.0199C1167.36 44.6534 1165.43 46.133 1163.21 47.4588C1161.34 48.5715 1159.8 49.7315 1158.59 50.9389C1157.41 52.1463 1156.52 53.5431 1155.93 55.1293C1155.36 56.7154 1155.07 58.6686 1155.04 60.9886V62.196H1141.58ZM1148.61 84.9233C1146.25 84.9233 1144.22 84.0947 1142.54 82.4375C1140.88 80.7566 1140.07 78.7443 1140.09 76.4006C1140.07 74.0805 1140.88 72.0919 1142.54 70.4347C1144.22 68.7775 1146.25 67.9489 1148.61 67.9489C1150.86 67.9489 1152.84 68.7775 1154.54 70.4347C1156.25 72.0919 1157.11 74.0805 1157.14 76.4006C1157.11 77.9631 1156.7 79.3954 1155.89 80.6974C1155.11 81.9759 1154.08 83.0057 1152.8 83.7869C1151.53 84.5445 1150.13 84.9233 1148.61 84.9233Z" fill="white"/>
<path d="M1.93318 154.075H4.14508C7.99187 154.075 10.3961 154.027 13.2812 153.354L13.9063 158.547C10.8289 159.22 8.32846 159.268 4.14508 159.268H1.93318V154.075ZM1.93318 129.84H13.3774V134.937H8.23229V156.287H1.93318V129.84ZM15.445 154.075H17.9454C22.9943 154.075 25.6871 153.979 28.8607 153.258L29.3415 158.403C26.0237 159.22 23.2829 159.268 17.9454 159.268H15.445V154.075ZM15.445 129.84H27.5624V134.937H21.7922V156.431H15.445V129.84ZM32.3228 125.753H38.7181V170.28H32.3228V125.753ZM25.7352 141.188H34.4385V146.429H25.7352V141.188ZM79.8269 142.583H87.6647V147.824H79.8269V142.583ZM75.0665 125.705H81.5099V170.231H75.0665V125.705ZM47.9466 129.984H54.3419V157.633H47.9466V129.984ZM47.9466 154.075H51.7934C58.1406 154.075 65.0168 153.642 72.1814 152.2L72.8546 157.441C65.4976 158.98 58.333 159.364 51.7934 159.364H47.9466V154.075ZM96.4124 129.504H124.638V134.649H96.4124V129.504ZM92.3252 159.749H132.572V164.942H92.3252V159.749ZM106.558 144.458H112.954V162.297H106.558V144.458ZM122.33 129.504H128.725V133.783C128.725 139.361 128.725 145.612 126.946 155.133L120.551 154.412C122.33 145.564 122.33 139.121 122.33 133.783V129.504ZM181.107 125.801H187.551V150.421H181.107V125.801ZM160.96 127.292H166.249V131.571C166.249 139.794 162.114 147.199 153.411 149.843L150.285 144.843C157.786 142.583 160.96 137.005 160.96 131.571V127.292ZM162.258 127.292H167.499V131.571C167.499 136.861 170.625 142.006 177.886 144.073L174.808 149.122C166.249 146.574 162.258 139.649 162.258 131.571V127.292ZM157.45 152.44H187.743V157.489H157.45V152.44ZM157.017 164.75H188.176V169.799H157.017V164.75ZM162.691 154.315H168.942V167.731H162.691V154.315ZM176.251 154.315H182.55V167.731H176.251V154.315ZM196.202 148.449H236.449V153.546H196.202V148.449ZM201.059 164.413H231.929V169.51H201.059V164.413ZM201.059 156.527H207.454V166.048H201.059V156.527ZM216.35 127.051C226.015 127.051 232.458 130.561 232.458 136.235C232.458 141.909 226.015 145.42 216.35 145.42C206.637 145.42 200.241 141.909 200.241 136.235C200.241 130.561 206.637 127.051 216.35 127.051ZM216.35 132.148C210.339 132.148 206.829 133.543 206.829 136.235C206.829 138.976 210.339 140.323 216.35 140.323C222.361 140.323 225.871 138.976 225.871 136.235C225.871 133.543 222.361 132.148 216.35 132.148ZM274.048 125.753H280.155V170.28H274.048V125.753ZM257.122 142.006H267.46V147.151H257.122V142.006ZM264.864 126.522H270.826V168.308H264.864V126.522ZM243.178 155.133H246.255C252.554 155.133 256.737 154.989 261.642 154.027L262.123 159.22C257.17 160.23 252.746 160.422 246.255 160.422H243.178V155.133ZM243.178 130.754H260.151V135.851H249.477V157.345H243.178V130.754ZM328.834 125.753H335.278V151.43H328.834V125.753ZM333.402 136.284H341.096V141.477H333.402V136.284ZM320.66 152.248C329.796 152.248 335.71 155.662 335.71 161.288C335.71 166.962 329.796 170.328 320.66 170.328C311.476 170.328 305.561 166.962 305.561 161.288C305.561 155.662 311.476 152.248 320.66 152.248ZM320.66 157.345C314.986 157.345 311.86 158.595 311.86 161.288C311.86 163.932 314.986 165.231 320.66 165.231C326.286 165.231 329.411 163.932 329.411 161.288C329.411 158.595 326.286 157.345 320.66 157.345ZM301.666 144.025H305.369C315.178 144.025 320.035 143.785 325.372 142.631L325.997 147.728C320.564 148.93 315.419 149.122 305.369 149.122H301.666V144.025ZM301.666 128.734H321.573V133.831H308.014V147.487H301.666V128.734ZM355.71 130.706H360.951V133.495C360.951 142.006 356.96 149.651 348.353 152.488L345.179 147.439C352.584 144.987 355.71 139.169 355.71 133.495V130.706ZM357.008 130.706H362.201V133.495C362.201 138.688 365.183 143.785 372.347 145.949L369.318 150.949C360.855 148.401 357.008 141.429 357.008 133.495V130.706ZM346.862 128.734H370.905V133.831H346.862V128.734ZM374.463 125.753H380.858V152.152H374.463V125.753ZM379.079 135.995H386.773V141.236H379.079V135.995ZM366.337 152.969C375.569 152.969 381.387 156.191 381.387 161.624C381.387 167.058 375.569 170.28 366.337 170.28C357.056 170.28 351.238 167.058 351.238 161.624C351.238 156.191 357.056 152.969 366.337 152.969ZM366.337 157.97C360.663 157.97 357.585 159.124 357.585 161.624C357.585 164.125 360.663 165.375 366.337 165.375C372.011 165.375 375.04 164.125 375.04 161.624C375.04 159.124 372.011 157.97 366.337 157.97ZM421.219 137.486H430.259V142.583H421.219V137.486ZM420.979 148.593H430.067V153.69H420.979V148.593ZM436.318 125.753H442.425V170.28H436.318V125.753ZM427.134 126.715H433.096V168.308H427.134V126.715ZM417.084 130.994H423.239C423.239 143.641 419.44 153.738 407.034 161.047L403.428 156.575C413.478 150.469 417.084 143.064 417.084 132.293V130.994ZM405.976 130.994H419.248V136.091H405.976V130.994ZM451.22 129.023H477.379V133.591H451.22V129.023ZM464.3 134.649C470.935 134.649 475.359 137.293 475.359 141.332C475.359 145.42 470.935 148.016 464.3 148.016C457.664 148.016 453.24 145.42 453.24 141.332C453.24 137.293 457.664 134.649 464.3 134.649ZM464.3 138.88C461.318 138.88 459.347 139.698 459.347 141.332C459.347 142.919 461.318 143.785 464.3 143.785C467.329 143.785 469.252 142.919 469.252 141.332C469.252 139.698 467.329 138.88 464.3 138.88ZM461.078 125.464H467.521V131.331H461.078V125.464ZM461.078 145.66H467.521V151.863H461.078V145.66ZM480.408 125.801H486.851V155.95H480.408V125.801ZM456.077 157.681H486.851V170.28H480.408V162.586H456.077V157.681ZM450.74 155.085L449.97 150.228C458 150.228 468.675 150.18 477.763 149.026L478.244 153.306C468.819 154.94 458.577 155.085 450.74 155.085ZM525.941 125.705H532.384V170.376H525.941V125.705ZM508.39 128.83C515.121 128.83 520.074 134.985 520.074 144.698C520.074 154.508 515.121 160.663 508.39 160.663C501.658 160.663 496.705 154.508 496.705 144.698C496.705 134.985 501.658 128.83 508.39 128.83ZM508.39 134.649C505.072 134.649 502.812 138.159 502.812 144.698C502.812 151.334 505.072 154.892 508.39 154.892C511.707 154.892 513.919 151.334 513.919 144.698C513.919 138.159 511.707 134.649 508.39 134.649ZM558.56 151.815H564.474V156.191H568.898V151.815H574.812V169.799H558.56V151.815ZM564.474 160.807V164.99H568.898V160.807H564.474ZM581.688 151.478H586.545V154.796C586.545 161.336 583.9 167.683 577.313 170.231L574.187 165.471C579.525 163.259 581.688 158.98 581.688 154.796V151.478ZM583.179 151.478H588.036V154.796C588.036 159.412 590.151 163.644 595.585 165.471L592.411 170.231C585.68 167.827 583.179 161.817 583.179 154.796V151.478ZM576.159 135.274H587.314V140.467H576.159V135.274ZM565.965 127.436C572.649 127.436 577.697 131.764 577.697 137.918C577.697 144.073 572.649 148.449 565.965 148.449C559.233 148.449 554.184 144.073 554.184 137.918C554.184 131.764 559.233 127.436 565.965 127.436ZM565.965 132.677C562.695 132.677 560.291 134.649 560.291 137.918C560.291 141.188 562.695 143.208 565.965 143.208C569.235 143.208 571.591 141.188 571.591 137.918C571.591 134.649 569.235 132.677 565.965 132.677ZM584.526 125.753H590.921V149.315H584.526V125.753ZM627.798 125.705H634.242V170.376H627.798V125.705ZM632.799 142.198H640.685V147.439H632.799V142.198ZM601.063 154.363H604.814C612.315 154.363 618.229 154.123 624.769 152.969L625.394 158.258C618.662 159.46 612.555 159.653 604.814 159.653H601.063V154.363ZM601.063 129.84H621.836V134.985H607.41V156.912H601.063V129.84ZM666.503 132.725H677.706V137.822H666.503V132.725ZM666.503 142.294H677.899V147.391H666.503V142.294ZM646.836 129.311H667.897V151.094H646.836V129.311ZM661.598 134.36H653.135V146.093H661.598V134.36ZM675.879 125.801H682.275V158.21H675.879V125.801ZM652.799 164.413H683.236V169.51H652.799V164.413ZM652.799 155.133H659.242V167.058H652.799V155.133ZM812.402 142.15H819.711V147.295H812.402V142.15ZM826.78 125.753H832.886V170.28H826.78V125.753ZM817.692 126.426H823.702V168.26H817.692V126.426ZM804.613 128.878C810.527 128.878 814.326 134.985 814.326 145.035C814.326 155.133 810.527 161.24 804.613 161.24C798.746 161.24 794.996 155.133 794.996 145.035C794.996 134.985 798.746 128.878 804.613 128.878ZM804.613 134.889C802.208 134.889 800.814 138.255 800.814 145.035C800.814 151.863 802.208 155.181 804.613 155.181C807.113 155.181 808.507 151.863 808.507 145.035C808.507 138.255 807.113 134.889 804.613 134.889ZM862.743 139.649H874.476V144.795H862.743V139.649ZM850.626 129.167H855.819V135.61C855.819 146.814 852.02 157.152 843.654 161.336L839.663 156.191C847.26 152.68 850.626 144.073 850.626 135.61V129.167ZM851.972 129.167H857.069V135.61C857.069 144.073 860.291 152.2 867.648 155.469L863.849 160.566C855.483 156.527 851.972 146.718 851.972 135.61V129.167ZM871.302 125.705H877.65V170.376H871.302V125.705ZM382.822 200.15H390.131V205.295H382.822V200.15ZM397.2 183.753H403.306V228.28H397.2V183.753ZM388.112 184.426H394.122V226.26H388.112V184.426ZM375.033 186.878C380.947 186.878 384.746 192.985 384.746 203.035C384.746 213.133 380.947 219.24 375.033 219.24C369.166 219.24 365.416 213.133 365.416 203.035C365.416 192.985 369.166 186.878 375.033 186.878ZM375.033 192.889C372.628 192.889 371.234 196.255 371.234 203.035C371.234 209.863 372.628 213.181 375.033 213.181C377.533 213.181 378.927 209.863 378.927 203.035C378.927 196.255 377.533 192.889 375.033 192.889ZM442.973 183.753H449.08V228.28H442.973V183.753ZM425.326 200.823H434.846V205.872H425.326V200.823ZM433.596 184.715H439.559V226.308H433.596V184.715ZM423.883 188.994H430.038C430.038 201.689 426.239 211.786 413.737 219.047L410.131 214.575C420.277 208.469 423.883 201.064 423.883 190.293V188.994ZM412.631 188.994H425.903V194.091H412.631V188.994ZM580.457 184.378C590.603 184.378 596.566 187.071 596.566 191.975C596.566 196.88 590.603 199.573 580.457 199.573C570.263 199.573 564.349 196.88 564.349 191.975C564.349 187.071 570.263 184.378 580.457 184.378ZM580.457 189.042C574.014 189.042 570.985 190.004 570.985 191.975C570.985 194.043 574.014 194.909 580.457 194.909C586.901 194.909 589.93 194.043 589.93 191.975C589.93 190.004 586.901 189.042 580.457 189.042ZM560.31 201.641H600.557V206.689H560.31V201.641ZM564.926 209.19H595.7V220.634H571.273V224.577H564.974V216.21H589.401V213.95H564.926V209.19ZM564.974 223.183H596.854V227.991H564.974V223.183ZM647.217 183.753H653.612V209.719H647.217V183.753ZM651.833 193.851H659.527V199.092H651.833V193.851ZM619.857 186.35H626.204V191.975H634.907V186.35H641.254V207.555H619.857V186.35ZM626.204 196.88V202.554H634.907V196.88H626.204ZM624.665 211.69H653.853V216.739H631.06V226.308H624.665V211.69ZM624.665 222.702H654.718V227.751H624.665V222.702ZM684.383 185.965C693.759 185.965 701.02 191.11 701.02 198.852C701.02 206.641 693.759 211.738 684.383 211.738C675.006 211.738 667.745 206.641 667.745 198.852C667.745 191.11 675.006 185.965 684.383 185.965ZM684.383 191.158C678.324 191.158 673.996 194.043 673.996 198.852C673.996 203.612 678.324 206.497 684.383 206.497C690.441 206.497 694.769 203.612 694.769 198.852C694.769 194.043 690.441 191.158 684.383 191.158ZM664.283 217.701H704.578V222.942H664.283V217.701ZM727.463 198.707H734.82V203.901H727.463V198.707ZM717.942 187.6H722.847V195.101C722.847 205.199 720.058 215.056 712.941 219.432L709.095 214.623C715.634 210.584 717.942 202.65 717.942 195.101V187.6ZM719.337 187.6H724.145V194.812C724.145 202.073 726.02 209.478 732.079 213.421L728.617 218.422C721.549 214.046 719.337 204.429 719.337 194.812V187.6ZM742.081 183.753H748.188V228.28H742.081V183.753ZM733.041 184.426H739.003V226.26H733.041V184.426ZM764.485 206.353H770.832V218.855H764.485V206.353ZM780.641 206.353H787.036V218.855H780.641V206.353ZM755.637 217.941H795.932V223.134H755.637V217.941ZM775.736 185.917C785.305 185.917 792.374 190.629 792.374 197.89C792.374 205.151 785.305 209.815 775.736 209.815C766.12 209.815 759.099 205.151 759.099 197.89C759.099 190.629 766.12 185.917 775.736 185.917ZM775.736 190.918C769.534 190.918 765.398 193.466 765.398 197.89C765.398 202.266 769.534 204.862 775.736 204.862C781.939 204.862 786.075 202.266 786.075 197.89C786.075 193.466 781.939 190.918 775.736 190.918ZM810.937 189.029L810.271 213.516H804.021L803.338 189.029H810.937ZM807.146 224.444C806.019 224.444 805.051 224.046 804.243 223.249C803.435 222.44 803.036 221.473 803.048 220.346C803.036 219.23 803.435 218.274 804.243 217.477C805.051 216.68 806.019 216.282 807.146 216.282C808.227 216.282 809.178 216.68 809.998 217.477C810.817 218.274 811.233 219.23 811.244 220.346C811.233 221.097 811.033 221.786 810.646 222.412C810.271 223.027 809.776 223.522 809.161 223.898C808.546 224.262 807.874 224.444 807.146 224.444Z" fill="#86868B"/>
<path d="M703.305 159.941H743.6V165.134H703.305V159.941ZM720.183 150.084H726.578V161.143H720.183V150.084ZM707.489 129.023H739.177V150.901H707.489V129.023ZM732.926 134.12H713.788V145.852H732.926V134.12ZM780.814 125.753H786.873V153.642H780.814V125.753ZM775.381 136.716H782.497V141.909H775.381V136.716ZM771.582 126.619H777.545V152.2H771.582V126.619ZM748.742 130.321H770.332V135.226H748.742V130.321ZM759.609 136.668C765.187 136.668 769.226 139.842 769.226 144.458C769.226 149.074 765.187 152.2 759.609 152.2C754.031 152.2 749.992 149.074 749.992 144.458C749.992 139.842 754.031 136.668 759.609 136.668ZM759.609 141.236C757.253 141.236 755.666 142.39 755.666 144.458C755.666 146.526 757.253 147.68 759.609 147.68C761.917 147.68 763.504 146.526 763.504 144.458C763.504 142.39 761.917 141.236 759.609 141.236ZM756.387 126.186H762.686V133.687H756.387V126.186ZM771.822 154.123C781.343 154.123 787.113 157.008 787.113 162.201C787.113 167.346 781.343 170.28 771.822 170.28C762.254 170.28 756.483 167.346 756.483 162.201C756.483 157.008 762.254 154.123 771.822 154.123ZM771.822 158.883C765.86 158.883 762.879 159.893 762.879 162.201C762.879 164.461 765.86 165.519 771.822 165.519C777.737 165.519 780.718 164.461 780.718 162.201C780.718 159.893 777.737 158.883 771.822 158.883ZM8.06714 224H0.144064L12.2165 189.029H21.7447L33.8 224H25.877L17.1172 197.021H16.844L8.06714 224ZM7.57194 210.254H26.2868V216.026H7.57194V210.254ZM46.8455 189.029V224H39.4517V189.029H46.8455ZM70.539 203.612H101.842V208.709H70.539V203.612ZM65.8748 218.037H106.17V223.279H65.8748V218.037ZM82.7525 205.92H89.1478V219.72H82.7525V205.92ZM70.539 186.782H101.506V191.927H76.9343V205.824H70.539V186.782ZM111.504 208.661H151.847V213.806H111.504V208.661ZM128.333 211.979H134.68V228.328H128.333V211.979ZM131.555 185.244C141.076 185.244 147.663 189.187 147.663 195.293C147.663 201.352 141.076 205.247 131.555 205.247C122.082 205.247 115.495 201.352 115.495 195.293C115.495 189.187 122.082 185.244 131.555 185.244ZM131.555 190.341C125.737 190.341 122.034 192.072 122.034 195.293C122.034 198.467 125.737 200.198 131.555 200.198C137.421 200.198 141.076 198.467 141.076 195.293C141.076 192.072 137.421 190.341 131.555 190.341ZM159.392 187.744H180.79V217.701H159.392V187.744ZM174.539 192.745H165.691V212.652H174.539V192.745ZM187.714 183.705H194.158V228.376H187.714V183.705ZM217.929 201.448H221.824C231.585 201.448 236.827 201.256 242.597 200.102L243.222 205.151C237.307 206.401 231.874 206.641 221.824 206.641H217.929V201.448ZM217.929 186.446H239.038V191.495H224.276V204.814H217.929V186.446ZM246.011 183.753H252.454V207.843H246.011V183.753ZM222.834 209.815H229.133V213.902H246.107V209.815H252.454V227.799H222.834V209.815ZM229.133 218.855V222.702H246.107V218.855H229.133ZM263.606 201.448H267.501C277.262 201.448 282.503 201.256 288.274 200.102L288.899 205.151C282.984 206.401 277.551 206.641 267.501 206.641H263.606V201.448ZM263.606 186.446H284.715V191.495H269.953V204.814H263.606V186.446ZM291.688 183.753H298.131V207.843H291.688V183.753ZM268.511 209.815H274.81V213.902H291.784V209.815H298.131V227.799H268.511V209.815ZM274.81 218.855V222.702H291.784V218.855H274.81ZM337.316 183.705H343.76V228.376H337.316V183.705ZM319.765 186.83C326.497 186.83 331.45 192.985 331.45 202.698C331.45 212.508 326.497 218.663 319.765 218.663C313.034 218.663 308.081 212.508 308.081 202.698C308.081 192.985 313.034 186.83 319.765 186.83ZM319.765 192.649C316.448 192.649 314.188 196.159 314.188 202.698C314.188 209.334 316.448 212.892 319.765 212.892C323.083 212.892 325.295 209.334 325.295 202.698C325.295 196.159 323.083 192.649 319.765 192.649ZM473.669 203.612H504.972V208.709H473.669V203.612ZM469.004 218.037H509.299V223.279H469.004V218.037ZM485.882 205.92H492.277V219.72H485.882V205.92ZM473.669 186.782H504.635V191.927H480.064V205.824H473.669V186.782ZM531.559 206.93H537.954V213.998H531.559V206.93ZM534.781 184.378C544.59 184.378 550.889 187.6 550.889 192.985C550.889 198.323 544.59 201.496 534.781 201.496C524.971 201.496 518.672 198.323 518.672 192.985C518.672 187.6 524.971 184.378 534.781 184.378ZM534.781 189.235C528.674 189.235 525.26 190.485 525.26 192.985C525.26 195.438 528.674 196.64 534.781 196.64C540.839 196.64 544.301 195.438 544.301 192.985C544.301 190.485 540.839 189.235 534.781 189.235ZM519.297 212.604H550.072V227.799H519.297V212.604ZM543.821 217.653H525.596V222.75H543.821V217.653ZM514.633 203.756H554.88V208.853H514.633V203.756Z" fill="white"/>
</svg>
