<svg width="647" height="294" viewBox="0 0 647 294" fill="none" xmlns="http://www.w3.org/2000/svg">
<path d="M119.618 14.9H130.218V25.3C130.218 46.7 121.518 67.6 104.118 75.5L96.6184 65C112.118 58.1 119.618 41 119.618 25.3V14.9ZM122.618 14.9H133.118V25.3C133.118 40.3 140.518 56.3 156.018 62.7L148.818 73.2C131.218 65.6 122.618 45.9 122.618 25.3V14.9ZM100.318 9.2H152.218V20.1H100.318V9.2ZM160.818 0.299999H174.218V92.9H160.818V0.299999ZM202.611 4.39999H261.311V15H202.611V4.39999ZM192.411 37.7H276.211V48.3H192.411V37.7ZM253.311 4.39999H266.411V11.8C266.411 19.8 266.411 28.4 263.611 40.4L250.411 40.2C253.311 28.2 253.311 19.7 253.311 11.8V4.39999ZM202.211 58H266.011V91.9H202.211V58ZM252.911 68.3H215.211V81.4H252.911V68.3ZM313.547 71.4H397.347V82.2H313.547V71.4ZM348.647 50.9H361.947V73.9H348.647V50.9ZM322.247 7.09999H388.147V52.6H322.247V7.09999ZM375.147 17.7H335.347V42.1H375.147V17.7ZM474.739 0.299999H487.339V58.3H474.739V0.299999ZM463.439 23.1H478.239V33.9H463.439V23.1ZM455.539 2.09999H467.939V55.3H455.539V2.09999ZM408.039 9.8H452.939V20H408.039V9.8ZM430.639 23C442.239 23 450.639 29.6 450.639 39.2C450.639 48.8 442.239 55.3 430.639 55.3C419.039 55.3 410.639 48.8 410.639 39.2C410.639 29.6 419.039 23 430.639 23ZM430.639 32.5C425.739 32.5 422.439 34.9 422.439 39.2C422.439 43.5 425.739 45.9 430.639 45.9C435.439 45.9 438.739 43.5 438.739 39.2C438.739 34.9 435.439 32.5 430.639 32.5ZM423.939 1.19999H437.039V16.8H423.939V1.19999ZM456.039 59.3C475.839 59.3 487.839 65.3 487.839 76.1C487.839 86.8 475.839 92.9 456.039 92.9C436.139 92.9 424.139 86.8 424.139 76.1C424.139 65.3 436.139 59.3 456.039 59.3ZM456.039 69.2C443.639 69.2 437.439 71.3 437.439 76.1C437.439 80.8 443.639 83 456.039 83C468.339 83 474.539 80.8 474.539 76.1C474.539 71.3 468.339 69.2 456.039 69.2ZM518.466 62.196V60.9886C518.489 56.8456 518.856 53.5431 519.567 51.081C520.3 48.6188 521.366 46.6302 522.763 45.1151C524.159 43.5999 525.84 42.2268 527.805 40.9957C529.273 40.0488 530.587 39.0663 531.747 38.0483C532.907 37.0303 533.83 35.9058 534.517 34.6747C535.203 33.42 535.547 32.0232 535.547 30.4844C535.547 28.8509 535.156 27.4186 534.375 26.1875C533.594 24.9564 532.54 24.0095 531.214 23.3466C529.912 22.6837 528.468 22.3523 526.882 22.3523C525.343 22.3523 523.887 22.6955 522.514 23.3821C521.141 24.045 520.016 25.0393 519.14 26.3651C518.265 27.6671 517.791 29.2888 517.72 31.2301H503.231C503.35 26.4953 504.486 22.589 506.64 19.5114C508.795 16.41 511.648 14.1018 515.199 12.5866C518.75 11.0478 522.668 10.2784 526.953 10.2784C531.664 10.2784 535.831 11.0597 539.453 12.6222C543.075 14.161 545.916 16.3982 547.976 19.3338C550.035 22.2694 551.065 25.8087 551.065 29.9517C551.065 32.7216 550.604 35.1837 549.68 37.3381C548.781 39.4687 547.514 41.3627 545.881 43.0199C544.247 44.6534 542.318 46.133 540.092 47.4588C538.222 48.5715 536.683 49.7315 535.476 50.9389C534.292 52.1463 533.404 53.5431 532.812 55.1293C532.244 56.7154 531.948 58.6686 531.925 60.9886V62.196H518.466ZM525.497 84.9233C523.13 84.9233 521.105 84.0947 519.425 82.4375C517.767 80.7566 516.951 78.7443 516.974 76.4006C516.951 74.0805 517.767 72.0919 519.425 70.4347C521.105 68.7775 523.13 67.9489 525.497 67.9489C527.746 67.9489 529.723 68.7775 531.427 70.4347C533.132 72.0919 533.996 74.0805 534.02 76.4006C533.996 77.9631 533.582 79.3954 532.777 80.6974C531.996 81.9759 530.966 83.0057 529.687 83.7869C528.409 84.5445 527.012 84.9233 525.497 84.9233ZM2.32617 173.1H86.2262V183.8H2.32617V173.1ZM37.3262 180H50.5262V214H37.3262V180ZM44.0262 124.4C63.8262 124.4 77.5262 132.6 77.5262 145.3C77.5262 157.9 63.8262 166 44.0262 166C24.3262 166 10.6262 157.9 10.6262 145.3C10.6262 132.6 24.3262 124.4 44.0262 124.4ZM44.0262 135C31.9262 135 24.2262 138.6 24.2262 145.3C24.2262 151.9 31.9262 155.5 44.0262 155.5C56.2262 155.5 63.8262 151.9 63.8262 145.3C63.8262 138.6 56.2262 135 44.0262 135ZM161.118 121.2H174.418V214.1H161.118V121.2ZM102.318 181.7H110.518C126.918 181.7 140.018 181.1 154.718 178.6L156.018 189.3C141.018 192 127.418 192.5 110.518 192.5H102.318V181.7ZM102.218 129.1H145.918V164.9H115.818V185.7H102.318V154.4H132.318V139.7H102.218V129.1ZM259.855 140.2H285.055V150.9H259.855V140.2ZM259.855 168.9H285.055V179.6H259.855V168.9ZM243.855 127.7C257.655 127.7 267.755 140.5 267.755 160.7C267.755 181.1 257.655 193.9 243.855 193.9C229.955 193.9 219.955 181.1 219.955 160.7C219.955 140.5 229.955 127.7 243.855 127.7ZM243.855 139.8C237.155 139.8 232.555 147.1 232.555 160.7C232.555 174.5 237.155 181.9 243.855 181.9C250.655 181.9 255.155 174.5 255.155 160.7C255.155 147.1 250.655 139.8 243.855 139.8ZM282.955 121.2H296.155V214.1H282.955V121.2ZM379.747 121.3H392.347V179.3H379.747V121.3ZM368.447 144.1H383.247V154.9H368.447V144.1ZM360.547 123.1H372.947V176.3H360.547V123.1ZM313.047 130.8H357.947V141H313.047V130.8ZM335.647 144C347.247 144 355.647 150.6 355.647 160.2C355.647 169.8 347.247 176.3 335.647 176.3C324.047 176.3 315.647 169.8 315.647 160.2C315.647 150.6 324.047 144 335.647 144ZM335.647 153.5C330.747 153.5 327.447 155.9 327.447 160.2C327.447 164.5 330.747 166.9 335.647 166.9C340.447 166.9 343.747 164.5 343.747 160.2C343.747 155.9 340.447 153.5 335.647 153.5ZM328.947 122.2H342.047V137.8H328.947V122.2ZM361.047 180.3C380.847 180.3 392.847 186.3 392.847 197.1C392.847 207.8 380.847 213.9 361.047 213.9C341.147 213.9 329.147 207.8 329.147 197.1C329.147 186.3 341.147 180.3 361.047 180.3ZM361.047 190.2C348.647 190.2 342.447 192.3 342.447 197.1C342.447 201.8 348.647 204 361.047 204C373.347 204 379.547 201.8 379.547 197.1C379.547 192.3 373.347 190.2 361.047 190.2ZM468.039 121.3H481.339V167.5H468.039V121.3ZM477.639 139.6H493.639V150.5H477.639V139.6ZM441.539 124.7H456.239C456.239 149.4 440.639 164.3 412.739 170L407.939 159.1C431.439 154.8 441.539 144.2 441.539 132.6V124.7ZM412.539 124.7H450.039V135.3H412.539V124.7ZM420.139 171.1H481.339V196.7H433.539V207.9H420.339V186.9H468.239V181.5H420.139V171.1ZM420.339 202.6H484.039V213H420.339V202.6ZM505.932 182.5H512.432C523.432 182.5 533.132 182.3 544.532 180.5L545.532 191.2C533.732 193.2 523.732 193.5 512.432 193.5H505.932V182.5ZM505.832 130.3H540.932V166.1H518.832V186.5H505.932V155.6H528.032V140.9H505.832V130.3ZM570.332 121.3H582.932V213.9H570.332V121.3ZM557.932 156.3H573.332V166.9H557.932V156.3ZM549.632 122.9H561.932V209.5H549.632V122.9ZM613.458 183.196V181.989C613.482 177.846 613.849 174.543 614.559 172.081C615.293 169.619 616.358 167.63 617.755 166.115C619.152 164.6 620.832 163.227 622.797 161.996C624.265 161.049 625.579 160.066 626.739 159.048C627.899 158.03 628.823 156.906 629.509 155.675C630.196 154.42 630.539 153.023 630.539 151.484C630.539 149.851 630.148 148.419 629.367 147.188C628.586 145.956 627.532 145.009 626.206 144.347C624.904 143.684 623.46 143.352 621.874 143.352C620.335 143.352 618.879 143.696 617.506 144.382C616.133 145.045 615.009 146.039 614.133 147.365C613.257 148.667 612.783 150.289 612.712 152.23H598.224C598.342 147.495 599.478 143.589 601.633 140.511C603.787 137.41 606.64 135.102 610.191 133.587C613.742 132.048 617.66 131.278 621.945 131.278C626.656 131.278 630.823 132.06 634.445 133.622C638.067 135.161 640.908 137.398 642.968 140.334C645.028 143.269 646.057 146.809 646.057 150.952C646.057 153.722 645.596 156.184 644.672 158.338C643.773 160.469 642.506 162.363 640.873 164.02C639.239 165.653 637.31 167.133 635.084 168.459C633.214 169.571 631.675 170.732 630.468 171.939C629.284 173.146 628.396 174.543 627.805 176.129C627.236 177.715 626.94 179.669 626.917 181.989V183.196H613.458ZM620.489 205.923C618.122 205.923 616.098 205.095 614.417 203.438C612.76 201.757 611.943 199.744 611.966 197.401C611.943 195.08 612.76 193.092 614.417 191.435C616.098 189.777 618.122 188.949 620.489 188.949C622.738 188.949 624.715 189.777 626.42 191.435C628.124 193.092 628.988 195.08 629.012 197.401C628.988 198.963 628.574 200.395 627.769 201.697C626.988 202.976 625.958 204.006 624.68 204.787C623.401 205.545 622.004 205.923 620.489 205.923Z" fill="black"/>
<path d="M9.80844 262.12H12.4884V268C12.4884 275.64 7.88844 283.32 2.12844 286.16L0.208444 283.52C5.44844 281.04 9.80844 274.24 9.80844 268V262.12ZM10.4484 262.12H13.1284V268C13.1284 274.12 17.4884 280.36 22.8084 282.64L20.9284 285.28C15.0884 282.56 10.4484 275.52 10.4484 268V262.12ZM1.40844 260.64H21.6084V263.44H1.40844V260.64ZM26.4884 256.96H29.8084V293.12H26.4884V256.96ZM42.4053 258.84H65.6853V261.56H42.4053V258.84ZM38.2453 272.16H71.0053V274.88H38.2453V272.16ZM63.5253 258.84H66.7653V261.52C66.7653 264.6 66.7653 268.12 65.5653 273.12L62.3253 272.96C63.5253 268 63.5253 264.52 63.5253 261.52V258.84ZM42.2453 279.8H66.8853V292.64H42.2453V279.8ZM63.6453 282.44H45.4853V289.96H63.6453V282.44ZM112.468 256.96H115.828V293.12H112.468V256.96ZM115.028 271.16H121.748V274H115.028V271.16ZM89.4281 260H92.7081V269.56H103.028V260H106.308V284.44H89.4281V260ZM92.7081 272.2V281.72H103.028V272.2H92.7081ZM126.025 285.92H158.785V288.68H126.025V285.92ZM140.665 278.16H143.985V287.08H140.665V278.16ZM129.985 259.64H154.745V270.6H133.385V277.84H130.105V267.92H151.465V262.32H129.985V259.64ZM130.105 276.44H155.585V279.16H130.105V276.44ZM177.004 260.909H182.331L191.592 283.523H191.933L201.194 260.909H206.521V290H202.345V268.949H202.075L193.495 289.957H190.029L181.45 268.935H181.18V290H177.004V260.909ZM239.372 275.455C239.372 278.561 238.804 281.231 237.668 283.466C236.531 285.691 234.973 287.405 232.994 288.608C231.025 289.801 228.785 290.398 226.276 290.398C223.757 290.398 221.508 289.801 219.528 288.608C217.559 287.405 216.006 285.687 214.869 283.452C213.733 281.217 213.165 278.551 213.165 275.455C213.165 272.348 213.733 269.683 214.869 267.457C216.006 265.223 217.559 263.509 219.528 262.315C221.508 261.113 223.757 260.511 226.276 260.511C228.785 260.511 231.025 261.113 232.994 262.315C234.973 263.509 236.531 265.223 237.668 267.457C238.804 269.683 239.372 272.348 239.372 275.455ZM235.026 275.455C235.026 273.087 234.642 271.094 233.875 269.474C233.117 267.846 232.076 266.615 230.75 265.781C229.434 264.938 227.942 264.517 226.276 264.517C224.599 264.517 223.103 264.938 221.787 265.781C220.471 266.615 219.429 267.846 218.662 269.474C217.904 271.094 217.526 273.087 217.526 275.455C217.526 277.822 217.904 279.82 218.662 281.449C219.429 283.068 220.471 284.299 221.787 285.142C223.103 285.975 224.599 286.392 226.276 286.392C227.942 286.392 229.434 285.975 230.75 285.142C232.076 284.299 233.117 283.068 233.875 281.449C234.642 279.82 235.026 277.822 235.026 275.455ZM246.044 290V260.909H250.434V273.551H264.937V260.909H269.34V290H264.937V277.315H250.434V290H246.044ZM279.389 290H274.73L285.199 260.909H290.27L300.739 290H296.08L287.855 266.193H287.628L279.389 290ZM280.171 278.608H295.284V282.301H280.171V278.608ZM329.62 260.909V290H325.586L310.799 268.665H310.529V290H306.14V260.909H310.202L325.003 282.273H325.273V260.909H329.62ZM356.91 270.099C356.635 269.238 356.266 268.466 355.802 267.784C355.348 267.093 354.803 266.506 354.169 266.023C353.534 265.53 352.81 265.156 351.995 264.901C351.19 264.645 350.305 264.517 349.339 264.517C347.701 264.517 346.224 264.938 344.907 265.781C343.591 266.624 342.549 267.86 341.782 269.489C341.025 271.108 340.646 273.092 340.646 275.44C340.646 277.798 341.029 279.792 341.796 281.42C342.564 283.049 343.615 284.285 344.95 285.128C346.285 285.971 347.805 286.392 349.51 286.392C351.091 286.392 352.469 286.07 353.643 285.426C354.827 284.782 355.741 283.873 356.385 282.699C357.038 281.515 357.365 280.123 357.365 278.523L358.501 278.736H350.177V275.114H361.612V278.423C361.612 280.866 361.091 282.988 360.049 284.787C359.017 286.577 357.587 287.959 355.76 288.935C353.941 289.91 351.858 290.398 349.51 290.398C346.877 290.398 344.566 289.792 342.578 288.58C340.599 287.367 339.055 285.649 337.947 283.423C336.839 281.188 336.285 278.537 336.285 275.469C336.285 273.149 336.607 271.065 337.251 269.219C337.895 267.372 338.799 265.805 339.964 264.517C341.138 263.22 342.516 262.23 344.098 261.548C345.689 260.857 347.426 260.511 349.311 260.511C350.883 260.511 352.346 260.743 353.7 261.207C355.064 261.671 356.276 262.33 357.336 263.182C358.406 264.034 359.292 265.047 359.992 266.222C360.693 267.386 361.167 268.679 361.413 270.099H356.91ZM383.508 257.56C391.468 257.56 396.228 259.8 396.228 263.84C396.228 267.88 391.468 270.12 383.508 270.12C375.508 270.12 370.788 267.88 370.788 263.84C370.788 259.8 375.508 257.56 383.508 257.56ZM383.508 260.08C377.588 260.08 374.188 261.44 374.188 263.84C374.188 266.24 377.588 267.6 383.508 267.6C389.388 267.6 392.788 266.24 392.788 263.84C392.788 261.44 389.388 260.08 383.508 260.08ZM367.148 272.52H399.828V275.2H367.148V272.52ZM371.108 278.28H395.668V286.44H374.468V290.84H371.188V284.04H392.388V280.84H371.108V278.28ZM371.188 290.12H396.748V292.72H371.188V290.12ZM426.49 260.08H429.21V266.56C429.21 274.88 424.73 282.6 418.81 285.6L416.77 282.88C422.13 280.32 426.49 273.4 426.49 266.56V260.08ZM427.05 260.08H429.77V266.56C429.77 273.16 434.09 279.8 439.45 282.28L437.45 284.92C431.57 282.04 427.05 274.6 427.05 266.56V260.08ZM443.21 256.92H446.53V293.16H443.21V256.92ZM463.847 260.68H466.567V263.6C466.567 270.24 462.567 275.76 456.527 277.92L454.767 275.32C460.247 273.4 463.847 268.76 463.847 263.6V260.68ZM464.447 260.68H467.167V263.56C467.167 268.36 470.647 272.8 475.967 274.6L474.247 277.2C468.287 275.12 464.447 269.8 464.447 263.56V260.68ZM455.807 259.48H475.127V262.2H455.807V259.48ZM479.687 256.96H483.007V278.72H479.687V256.96ZM482.087 266.48H488.367V269.24H482.087V266.48ZM459.527 280.64H483.007V293.12H479.687V283.4H459.527V280.64ZM492.884 263.12H510.804V265.84H492.884V263.12ZM501.844 268.24C506.364 268.24 509.644 271.64 509.644 276.52C509.644 281.36 506.364 284.76 501.844 284.76C497.364 284.76 494.084 281.36 494.084 276.52C494.084 271.64 497.364 268.24 501.844 268.24ZM501.844 271.08C499.084 271.08 497.084 273.32 497.084 276.52C497.084 279.72 499.084 281.96 501.844 281.96C504.644 281.96 506.684 279.72 506.684 276.52C506.684 273.32 504.644 271.08 501.844 271.08ZM520.364 256.96H523.564V293.12H520.364V256.96ZM514.604 272.16H521.444V274.92H514.604V272.16ZM512.644 257.76H515.764V291.36H512.644V257.76ZM500.244 258H503.524V264.8H500.244V258ZM530.961 285.76H563.721V288.52H530.961V285.76ZM545.601 277.12H548.921V286.56H545.601V277.12ZM534.801 259.52H538.081V265.96H556.521V259.52H559.801V278H534.801V259.52ZM538.081 268.64V275.28H556.521V268.64H538.081ZM583.198 269.88H590.118V272.64H583.198V269.88ZM576.438 260.36H579.038V267.24C579.038 274.8 575.878 282.12 570.598 285.36L568.518 282.84C573.478 279.92 576.438 273.44 576.438 267.24V260.36ZM577.078 260.36H579.638V267.12C579.638 272.92 582.358 279.08 587.118 281.96L585.198 284.56C579.998 281.36 577.078 274.16 577.078 267.12V260.36ZM596.478 256.96H599.678V293.12H596.478V256.96ZM589.158 257.72H592.278V291.32H589.158V257.72ZM614.955 275.56H618.235V286.4H614.955V275.56ZM628.315 275.56H631.635V286.4H628.315V275.56ZM606.955 285.76H639.715V288.52H606.955V285.76ZM623.275 259.24C630.915 259.24 636.395 262.88 636.395 268.56C636.395 274.2 630.915 277.84 623.275 277.84C615.595 277.84 610.115 274.2 610.115 268.56C610.115 262.88 615.595 259.24 623.275 259.24ZM623.275 261.88C617.475 261.88 613.315 264.52 613.315 268.56C613.315 272.56 617.475 275.2 623.275 275.2C629.075 275.2 633.195 272.56 633.195 268.56C633.195 264.52 629.075 261.88 623.275 261.88Z" fill="black"/>
</svg>
