<svg width="32" height="32" viewBox="0 0 32 32" fill="none" xmlns="http://www.w3.org/2000/svg">
<mask id="path-1-inside-1_1409_1012" fill="white">
<path d="M30.621 32.0039L18.3898 19.7727C17.4132 20.6048 16.2901 21.2487 15.0204 21.7045C13.7508 22.1602 12.4747 22.3881 11.1921 22.3881C8.06429 22.3881 5.417 21.3053 3.2502 19.1398C1.0834 16.9743 0 14.3277 0 11.1999C0 8.07211 1.0821 5.42416 3.24629 3.25606C5.41049 1.08796 8.05648 0.00260901 11.1843 4.68404e-06C14.3121 -0.00259964 16.9607 1.0808 19.1301 3.2502C21.2995 5.41961 22.3842 8.06755 22.3842 11.194C22.3842 12.5509 22.1439 13.8641 21.6634 15.1337C21.1829 16.4033 20.5514 17.4894 19.7688 18.3918L32 30.621L30.621 32.0039ZM11.194 20.4329C13.7853 20.4329 15.973 19.5409 17.7569 17.7569C19.5409 15.973 20.4329 13.7847 20.4329 11.1921C20.4329 8.59949 19.5409 6.41185 17.7569 4.62919C15.973 2.84653 13.7853 1.95455 11.194 1.95325C8.60274 1.95195 6.41445 2.84393 4.62919 4.62919C2.84392 6.41446 1.95194 8.60209 1.95324 11.1921C1.95455 13.7821 2.84653 15.9697 4.62919 17.755C6.41185 19.5403 8.59948 20.4322 11.1921 20.4309"/>
</mask>
<path d="M30.621 32.0039L18.3898 19.7727C17.4132 20.6048 16.2901 21.2487 15.0204 21.7045C13.7508 22.1602 12.4747 22.3881 11.1921 22.3881C8.06429 22.3881 5.417 21.3053 3.2502 19.1398C1.0834 16.9743 0 14.3277 0 11.1999C0 8.07211 1.0821 5.42416 3.24629 3.25606C5.41049 1.08796 8.05648 0.00260901 11.1843 4.68404e-06C14.3121 -0.00259964 16.9607 1.0808 19.1301 3.2502C21.2995 5.41961 22.3842 8.06755 22.3842 11.194C22.3842 12.5509 22.1439 13.8641 21.6634 15.1337C21.1829 16.4033 20.5514 17.4894 19.7688 18.3918L32 30.621L30.621 32.0039ZM11.194 20.4329C13.7853 20.4329 15.973 19.5409 17.7569 17.7569C19.5409 15.973 20.4329 13.7847 20.4329 11.1921C20.4329 8.59949 19.5409 6.41185 17.7569 4.62919C15.973 2.84653 13.7853 1.95455 11.194 1.95325C8.60274 1.95195 6.41445 2.84393 4.62919 4.62919C2.84392 6.41446 1.95194 8.60209 1.95324 11.1921C1.95455 13.7821 2.84653 15.9697 4.62919 17.755C6.41185 19.5403 8.59948 20.4322 11.1921 20.4309" fill="#3619CC"/>
<path d="M30.621 32.0039L29.2068 33.4181L30.623 34.8343L32.0372 33.4161L30.621 32.0039ZM18.3898 19.7727L19.804 18.3585L18.4983 17.0528L17.0927 18.2503L18.3898 19.7727ZM11.1921 22.3881V20.3881V22.3881ZM19.7688 18.3918L18.2578 17.0814L17.0372 18.4888L18.3547 19.8061L19.7688 18.3918ZM32 30.621L33.4162 32.0332L34.8265 30.6189L33.4141 29.2067L32 30.621ZM32.0352 30.5897L19.804 18.3585L16.9756 21.1869L29.2068 33.4181L32.0352 30.5897ZM17.0927 18.2503C16.3091 18.918 15.399 19.4436 14.3447 19.8221L15.6962 23.5868C17.1811 23.0538 18.5172 22.2916 19.6869 21.2951L17.0927 18.2503ZM14.3447 19.8221C13.2806 20.2041 12.2327 20.3881 11.1921 20.3881V24.3881C12.7168 24.3881 14.2211 24.1164 15.6962 23.5868L14.3447 19.8221ZM11.1921 20.3881C8.58202 20.3881 6.447 19.5071 4.66399 17.7252L1.83641 20.5545C4.38699 23.1035 7.54656 24.3881 11.1921 24.3881V20.3881ZM4.66399 17.7252C2.88128 15.9436 2 13.8096 2 11.1999H-2C-2 14.8458 -0.714476 18.0051 1.83641 20.5545L4.66399 17.7252ZM2 11.1999C2 8.58944 2.88061 6.45339 4.66178 4.669L1.8308 1.84312C-0.716412 4.39494 -2 7.55479 -2 11.1999H2ZM4.66178 4.669C6.44246 2.8851 8.57613 2.00218 11.1859 2L11.1826 -1.99999C7.53684 -1.99696 4.37851 -0.709178 1.8308 1.84312L4.66178 4.669ZM11.1859 2C13.7943 1.99783 15.9301 2.87862 17.7159 4.66442L20.5443 1.83599C17.9913 -0.717025 14.8298 -2.00303 11.1826 -1.99999L11.1859 2ZM17.7159 4.66442C19.5022 6.4508 20.3842 8.58664 20.3842 11.194H24.3842C24.3842 7.54847 23.0967 4.38841 20.5443 1.83599L17.7159 4.66442ZM20.3842 11.194C20.3842 12.3089 20.1878 13.3823 19.7929 14.4258L23.534 15.8417C24.1 14.346 24.3842 12.7929 24.3842 11.194H20.3842ZM19.7929 14.4258C19.3846 15.5047 18.8665 16.3796 18.2578 17.0814L21.2797 19.7021C22.2363 18.5991 22.9813 17.302 23.534 15.8417L19.7929 14.4258ZM18.3547 19.8061L30.5859 32.0353L33.4141 29.2067L21.1829 16.9774L18.3547 19.8061ZM30.5838 29.2088L29.2048 30.5917L32.0372 33.4161L33.4162 32.0332L30.5838 29.2088ZM11.194 22.4329C14.2997 22.4329 17.0009 21.3414 19.1712 19.1712L16.3427 16.3427C14.9451 17.7404 13.271 18.4329 11.194 18.4329V22.4329ZM19.1712 19.1712C21.3416 17.0007 22.4329 14.2987 22.4329 11.1921H18.4329C18.4329 13.2707 17.7402 14.9453 16.3427 16.3427L19.1712 19.1712ZM22.4329 11.1921C22.4329 8.08543 21.3416 5.38383 19.1706 3.21446L16.3432 6.04392C17.7402 7.43988 18.4329 9.11354 18.4329 11.1921H22.4329ZM19.1706 3.21446C17.0005 1.04593 14.2999 -0.0451907 11.195 -0.0467509L11.193 3.95325C13.2708 3.95429 14.9454 4.64714 16.3432 6.04392L19.1706 3.21446ZM11.195 -0.0467509C8.08863 -0.0483119 5.3865 1.04346 3.21498 3.21498L6.0434 6.04341C7.44241 4.6444 9.11685 3.95221 11.193 3.95325L11.195 -0.0467509ZM3.21498 3.21498C1.04367 5.38629 -0.0483167 8.08768 -0.0467554 11.1931L3.95324 11.1911C3.9522 9.1165 4.64418 7.44263 6.0434 6.04341L3.21498 3.21498ZM-0.0467554 11.1931C-0.0451949 14.2969 1.0461 16.9972 3.21394 19.1682L6.04443 16.3418C4.64696 14.9423 3.95429 13.2673 3.95324 11.1911L-0.0467554 11.1931ZM3.21394 19.1682C5.38346 21.3409 8.08564 22.4325 11.1931 22.4309L11.1911 18.4309C9.11333 18.432 7.44024 17.7397 6.04443 16.3418L3.21394 19.1682Z" fill="#3619CC" mask="url(#path-1-inside-1_1409_1012)"/>
</svg>