<svg width="38" height="15" viewBox="0 0 38 15" fill="none" xmlns="http://www.w3.org/2000/svg">
<g clip-path="url(#clip0_935_1516)">
<rect width="15" height="15" fill="white"/>
<path d="M1.875 7.5C1.875 8.23869 2.02049 8.97014 2.30318 9.65259C2.58586 10.3351 3.00019 10.9551 3.52252 11.4775C4.04485 11.9998 4.66495 12.4141 5.34741 12.6968C6.02986 12.9795 6.76131 13.125 7.5 13.125C8.23869 13.125 8.97014 12.9795 9.65259 12.6968C10.3351 12.4141 10.9551 11.9998 11.4775 11.4775C11.9998 10.9551 12.4141 10.3351 12.6968 9.65259C12.9795 8.97014 13.125 8.23869 13.125 7.5C13.125 6.76131 12.9795 6.02986 12.6968 5.34741C12.4141 4.66495 11.9998 4.04485 11.4775 3.52252C10.9551 3.00019 10.3351 2.58586 9.65259 2.30318C8.97014 2.02049 8.23869 1.875 7.5 1.875C6.76131 1.875 6.02986 2.02049 5.34741 2.30318C4.66495 2.58586 4.04485 3.00019 3.52252 3.52252C3.00019 4.04485 2.58586 4.66495 2.30318 5.34741C2.02049 6.02986 1.875 6.76131 1.875 7.5Z" fill="#694CFF" stroke="#1A0606" stroke-opacity="0.5" stroke-width="2" stroke-linecap="round" stroke-linejoin="round"/>
</g>
<g clip-path="url(#clip1_935_1516)">
<rect width="15" height="15" transform="translate(23)" fill="white"/>
<path d="M24.875 7.5C24.875 8.23869 25.0205 8.97014 25.3032 9.65259C25.5859 10.3351 26.0002 10.9551 26.5225 11.4775C27.0449 11.9998 27.6649 12.4141 28.3474 12.6968C29.0299 12.9795 29.7613 13.125 30.5 13.125C31.2387 13.125 31.9701 12.9795 32.6526 12.6968C33.3351 12.4141 33.9551 11.9998 34.4775 11.4775C34.9998 10.9551 35.4141 10.3351 35.6968 9.65259C35.9795 8.97014 36.125 8.23869 36.125 7.5C36.125 6.76131 35.9795 6.02986 35.6968 5.34741C35.4141 4.66495 34.9998 4.04485 34.4775 3.52252C33.9551 3.00019 33.3351 2.58586 32.6526 2.30318C31.9701 2.02049 31.2387 1.875 30.5 1.875C29.7613 1.875 29.0299 2.02049 28.3474 2.30318C27.6649 2.58586 27.0449 3.00019 26.5225 3.52252C26.0002 4.04485 25.5859 4.66495 25.3032 5.34741C25.0205 6.02986 24.875 6.76131 24.875 7.5Z" stroke="#131313" stroke-opacity="0.5" stroke-width="2" stroke-linecap="round" stroke-linejoin="round"/>
</g>
<defs>
<clipPath id="clip0_935_1516">
<rect width="15" height="15" fill="white"/>
</clipPath>
<clipPath id="clip1_935_1516">
<rect width="15" height="15" fill="white" transform="translate(23)"/>
</clipPath>
</defs>
</svg>
