<svg width="71" height="19" viewBox="0 0 71 19" fill="none" xmlns="http://www.w3.org/2000/svg">
<path d="M5.14 11.32H6.82V14.3H5.14V11.32ZM13.06 0.479999H14.72V18.56H13.06V0.479999ZM0.32 15.12L0.1 13.74C3.52 13.72 8.02 13.68 11.92 13.18L12.04 14.4C8.02 15.08 3.66 15.12 0.32 15.12ZM0.48 2.68H11.46V4.02H0.48V2.68ZM5.96 5.06C8.56 5.06 10.32 6.38 10.32 8.4C10.32 10.44 8.56 11.74 5.96 11.74C3.38 11.74 1.62 10.44 1.62 8.4C1.62 6.38 3.38 5.06 5.96 5.06ZM5.96 6.34C4.34 6.34 3.2 7.16 3.2 8.4C3.2 9.64 4.34 10.46 5.96 10.46C7.6 10.46 8.74 9.64 8.74 8.4C8.74 7.16 7.6 6.34 5.96 6.34ZM5.14 0.479999H6.8V3.42H5.14V0.479999ZM23.5184 9.58H25.1784V13.6H23.5184V9.58ZM31.5384 0.479999H33.1984V14.24H31.5384V0.479999ZM20.8584 16.8H33.6384V18.16H20.8584V16.8ZM20.8584 12.9H22.5184V17.18H20.8584V12.9ZM18.5184 10.2L18.2984 8.84C21.6384 8.84 26.1184 8.8 29.9584 8.3L30.0784 9.52C26.1784 10.14 21.7984 10.2 18.5184 10.2ZM27.8584 11.16H31.9584V12.38H27.8584V11.16ZM24.1784 1.22C26.8184 1.22 28.6184 2.46 28.6184 4.36C28.6184 6.28 26.8184 7.52 24.1784 7.52C21.5184 7.52 19.7184 6.28 19.7184 4.36C19.7184 2.46 21.5184 1.22 24.1784 1.22ZM24.1784 2.46C22.4784 2.46 21.2984 3.2 21.2984 4.36C21.2984 5.52 22.4784 6.26 24.1784 6.26C25.8584 6.26 27.0384 5.52 27.0384 4.36C27.0384 3.2 25.8584 2.46 24.1784 2.46ZM49.0169 0.46H50.6969V18.56H49.0169V0.46ZM50.2369 7.8H53.5769V9.18H50.2369V7.8ZM44.3969 2.42H46.0169C46.0169 7.56 43.6569 12.2 37.8169 15.14L36.8969 13.86C41.8969 11.32 44.3969 7.46 44.3969 2.68V2.42ZM37.7369 2.42H45.2569V3.78H37.7369V2.42ZM68.3353 0.479999H70.0153V10.18H68.3353V0.479999ZM58.3553 11.08H59.9953V13.28H68.3753V11.08H70.0153V18.32H58.3553V11.08ZM59.9953 14.6V16.98H68.3753V14.6H59.9953ZM60.3153 1.34C63.0553 1.34 65.0153 3.04 65.0153 5.5C65.0153 7.98 63.0553 9.68 60.3153 9.68C57.5753 9.68 55.5953 7.98 55.5953 5.5C55.5953 3.04 57.5753 1.34 60.3153 1.34ZM60.3153 2.72C58.5153 2.72 57.2153 3.86 57.2153 5.5C57.2153 7.14 58.5153 8.28 60.3153 8.28C62.1153 8.28 63.4153 7.14 63.4153 5.5C63.4153 3.86 62.1153 2.72 60.3153 2.72Z" fill="#0084FF"/>
</svg>
