<svg width="53" height="19" viewBox="0 0 53 19" fill="none" xmlns="http://www.w3.org/2000/svg">
<path d="M1.49012e-08 14.96H16.38V16.34H1.49012e-08V14.96ZM7.32 11.08H8.98V15.54H7.32V11.08ZM1.98 1.82H14.36V7.3H3.68V10.92H2.04V5.96H12.72V3.16H1.98V1.82ZM2.04 10.22H14.78V11.58H2.04V10.22ZM20.1584 2.4H31.7984V3.74H20.1584V2.4ZM18.3984 14.54H34.7384V15.92H18.3984V14.54ZM30.9184 2.4H32.5384V4.2C32.5384 6.52 32.5384 9.1 31.8584 13L30.1984 12.84C30.9184 9.14 30.9184 6.44 30.9184 4.2V2.4ZM49.9369 0.499999H51.6169V13.7H49.9369V0.499999ZM39.9969 16.8H52.1569V18.16H39.9969V16.8ZM39.9969 12.34H41.6369V17.26H39.9969V12.34ZM41.9169 1.74C44.6169 1.74 46.6169 3.58 46.6169 6.2C46.6169 8.8 44.6169 10.66 41.9169 10.66C39.2169 10.66 37.1969 8.8 37.1969 6.2C37.1969 3.58 39.2169 1.74 41.9169 1.74ZM41.9169 3.18C40.1569 3.18 38.8169 4.42 38.8169 6.2C38.8169 7.96 40.1569 9.2 41.9169 9.2C43.6769 9.2 45.0169 7.96 45.0169 6.2C45.0169 4.42 43.6769 3.18 41.9169 3.18Z" fill="black"/>
</svg>
