x <svg width="1920" height="116" viewBox="0 0 1920 116" fill="none" xmlns="http://www.w3.org/2000/svg">
<mask id="path-1-inside-1_338_487" fill="white">
<path d="M0 0H1920V116H0V0Z"/>
</mask>
<path d="M0 0H1920V116H0V0Z" fill="white"/>
<path d="M1920 115H0V117H1920V115Z" fill="#C2C2C2" mask="url(#path-1-inside-1_338_487)"/>
<g filter="url(#filter0_d_338_487)">
<path d="M108.884 55.3323L103.388 65.3383C102.586 66.6724 101.584 67.3395 100.382 67.3395C99.2078 67.3395 98.2201 66.6354 97.4185 65.2271L91.8358 55.3323V71.0825H85.8667V44.6962H91.7499L100.382 59.9276L108.97 44.6962H114.853V71.0825H108.884V55.3323ZM144.379 56.6664V58.6676C144.379 63.0897 143.406 66.3018 141.459 68.303C139.541 70.3042 136.449 71.3049 132.183 71.3049C127.917 71.3049 124.826 70.3042 122.907 68.303C121.018 66.3018 120.073 63.0526 120.073 58.5564V56.6293C120.073 52.5278 121.032 49.4769 122.95 47.4757C124.897 45.4745 127.96 44.4739 132.14 44.4739C136.349 44.4739 139.441 45.4865 141.416 47.5127C143.391 49.5385 144.379 52.5899 144.379 56.6664ZM138.41 58.5564V57.1852C138.41 54.8134 138.066 52.9234 137.379 51.5152C136.578 49.8845 134.86 49.0692 132.226 49.0692C129.564 49.0692 127.832 49.8845 127.03 51.5152C126.372 52.8493 126.042 54.7393 126.042 57.1852V58.5564C126.042 61.7435 126.558 63.893 127.588 65.0048C127.989 65.474 128.576 65.8817 129.349 66.2277C130.151 66.5487 131.095 66.7095 132.183 66.7095C133.3 66.7095 134.244 66.5487 135.017 66.2277C135.79 65.9062 136.392 65.5111 136.821 65.0418C137.251 64.5721 137.58 63.9546 137.809 63.1888C138.21 61.9779 138.41 60.4339 138.41 58.5564Z" fill="#3619CC"/>
<path d="M178.16 71.0823H172.191V60.4092H160.982V71.0823H155.013V44.696H160.982V55.8509H172.191V44.696H178.16V71.0823ZM208.889 71.0823H202.662L200.945 66.5239H190.681L189.006 71.0823H182.78L192.571 46.9196C193 46.0792 193.472 45.4988 193.988 45.1778C194.532 44.8562 195.19 44.696 195.963 44.696C196.736 44.696 197.351 44.8442 197.81 45.1407C198.296 45.4372 198.726 46.0301 199.098 46.9196L208.889 71.0823ZM199.57 62.188L195.963 51.7373L192.184 62.188H199.57ZM237.777 44.696V68.414C237.777 69.2293 237.491 69.9334 236.918 70.5264C236.345 71.0943 235.673 71.3787 234.9 71.3787C232.924 71.3787 231.307 70.3901 230.047 68.414L219.483 54.1461V71.0823H213.514V44.696H219.268L231.808 61.9656V44.696H237.777ZM242.939 58.6674V55.4061C242.939 51.9716 243.984 49.2913 246.074 47.3643C248.164 45.4372 251.056 44.4736 254.749 44.4736C258.442 44.4736 261.405 45.4372 263.638 47.3643C265.213 48.7229 266 50.7612 266 53.4791H260.417C260.417 50.5388 258.6 49.069 254.963 49.069C253.876 49.069 252.945 49.2543 252.172 49.6249C251.428 49.9704 250.87 50.3781 250.497 50.8478C250.125 51.3171 249.839 52.0087 249.638 52.9232C249.438 53.8371 249.324 54.6028 249.295 55.2208C249.266 55.8383 249.252 56.6662 249.252 57.7038C249.252 58.7415 249.252 59.4456 249.252 59.8162C249.281 60.1618 249.324 60.7427 249.381 61.558C249.467 62.3483 249.582 62.9167 249.724 63.2627C249.896 63.6083 250.125 64.053 250.411 64.5969C250.726 65.1402 251.113 65.5233 251.571 65.7457C252.745 66.3877 254.076 66.7092 255.565 66.7092C258.055 66.7092 259.816 65.7948 260.847 63.9669V62.188H257.153V57.8891H265.957V65.8569C265.07 67.6603 263.667 69.0189 261.748 69.9334C259.83 70.8474 257.655 71.3046 255.221 71.3046C250.898 71.3046 247.763 70.2669 245.816 68.1916C243.898 66.0913 242.939 62.9167 242.939 58.6674Z" fill="#291399"/>
<mask id="mask0_338_487" style="mask-type:luminance" maskUnits="userSpaceOnUse" x="20" y="35" width="53" height="46">
<path d="M72.9861 35H20V80.726H72.9861V35Z" fill="white"/>
</mask>
<g mask="url(#mask0_338_487)">
<path d="M28.8779 50.5142L37.0326 52.5458L45.9955 46.9282L33.1325 47.2464C33.0063 47.2512 32.8839 47.285 32.7779 47.3443L28.7077 49.3637C28.5811 49.4243 28.4785 49.5162 28.413 49.6276C28.3476 49.7391 28.3225 49.8648 28.3408 49.9887C28.3591 50.1127 28.4201 50.229 28.5158 50.3227C28.6116 50.4163 28.7377 50.483 28.8779 50.5142Z" fill="#7559FF"/>
<path d="M68.9699 44.2229L60.0353 42.5584C59.2839 42.4177 58.5062 42.418 57.7549 42.5595C57.0037 42.701 56.2965 42.9803 55.6815 43.3784L28.6933 60.3046L22.2121 60.0598C21.8409 60.0488 21.4751 60.1389 21.1663 60.3171C20.8576 60.4954 20.6215 60.7528 20.4914 61.053C20.3613 61.3533 20.3438 61.6811 20.4414 61.9904C20.5389 62.2997 20.7466 62.5748 21.035 62.7768L27.346 67.0971C27.4499 67.1695 27.5735 67.2175 27.7051 67.2368C27.8367 67.2561 27.9719 67.2459 28.0976 67.2072C29.8987 66.6075 36.6067 63.5355 44.5344 59.7783L46.1228 73.8651C46.1363 73.9871 46.1881 74.1035 46.2727 74.2021C46.3572 74.3005 46.4714 74.3771 46.6028 74.4238C46.734 74.4704 46.8777 74.4851 47.0181 74.4664C47.1584 74.4478 47.2902 74.3964 47.3992 74.3178L50.9446 71.7722C51.1387 71.6318 51.2693 71.4368 51.3135 71.2216L54.6746 54.9562C60.3472 52.2392 65.7648 49.6079 69.5797 47.7477C69.9757 47.5617 70.2958 47.2753 70.4968 46.9271C70.6976 46.579 70.7698 46.1859 70.7031 45.8012C70.6366 45.4165 70.4347 45.0588 70.1245 44.7765C69.8146 44.4942 69.4115 44.3009 68.9699 44.2229Z" fill="#3619CC"/>
<path d="M68.9699 44.2229L60.0353 42.5584C59.2839 42.4177 58.5062 42.418 57.7549 42.5595C57.0037 42.701 56.2965 42.9803 55.6815 43.3784L28.6933 60.3046L22.2121 60.0598C21.8409 60.0488 21.4751 60.1389 21.1663 60.3171C20.8576 60.4954 20.6215 60.7528 20.4914 61.053C20.3613 61.3533 20.3438 61.6811 20.4414 61.9904C20.5389 62.2997 20.7466 62.5748 21.035 62.7768L27.346 67.0971C27.4499 67.1695 27.5735 67.2175 27.7051 67.2368C27.8367 67.2561 27.9719 67.2459 28.0976 67.2072C29.8987 66.6075 36.6067 63.5355 44.5344 59.7783L46.1228 73.8651C46.1363 73.9871 46.1881 74.1035 46.2727 74.2021C46.3572 74.3005 46.4714 74.3771 46.6028 74.4238C46.734 74.4704 46.8777 74.4851 47.0181 74.4664C47.1584 74.4478 47.2902 74.3964 47.3992 74.3178L50.9446 71.7722C51.1387 71.6318 51.2693 71.4368 51.3135 71.2216L54.6746 54.9562C60.3472 52.2392 65.7648 49.6079 69.5797 47.7477C69.9757 47.5617 70.2958 47.2753 70.4968 46.9271C70.6976 46.579 70.7698 46.1859 70.7031 45.8012C70.6366 45.4165 70.4347 45.0588 70.1245 44.7765C69.8146 44.4942 69.4115 44.3009 68.9699 44.2229Z" fill="url(#paint0_linear_338_487)" fill-opacity="0.6"/>
</g>
</g>
<path d="M1272.64 48.48H1274.22V59.92H1272.64V48.48ZM1269.7 53.38H1273.12V54.76H1269.7V53.38ZM1268.78 48.84H1270.34V59.28H1268.78V48.84ZM1258.9 50.64H1268.06V51.96H1258.9V50.64ZM1263.5 52.88C1265.76 52.88 1267.34 54.12 1267.34 55.98C1267.34 57.86 1265.76 59.08 1263.5 59.08C1261.22 59.08 1259.64 57.86 1259.64 55.98C1259.64 54.12 1261.22 52.88 1263.5 52.88ZM1263.5 54.12C1262.08 54.12 1261.12 54.86 1261.12 55.98C1261.12 57.12 1262.08 57.84 1263.5 57.84C1264.9 57.84 1265.86 57.12 1265.86 55.98C1265.86 54.86 1264.9 54.12 1263.5 54.12ZM1262.68 48.62H1264.3V51.38H1262.68V48.62ZM1268.3 60.24C1272.06 60.24 1274.32 61.36 1274.32 63.38C1274.32 65.38 1272.06 66.52 1268.3 66.52C1264.5 66.52 1262.26 65.38 1262.26 63.38C1262.26 61.36 1264.5 60.24 1268.3 60.24ZM1268.3 61.52C1265.52 61.52 1263.9 62.18 1263.9 63.38C1263.9 64.58 1265.52 65.26 1268.3 65.26C1271.04 65.26 1272.68 64.58 1272.68 63.38C1272.68 62.18 1271.04 61.52 1268.3 61.52ZM1277.4 57.38H1293.74V58.74H1277.4V57.38ZM1284.74 54.48H1286.38V57.94H1284.74V54.48ZM1279.46 53.96H1291.84V55.32H1279.46V53.96ZM1279.46 49.3H1291.7V50.64H1281.1V54.76H1279.46V49.3ZM1285.54 60.04C1289.4 60.04 1291.74 61.22 1291.74 63.28C1291.74 65.38 1289.4 66.54 1285.54 66.54C1281.68 66.54 1279.34 65.38 1279.34 63.28C1279.34 61.22 1281.68 60.04 1285.54 60.04ZM1285.54 61.32C1282.72 61.32 1281.02 62.04 1281.02 63.28C1281.02 64.54 1282.72 65.24 1285.54 65.24C1288.38 65.24 1290.06 64.54 1290.06 63.28C1290.06 62.04 1288.38 61.32 1285.54 61.32ZM1296.02 50.42H1306.08V51.78H1296.02V50.42ZM1295.76 62.1L1295.56 60.68C1298.82 60.68 1303.2 60.64 1306.92 60.18L1307.02 61.42C1303.24 62.04 1298.94 62.1 1295.76 62.1ZM1297.96 51.44H1299.58V61.06H1297.96V51.44ZM1302.52 51.44H1304.14V61.06H1302.52V51.44ZM1308.02 48.48H1309.7V66.56H1308.02V48.48ZM1309.3 55.7H1312.66V57.1H1309.3V55.7ZM1319.24 49.54C1321.96 49.54 1323.96 51.3 1323.96 53.84C1323.96 56.36 1321.96 58.1 1319.24 58.1C1316.52 58.1 1314.52 56.36 1314.52 53.84C1314.52 51.3 1316.52 49.54 1319.24 49.54ZM1319.24 50.96C1317.44 50.96 1316.14 52.12 1316.14 53.84C1316.14 55.54 1317.44 56.72 1319.24 56.72C1321.04 56.72 1322.34 55.54 1322.34 53.84C1322.34 52.12 1321.04 50.96 1319.24 50.96ZM1326.56 48.48H1328.22V59.12H1326.56V48.48ZM1327.76 53.12H1330.9V54.52H1327.76V53.12ZM1316.48 60.06H1328.22V66.58H1326.56V61.4H1316.48V60.06ZM1350.58 48.46H1352.24V61.78H1350.58V48.46ZM1351.72 53.96H1354.92V55.34H1351.72V53.96ZM1340.98 64.8H1353.06V66.16H1340.98V64.8ZM1340.98 60.42H1342.64V65.34H1340.98V60.42ZM1343.26 49.74C1345.96 49.74 1347.98 51.6 1347.98 54.2C1347.98 56.82 1345.96 58.66 1343.26 58.66C1340.56 58.66 1338.54 56.82 1338.54 54.2C1338.54 51.6 1340.56 49.74 1343.26 49.74ZM1343.26 51.2C1341.5 51.2 1340.16 52.44 1340.16 54.2C1340.16 55.98 1341.5 57.2 1343.26 57.2C1345.02 57.2 1346.36 55.98 1346.36 54.2C1346.36 52.44 1345.02 51.2 1343.26 51.2ZM1370.34 48.48H1371.94V66.56H1370.34V48.48ZM1367.3 55.84H1370.78V57.2H1367.3V55.84ZM1366.24 48.88H1367.8V65.64H1366.24V48.88ZM1357.48 50.66H1359.14V61.1H1357.48V50.66ZM1357.48 60.44H1358.64C1360.5 60.44 1362.58 60.32 1364.94 59.86L1365.12 61.3C1362.66 61.78 1360.58 61.88 1358.64 61.88H1357.48V60.44Z" fill="black"/>
<path d="M1430.34 59.98H1431.98V66.58H1430.34V59.98ZM1423 59.4H1439.34V60.78H1423V59.4ZM1430.32 51.58H1431.78V52.04C1431.78 55.16 1428.4 57.46 1424.6 58.04L1424.02 56.72C1427.28 56.28 1430.32 54.3 1430.32 52.04V51.58ZM1430.54 51.58H1431.98V52.04C1431.98 54.28 1435.04 56.28 1438.28 56.72L1437.68 58.04C1433.9 57.48 1430.54 55.12 1430.54 52.04V51.58ZM1424.58 50.7H1437.76V52.06H1424.58V50.7ZM1430.34 48.48H1431.98V51.18H1430.34V48.48ZM1445.9 51.88H1447.26V52.78C1447.26 56.04 1445.28 58.72 1442.26 59.78L1441.44 58.48C1444.12 57.56 1445.9 55.32 1445.9 52.78V51.88ZM1446.18 51.88H1447.56V52.78C1447.56 55.18 1449.4 57.3 1452.08 58.14L1451.26 59.46C1448.24 58.46 1446.18 55.9 1446.18 52.78V51.88ZM1441.9 50.9H1451.54V52.24H1441.9V50.9ZM1445.9 48.6H1447.56V51.4H1445.9V48.6ZM1450.94 54.04H1455.5V55.42H1450.94V54.04ZM1454.6 48.5H1456.26V61.98H1454.6V48.5ZM1444.72 64.8H1456.76V66.16H1444.72V64.8ZM1444.72 60.78H1446.38V65.54H1444.72V60.78ZM1471.05 62.96H1487.43V64.34H1471.05V62.96ZM1478.37 59.08H1480.03V63.54H1478.37V59.08ZM1473.03 49.82H1485.41V55.3H1474.73V58.92H1473.09V53.96H1483.77V51.16H1473.03V49.82ZM1473.09 58.22H1485.83V59.58H1473.09V58.22ZM1491.51 57.14H1503.93V58.5H1491.51V57.14ZM1489.45 62.74H1505.83V64.12H1489.45V62.74ZM1491.51 50.14H1503.75V51.52H1493.17V57.74H1491.51V50.14ZM1521.48 48.5H1523.06V58.32H1521.48V48.5ZM1518.64 52.64H1522.04V54H1518.64V52.64ZM1517.6 48.84H1519.18V58.2H1517.6V48.84ZM1508.64 49.76H1515.62V57.38H1508.64V49.76ZM1514.06 51.06H1510.18V56.06H1514.06V51.06ZM1511.22 59.16H1512.86V61.3H1521.46V59.16H1523.06V66.32H1511.22V59.16ZM1512.86 62.62V64.96H1521.46V62.62H1512.86Z" fill="black"/>
<path d="M1579.78 51.06H1581.12V54C1581.12 57.82 1578.82 61.66 1575.94 63.08L1574.98 61.76C1577.6 60.52 1579.78 57.12 1579.78 54V51.06ZM1580.1 51.06H1581.44V54C1581.44 57.06 1583.62 60.18 1586.28 61.32L1585.34 62.64C1582.42 61.28 1580.1 57.76 1580.1 54V51.06ZM1575.58 50.32H1585.68V51.72H1575.58V50.32ZM1588.12 48.48H1589.78V66.56H1588.12V48.48ZM1595.46 56.92H1607.88V58.28H1595.46V56.92ZM1593.4 62.9H1609.78V64.3H1593.4V62.9ZM1600.72 57.5H1602.38V63.46H1600.72V57.5ZM1595.46 49.92H1607.7V51.28H1597.12V57.52H1595.46V49.92Z" fill="black"/>
<path d="M1668.14 52.5H1673.6V53.88H1668.14V52.5ZM1668.14 58.22H1673.6V59.6H1668.14V58.22ZM1664.82 49.86C1667.44 49.86 1669.32 52.32 1669.32 56.16C1669.32 60.02 1667.44 62.48 1664.82 62.48C1662.18 62.48 1660.32 60.02 1660.32 56.16C1660.32 52.32 1662.18 49.86 1664.82 49.86ZM1664.82 51.36C1663.08 51.36 1661.88 53.24 1661.88 56.16C1661.88 59.1 1663.08 61.02 1664.82 61.02C1666.56 61.02 1667.76 59.1 1667.76 56.16C1667.76 53.24 1666.56 51.36 1664.82 51.36ZM1673.24 48.46H1674.88V66.58H1673.24V48.46ZM1692.04 48.48H1693.62V59.92H1692.04V48.48ZM1689.1 53.38H1692.52V54.76H1689.1V53.38ZM1688.18 48.84H1689.74V59.28H1688.18V48.84ZM1678.3 50.64H1687.46V51.96H1678.3V50.64ZM1682.9 52.88C1685.16 52.88 1686.74 54.12 1686.74 55.98C1686.74 57.86 1685.16 59.08 1682.9 59.08C1680.62 59.08 1679.04 57.86 1679.04 55.98C1679.04 54.12 1680.62 52.88 1682.9 52.88ZM1682.9 54.12C1681.48 54.12 1680.52 54.86 1680.52 55.98C1680.52 57.12 1681.48 57.84 1682.9 57.84C1684.3 57.84 1685.26 57.12 1685.26 55.98C1685.26 54.86 1684.3 54.12 1682.9 54.12ZM1682.08 48.62H1683.7V51.38H1682.08V48.62ZM1687.7 60.24C1691.46 60.24 1693.72 61.36 1693.72 63.38C1693.72 65.38 1691.46 66.52 1687.7 66.52C1683.9 66.52 1681.66 65.38 1681.66 63.38C1681.66 61.36 1683.9 60.24 1687.7 60.24ZM1687.7 61.52C1684.92 61.52 1683.3 62.18 1683.3 63.38C1683.3 64.58 1684.92 65.26 1687.7 65.26C1690.44 65.26 1692.08 64.58 1692.08 63.38C1692.08 62.18 1690.44 61.52 1687.7 61.52ZM1709.16 48.46H1710.82V61.78H1709.16V48.46ZM1710.3 53.96H1713.5V55.34H1710.3V53.96ZM1699.56 64.8H1711.64V66.16H1699.56V64.8ZM1699.56 60.42H1701.22V65.34H1699.56V60.42ZM1701.84 49.74C1704.54 49.74 1706.56 51.6 1706.56 54.2C1706.56 56.82 1704.54 58.66 1701.84 58.66C1699.14 58.66 1697.12 56.82 1697.12 54.2C1697.12 51.6 1699.14 49.74 1701.84 49.74ZM1701.84 51.2C1700.08 51.2 1698.74 52.44 1698.74 54.2C1698.74 55.98 1700.08 57.2 1701.84 57.2C1703.6 57.2 1704.94 55.98 1704.94 54.2C1704.94 52.44 1703.6 51.2 1701.84 51.2ZM1728.92 48.48H1730.52V66.56H1728.92V48.48ZM1725.88 55.84H1729.36V57.2H1725.88V55.84ZM1724.82 48.88H1726.38V65.64H1724.82V48.88ZM1716.06 50.66H1717.72V61.1H1716.06V50.66ZM1716.06 60.44H1717.22C1719.08 60.44 1721.16 60.32 1723.52 59.86L1723.7 61.3C1721.24 61.78 1719.16 61.88 1717.22 61.88H1716.06V60.44ZM1735.75 48.94H1737.39V50.94H1746.13V48.94H1747.79V55.62H1735.75V48.94ZM1737.39 52.24V54.28H1746.13V52.24H1737.39ZM1733.57 57.64H1749.91V58.98H1733.57V57.64ZM1740.93 54.98H1742.57V58H1740.93V54.98ZM1740.91 60.18H1742.33V60.66C1742.33 63.82 1739.15 65.9 1735.45 66.5L1734.85 65.2C1738.13 64.74 1740.91 62.98 1740.91 60.66V60.18ZM1741.17 60.18H1742.59V60.66C1742.59 62.98 1745.35 64.74 1748.65 65.2L1748.03 66.5C1744.33 65.9 1741.17 63.82 1741.17 60.66V60.18Z" fill="black"/>
<path d="M1800.7 50.28H1809V61.98H1800.7V50.28ZM1807.38 51.62H1802.32V60.64H1807.38V51.62ZM1812.22 48.48H1813.9V66.56H1812.22V48.48ZM1813.5 55.7H1816.86V57.1H1813.5V55.7ZM1831.52 48.46H1833.18V66.58H1831.52V48.46ZM1823.64 49.86C1826.32 49.86 1828.24 52.32 1828.24 56.16C1828.24 60.02 1826.32 62.48 1823.64 62.48C1820.98 62.48 1819.06 60.02 1819.06 56.16C1819.06 52.32 1820.98 49.86 1823.64 49.86ZM1823.64 51.36C1821.88 51.36 1820.64 53.24 1820.64 56.16C1820.64 59.1 1821.88 61.02 1823.64 61.02C1825.42 61.02 1826.64 59.1 1826.64 56.16C1826.64 53.24 1825.42 51.36 1823.64 51.36ZM1850.64 48.48H1852.24V66.56H1850.64V48.48ZM1844.68 55.36H1847.68V56.82H1844.68V55.36ZM1847.14 48.92H1848.72V65.62H1847.14V48.92ZM1836.96 50.76H1845.22V52.12H1836.96V50.76ZM1836.8 62.12L1836.6 60.72C1838.94 60.72 1842.86 60.64 1845.6 60.28L1845.72 61.5C1842.9 62.04 1839.12 62.12 1836.8 62.12ZM1838.44 51.64H1839.96V61.1H1838.44V51.64ZM1842.2 51.64H1843.72V61.1H1842.2V51.64ZM1868.32 48.46H1869.98V66.58H1868.32V48.46ZM1860.44 49.86C1863.12 49.86 1865.04 52.32 1865.04 56.16C1865.04 60.02 1863.12 62.48 1860.44 62.48C1857.78 62.48 1855.86 60.02 1855.86 56.16C1855.86 52.32 1857.78 49.86 1860.44 49.86ZM1860.44 51.36C1858.68 51.36 1857.44 53.24 1857.44 56.16C1857.44 59.1 1858.68 61.02 1860.44 61.02C1862.22 61.02 1863.44 59.1 1863.44 56.16C1863.44 53.24 1862.22 51.36 1860.44 51.36ZM1878.37 51.06H1879.71V54C1879.71 57.82 1877.41 61.66 1874.53 63.08L1873.57 61.76C1876.19 60.52 1878.37 57.12 1878.37 54V51.06ZM1878.69 51.06H1880.03V54C1880.03 57.06 1882.21 60.18 1884.87 61.32L1883.93 62.64C1881.01 61.28 1878.69 57.76 1878.69 54V51.06ZM1874.17 50.32H1884.27V51.72H1874.17V50.32ZM1886.71 48.48H1888.37V66.56H1886.71V48.48Z" fill="black"/>
<rect x="307" y="27" width="689" height="65" rx="32.5" stroke="#3619CC" stroke-width="2"/>
<mask id="path-15-inside-2_338_487" fill="white">
<path d="M972.621 76.0039L960.39 63.7727C959.413 64.6048 958.29 65.2487 957.02 65.7045C955.751 66.1602 954.475 66.3881 953.192 66.3881C950.064 66.3881 947.417 65.3053 945.25 63.1398C943.083 60.9743 942 58.3277 942 55.1999C942 52.0721 943.082 49.4242 945.246 47.2561C947.41 45.088 950.056 44.0026 953.184 44C956.312 43.9974 958.961 45.0808 961.13 47.2502C963.299 49.4196 964.384 52.0676 964.384 55.194C964.384 56.5509 964.144 57.8641 963.663 59.1337C963.183 60.4033 962.551 61.4894 961.769 62.3918L974 74.621L972.621 76.0039ZM953.194 64.4329C955.785 64.4329 957.973 63.5409 959.757 61.7569C961.541 59.973 962.433 57.7847 962.433 55.1921C962.433 52.5995 961.541 50.4119 959.757 48.6292C957.973 46.8465 955.785 45.9546 953.194 45.9532C950.603 45.9519 948.414 46.8439 946.629 48.6292C944.844 50.4145 943.952 52.6021 943.953 55.1921C943.955 57.7821 944.847 59.9697 946.629 61.755C948.412 63.5403 950.599 64.4322 953.192 64.4309"/>
</mask>
<path d="M972.621 76.0039L960.39 63.7727C959.413 64.6048 958.29 65.2487 957.02 65.7045C955.751 66.1602 954.475 66.3881 953.192 66.3881C950.064 66.3881 947.417 65.3053 945.25 63.1398C943.083 60.9743 942 58.3277 942 55.1999C942 52.0721 943.082 49.4242 945.246 47.2561C947.41 45.088 950.056 44.0026 953.184 44C956.312 43.9974 958.961 45.0808 961.13 47.2502C963.299 49.4196 964.384 52.0676 964.384 55.194C964.384 56.5509 964.144 57.8641 963.663 59.1337C963.183 60.4033 962.551 61.4894 961.769 62.3918L974 74.621L972.621 76.0039ZM953.194 64.4329C955.785 64.4329 957.973 63.5409 959.757 61.7569C961.541 59.973 962.433 57.7847 962.433 55.1921C962.433 52.5995 961.541 50.4119 959.757 48.6292C957.973 46.8465 955.785 45.9546 953.194 45.9532C950.603 45.9519 948.414 46.8439 946.629 48.6292C944.844 50.4145 943.952 52.6021 943.953 55.1921C943.955 57.7821 944.847 59.9697 946.629 61.755C948.412 63.5403 950.599 64.4322 953.192 64.4309" fill="#3619CC"/>
<path d="M972.621 76.0039L971.207 77.4181L972.623 78.8343L974.037 77.4161L972.621 76.0039ZM960.39 63.7727L961.804 62.3585L960.498 61.0528L959.093 62.2503L960.39 63.7727ZM953.192 66.3881V64.3881V66.3881ZM961.769 62.3918L960.258 61.0814L959.037 62.4888L960.355 63.8061L961.769 62.3918ZM974 74.621L975.416 76.0332L976.827 74.6189L975.414 73.2067L974 74.621ZM974.035 74.5897L961.804 62.3585L958.976 65.1869L971.207 77.4181L974.035 74.5897ZM959.093 62.2503C958.309 62.918 957.399 63.4436 956.345 63.8221L957.696 67.5868C959.181 67.0538 960.517 66.2916 961.687 65.2951L959.093 62.2503ZM956.345 63.8221C955.281 64.2041 954.233 64.3881 953.192 64.3881V68.3881C954.717 68.3881 956.221 68.1164 957.696 67.5868L956.345 63.8221ZM953.192 64.3881C950.582 64.3881 948.447 63.5071 946.664 61.7252L943.836 64.5545C946.387 67.1035 949.547 68.3881 953.192 68.3881V64.3881ZM946.664 61.7252C944.881 59.9436 944 57.8096 944 55.1999H940C940 58.8458 941.286 62.0051 943.836 64.5545L946.664 61.7252ZM944 55.1999C944 52.5894 944.881 50.4534 946.662 48.669L943.831 45.8431C941.284 48.3949 940 51.5548 940 55.1999H944ZM946.662 48.669C948.442 46.8851 950.576 46.0022 953.186 46L953.183 42C949.537 42.003 946.379 43.2908 943.831 45.8431L946.662 48.669ZM953.186 46C955.794 45.9978 957.93 46.8786 959.716 48.6644L962.544 45.836C959.991 43.283 956.83 41.997 953.183 42L953.186 46ZM959.716 48.6644C961.502 50.4508 962.384 52.5866 962.384 55.194H966.384C966.384 51.5485 965.097 48.3884 962.544 45.836L959.716 48.6644ZM962.384 55.194C962.384 56.3089 962.188 57.3823 961.793 58.4258L965.534 59.8417C966.1 58.346 966.384 56.7929 966.384 55.194H962.384ZM961.793 58.4258C961.385 59.5047 960.866 60.3796 960.258 61.0814L963.28 63.7021C964.236 62.5991 964.981 61.302 965.534 59.8417L961.793 58.4258ZM960.355 63.8061L972.586 76.0353L975.414 73.2067L963.183 60.9774L960.355 63.8061ZM972.584 73.2088L971.205 74.5917L974.037 77.4161L975.416 76.0332L972.584 73.2088ZM953.194 66.4329C956.3 66.4329 959.001 65.3414 961.171 63.1712L958.343 60.3427C956.945 61.7404 955.271 62.4329 953.194 62.4329V66.4329ZM961.171 63.1712C963.342 61.0007 964.433 58.2987 964.433 55.1921H960.433C960.433 57.2707 959.74 58.9453 958.343 60.3427L961.171 63.1712ZM964.433 55.1921C964.433 52.0854 963.342 49.3838 961.171 47.2145L958.343 50.0439C959.74 51.4399 960.433 53.1135 960.433 55.1921H964.433ZM961.171 47.2145C959.001 45.0459 956.3 43.9548 953.195 43.9532L953.193 47.9532C955.271 47.9543 956.945 48.6471 958.343 50.0439L961.171 47.2145ZM953.195 43.9532C950.089 43.9517 947.386 45.0435 945.215 47.215L948.043 50.0434C949.442 48.6444 951.117 47.9522 953.193 47.9532L953.195 43.9532ZM945.215 47.215C943.044 49.3863 941.952 52.0877 941.953 55.1931L945.953 55.1911C945.952 53.1165 946.644 51.4426 948.043 50.0434L945.215 47.215ZM941.953 55.1931C941.955 58.2969 943.046 60.9972 945.214 63.1682L948.044 60.3418C946.647 58.9423 945.954 57.2673 945.953 55.1911L941.953 55.1931ZM945.214 63.1682C947.383 65.3409 950.086 66.4325 953.193 66.4309L953.191 62.4309C951.113 62.432 949.44 61.7397 948.044 60.3418L945.214 63.1682Z" fill="#3619CC" mask="url(#path-15-inside-2_338_487)"/>
<circle cx="1047.5" cy="58.5" r="29.3704" stroke="#3619CC" stroke-width="2.25926"/>
<path d="M1047.5 43.5085C1045.88 43.5085 1044.33 44.1519 1043.18 45.2971C1042.04 46.4423 1041.39 47.9955 1041.39 49.615V60.4709C1041.39 61.2729 1041.55 62.0669 1041.86 62.8078C1042.17 63.5487 1042.62 64.2218 1043.18 64.7889C1043.75 65.3559 1044.42 65.8057 1045.16 66.1126C1045.9 66.4195 1046.7 66.5774 1047.5 66.5774C1048.3 66.5774 1049.1 66.4195 1049.84 66.1126C1050.58 65.8057 1051.25 65.3559 1051.82 64.7889C1052.38 64.2218 1052.83 63.5487 1053.14 62.8078C1053.45 62.0669 1053.61 61.2729 1053.61 60.4709V49.615C1053.61 47.9955 1052.96 46.4423 1051.82 45.2971C1050.67 44.1519 1049.12 43.5085 1047.5 43.5085ZM1038.68 59.4532C1038.68 59.1833 1038.57 58.9244 1038.38 58.7335C1038.19 58.5427 1037.93 58.4355 1037.66 58.4355C1037.39 58.4355 1037.13 58.5427 1036.94 58.7335C1036.75 58.9244 1036.64 59.1833 1036.64 59.4532V60.4709C1036.64 63.174 1037.65 65.7798 1039.47 67.7788C1041.29 69.7777 1043.79 71.026 1046.48 71.2794V75.0586C1046.48 75.3285 1046.59 75.5874 1046.78 75.7783C1046.97 75.9691 1047.23 76.0763 1047.5 76.0763C1047.77 76.0763 1048.03 75.9691 1048.22 75.7783C1048.41 75.5874 1048.52 75.3285 1048.52 75.0586V71.2794C1051.21 71.026 1053.71 69.7777 1055.53 67.7788C1057.35 65.7798 1058.36 63.174 1058.36 60.4709V59.4532C1058.36 59.1833 1058.25 58.9244 1058.06 58.7335C1057.87 58.5427 1057.61 58.4355 1057.34 58.4355C1057.07 58.4355 1056.81 58.5427 1056.62 58.7335C1056.43 58.9244 1056.32 59.1833 1056.32 59.4532V60.4709C1056.32 62.8103 1055.39 65.0538 1053.74 66.7079C1052.08 68.3621 1049.84 69.2914 1047.5 69.2914C1045.16 69.2914 1042.92 68.3621 1041.26 66.7079C1039.61 65.0538 1038.68 62.8103 1038.68 60.4709V59.4532Z" fill="#3619CC"/>
<defs>
<filter id="filter0_d_338_487" x="18.3291" y="42.4531" width="249.721" height="36.1212" filterUnits="userSpaceOnUse" color-interpolation-filters="sRGB">
<feFlood flood-opacity="0" result="BackgroundImageFix"/>
<feColorMatrix in="SourceAlpha" type="matrix" values="0 0 0 0 0 0 0 0 0 0 0 0 0 0 0 0 0 0 127 0" result="hardAlpha"/>
<feOffset dy="2.05"/>
<feGaussianBlur stdDeviation="1.025"/>
<feComposite in2="hardAlpha" operator="out"/>
<feColorMatrix type="matrix" values="0 0 0 0 0 0 0 0 0 0 0 0 0 0 0 0 0 0 0.25 0"/>
<feBlend mode="normal" in2="BackgroundImageFix" result="effect1_dropShadow_338_487"/>
<feBlend mode="normal" in="SourceGraphic" in2="effect1_dropShadow_338_487" result="shape"/>
</filter>
<linearGradient id="paint0_linear_338_487" x1="53.7669" y1="49.351" x2="75.438" y2="45.519" gradientUnits="userSpaceOnUse">
<stop stop-color="#8F79FF" stop-opacity="0"/>
<stop offset="0.987093" stop-color="#8F79FF"/>
</linearGradient>
</defs>
</svg>
