<svg width="1681" height="362" viewBox="0 0 1681 362" fill="none" xmlns="http://www.w3.org/2000/svg">
<path d="M607.256 160.963L569.702 240.178C564.226 250.74 557.38 256.021 549.165 256.021C541.146 256.021 534.398 250.446 528.921 239.298L490.781 160.963V285.653H450V76.7603H490.194L549.165 197.343L607.843 76.7603H648.037V285.653H607.256V160.963ZM849.755 171.525V187.368C849.755 222.376 843.106 247.806 829.805 263.649C816.701 279.492 795.576 287.413 766.433 287.413C737.29 287.413 716.166 279.492 703.061 263.649C690.152 247.806 683.698 222.083 683.698 186.488V171.231C683.698 138.76 690.25 114.608 703.355 98.7645C716.655 82.9216 737.583 75 766.14 75C794.892 75 816.016 83.0166 829.511 99.0578C843.007 115.095 849.755 139.252 849.755 171.525ZM808.975 186.488V175.632C808.975 156.855 806.628 141.893 801.933 130.744C796.456 117.835 784.721 111.38 766.727 111.38C748.537 111.38 736.703 117.835 731.227 130.744C726.728 141.306 724.479 156.269 724.479 175.632V186.488C724.479 211.719 727.999 228.736 735.041 237.537C737.779 241.252 741.789 244.479 747.07 247.219C752.546 249.76 759.001 251.033 766.433 251.033C774.061 251.033 780.516 249.76 785.797 247.219C791.078 244.674 795.185 241.546 798.119 237.831C801.053 234.112 803.302 229.223 804.867 223.161C807.605 213.574 808.975 201.351 808.975 186.488Z" fill="#3619CC"/>
<path d="M1080.55 285.653H1039.77V201.157H963.191V285.653H922.41V76.7603H963.191V165.07H1039.77V76.7603H1080.55V285.653ZM1290.49 285.653H1247.95L1236.21 249.566H1166.09L1154.65 285.653H1112.11L1179 94.3636C1181.94 87.7109 1185.16 83.1158 1188.68 80.5744C1192.4 78.0291 1196.9 76.7603 1202.18 76.7603C1207.46 76.7603 1211.66 77.9339 1214.8 80.281C1218.12 82.6281 1221.05 87.3223 1223.6 94.3636L1290.49 285.653ZM1226.82 215.24L1202.18 132.504L1176.36 215.24H1226.82ZM1487.85 76.7603V264.529C1487.85 270.984 1485.89 276.558 1481.98 281.252C1478.07 285.748 1473.47 288 1468.19 288C1454.7 288 1443.65 280.174 1435.04 264.529L1362.87 151.574V285.653H1322.08V76.7603H1361.4L1447.07 213.479V76.7603H1487.85ZM1523.12 187.368V161.55C1523.12 134.36 1530.26 113.141 1544.54 97.8843C1558.82 82.6281 1578.57 75 1603.8 75C1629.03 75 1649.28 82.6281 1664.53 97.8843C1675.29 108.641 1680.67 124.777 1680.67 146.293H1642.53C1642.53 123.017 1630.11 111.38 1605.27 111.38C1597.84 111.38 1591.48 112.847 1586.2 115.781C1581.11 118.517 1577.3 121.744 1574.76 125.463C1572.21 129.178 1570.26 134.653 1568.89 141.893C1567.52 149.128 1566.74 155.19 1566.54 160.083C1566.35 164.971 1566.25 171.525 1566.25 179.74C1566.25 187.955 1566.25 193.529 1566.25 196.463C1566.45 199.199 1566.74 203.798 1567.13 210.252C1567.71 216.508 1568.5 221.008 1569.47 223.748C1570.65 226.484 1572.21 230.004 1574.17 234.31C1576.32 238.612 1578.96 241.645 1582.09 243.405C1590.11 248.488 1599.21 251.033 1609.38 251.033C1626.39 251.033 1638.42 243.794 1645.46 229.322V215.24H1620.23V181.207H1680.38V244.285C1674.31 258.562 1664.73 269.318 1651.62 276.558C1638.52 283.794 1623.66 287.413 1607.03 287.413C1577.49 287.413 1556.08 279.198 1542.78 262.769C1529.67 246.141 1523.12 221.008 1523.12 187.368Z" fill="#291399"/>
<mask id="mask0_803_551" style="mask-type:luminance" maskUnits="userSpaceOnUse" x="0" y="0" width="362" height="362">
<path d="M362 0H0V362H362V0Z" fill="white"/>
</mask>
<g mask="url(#mask0_803_551)">
<path d="M60.6518 122.814L116.364 138.897L177.599 94.4248L89.7189 96.944C88.8568 96.982 88.0206 97.2496 87.2966 97.7192L59.4891 113.706C58.6241 114.185 57.9228 114.913 57.4759 115.795C57.029 116.678 56.857 117.673 56.9821 118.654C57.1074 119.636 57.524 120.556 58.1782 121.298C58.8325 122.039 59.6941 122.567 60.6518 122.814Z" fill="#7559FF"/>
<path d="M334.561 73.0108L273.52 59.8337C268.387 58.7192 263.073 58.7221 257.94 59.8423C252.808 60.9623 247.977 63.1734 243.775 66.3254L59.3916 200.325L15.1126 198.387C12.5765 198.3 10.0772 199.014 7.96778 200.424C5.85841 201.835 4.24549 203.873 3.35679 206.25C2.46809 208.627 2.34849 211.223 3.0149 213.671C3.6813 216.12 5.10004 218.298 7.07076 219.897L50.187 254.099C50.8968 254.672 51.7417 255.052 52.6409 255.205C53.5399 255.358 54.4632 255.278 55.3222 254.971C67.6274 250.223 113.456 225.903 167.618 196.159L178.47 307.68C178.562 308.646 178.916 309.567 179.494 310.348C180.071 311.127 180.852 311.733 181.749 312.103C182.646 312.472 183.627 312.588 184.586 312.44C185.545 312.293 186.446 311.886 187.19 311.264L211.412 291.111C212.738 290 213.631 288.456 213.932 286.752L236.896 157.984C275.651 136.474 312.663 115.643 338.727 100.915C341.432 99.4435 343.619 97.1758 344.992 94.4196C346.364 91.6633 346.858 88.5516 346.402 85.5061C345.947 82.4606 344.568 79.6284 342.449 77.3934C340.331 75.1583 337.578 73.6283 334.561 73.0108Z" fill="#3619CC"/>
<path d="M334.561 73.0108L273.52 59.8337C268.387 58.7192 263.073 58.7221 257.94 59.8423C252.808 60.9623 247.977 63.1734 243.775 66.3254L59.3916 200.325L15.1126 198.387C12.5765 198.3 10.0772 199.014 7.96778 200.424C5.85841 201.835 4.24549 203.873 3.35679 206.25C2.46809 208.627 2.34849 211.223 3.0149 213.671C3.6813 216.12 5.10004 218.298 7.07076 219.897L50.187 254.099C50.8968 254.672 51.7417 255.052 52.6409 255.205C53.5399 255.358 54.4632 255.278 55.3222 254.971C67.6274 250.223 113.456 225.903 167.618 196.159L178.47 307.68C178.562 308.646 178.916 309.567 179.494 310.348C180.071 311.127 180.852 311.733 181.749 312.103C182.646 312.472 183.627 312.588 184.586 312.44C185.545 312.293 186.446 311.886 187.19 311.264L211.412 291.111C212.738 290 213.631 288.456 213.932 286.752L236.896 157.984C275.651 136.474 312.663 115.643 338.727 100.915C341.432 99.4435 343.619 97.1758 344.992 94.4196C346.364 91.6633 346.858 88.5516 346.402 85.5061C345.947 82.4606 344.568 79.6284 342.449 77.3934C340.331 75.1583 337.578 73.6283 334.561 73.0108Z" fill="url(#paint0_linear_803_551)" fill-opacity="0.6"/>
</g>
<defs>
<linearGradient id="paint0_linear_803_551" x1="230.694" y1="113.609" x2="379.906" y2="90.8395" gradientUnits="userSpaceOnUse">
<stop stop-color="#8F79FF" stop-opacity="0"/>
<stop offset="0.987093" stop-color="#8F79FF"/>
</linearGradient>
</defs>
</svg>
